<svg id="Layer_1" data-name="Layer 1" xmlns="http://www.w3.org/2000/svg" xmlns:xlink="http://www.w3.org/1999/xlink" viewBox="0 0 1100.17 853.46"><defs><style>.cls-1{clip-path:url(#clip-path);}.cls-2{fill:#3b51cc;}.cls-3{fill:#8c96ff;}.cls-4{fill:#ff89e8;}.cls-5{fill:#ffe542;}.cls-6{fill:#00d4cb;}.cls-7{fill:none;stroke:#8c96ff;stroke-miterlimit:10;}</style><clipPath id="clip-path" transform="translate(-246.3 -139.64)"/></defs><title>back</title><g class="cls-1"><ellipse class="cls-2" cx="199.57" cy="109.46" rx="66.93" ry="72"/><ellipse class="cls-2" cx="530.08" cy="422.13" rx="66.93" ry="72"/><ellipse class="cls-2" cx="1002.71" cy="350.13" rx="66.93" ry="72"/><rect class="cls-2" x="793.37" y="38.77" width="131.42" height="141.37"/><rect class="cls-2" x="473.23" y="710.77" width="131.42" height="141.37"/><rect class="cls-2" y="244.89" width="131.42" height="141.37"/><polygon class="cls-2" points="779.61 426.72 700.15 574.79 859.08 574.79 779.61 426.72"/><polygon class="cls-2" points="534.21 12.1 454.75 160.16 613.67 160.16 534.21 12.1"/><polygon class="cls-2" points="288.8 420.1 209.34 568.16 368.27 568.16 288.8 420.1"/><polygon class="cls-2" points="948.32 684.1 868.85 832.16 1027.78 832.16 948.32 684.1"/><ellipse class="cls-2" cx="199.57" cy="781.46" rx="66.93" ry="72"/><ellipse class="cls-3" cx="214.56" cy="97.36" rx="66.93" ry="72"/><ellipse class="cls-4" cx="545.07" cy="410.03" rx="66.93" ry="72"/><ellipse class="cls-3" cx="1017.7" cy="338.03" rx="66.93" ry="72"/><rect class="cls-4" x="808.36" y="26.67" width="131.42" height="141.37"/><rect class="cls-5" x="488.22" y="698.67" width="131.42" height="141.37"/><rect class="cls-4" x="14.99" y="232.79" width="131.42" height="141.37"/><polygon class="cls-6" points="794.61 414.63 715.14 562.69 874.07 562.69 794.61 414.63"/><polygon class="cls-5" points="549.2 0 469.74 148.06 628.66 148.06 549.2 0"/><polygon class="cls-3" points="303.8 408 224.33 556.06 383.26 556.06 303.8 408"/><polygon class="cls-5" points="963.31 672 883.84 820.06 1042.77 820.06 963.31 672"/><ellipse class="cls-6" cx="214.56" cy="769.36" rx="66.93" ry="72"/><ellipse class="cls-2" cx="875.71" cy="274.78" rx="4.65" ry="5"/><ellipse class="cls-2" cx="875.71" cy="293.09" rx="4.65" ry="5"/><ellipse class="cls-2" cx="875.71" cy="313.66" rx="4.65" ry="5"/><ellipse class="cls-2" cx="875.71" cy="331.97" rx="4.65" ry="5"/><ellipse class="cls-2" cx="875.71" cy="350.28" rx="4.65" ry="5"/><ellipse class="cls-2" cx="875.71" cy="368.59" rx="4.65" ry="5"/><ellipse class="cls-2" cx="875.71" cy="389.16" rx="4.65" ry="5"/><ellipse class="cls-2" cx="875.71" cy="407.47" rx="4.65" ry="5"/><ellipse class="cls-2" cx="890.82" cy="275.12" rx="4.65" ry="5"/><ellipse class="cls-2" cx="890.82" cy="293.43" rx="4.65" ry="5"/><ellipse class="cls-2" cx="890.82" cy="314" rx="4.65" ry="5"/><ellipse class="cls-2" cx="890.82" cy="332.31" rx="4.65" ry="5"/><ellipse class="cls-2" cx="890.82" cy="350.62" rx="4.65" ry="5"/><ellipse class="cls-2" cx="890.82" cy="368.93" rx="4.65" ry="5"/><ellipse class="cls-2" cx="890.82" cy="389.5" rx="4.65" ry="5"/><ellipse class="cls-2" cx="890.82" cy="407.81" rx="4.65" ry="5"/><ellipse class="cls-2" cx="905.68" cy="275.49" rx="4.65" ry="5"/><ellipse class="cls-2" cx="905.68" cy="293.8" rx="4.65" ry="5"/><ellipse class="cls-2" cx="905.68" cy="314.37" rx="4.65" ry="5"/><ellipse class="cls-2" cx="905.68" cy="332.68" rx="4.65" ry="5"/><ellipse class="cls-2" cx="905.68" cy="350.99" rx="4.65" ry="5"/><ellipse class="cls-2" cx="905.68" cy="369.3" rx="4.65" ry="5"/><ellipse class="cls-2" cx="905.68" cy="389.87" rx="4.65" ry="5"/><ellipse class="cls-2" cx="905.68" cy="408.18" rx="4.65" ry="5"/><ellipse class="cls-2" cx="920.79" cy="275.83" rx="4.65" ry="5"/><ellipse class="cls-2" cx="920.79" cy="294.14" rx="4.65" ry="5"/><ellipse class="cls-2" cx="920.79" cy="314.71" rx="4.65" ry="5"/><ellipse class="cls-2" cx="920.79" cy="333.02" rx="4.65" ry="5"/><ellipse class="cls-2" cx="920.79" cy="351.33" rx="4.65" ry="5"/><ellipse class="cls-2" cx="920.79" cy="369.64" rx="4.65" ry="5"/><ellipse class="cls-2" cx="920.79" cy="390.22" rx="4.65" ry="5"/><ellipse class="cls-2" cx="920.79" cy="408.53" rx="4.65" ry="5"/><ellipse class="cls-2" cx="936.13" cy="275.83" rx="4.65" ry="5"/><ellipse class="cls-2" cx="936.13" cy="294.14" rx="4.65" ry="5"/><ellipse class="cls-2" cx="936.13" cy="314.71" rx="4.65" ry="5"/><ellipse class="cls-2" cx="936.13" cy="333.02" rx="4.65" ry="5"/><ellipse class="cls-2" cx="936.13" cy="351.33" rx="4.65" ry="5"/><ellipse class="cls-2" cx="936.13" cy="369.64" rx="4.65" ry="5"/><ellipse class="cls-2" cx="936.13" cy="390.22" rx="4.65" ry="5"/><ellipse class="cls-2" cx="936.13" cy="408.53" rx="4.65" ry="5"/><ellipse class="cls-2" cx="951.25" cy="276.18" rx="4.65" ry="5"/><ellipse class="cls-2" cx="951.25" cy="294.49" rx="4.65" ry="5"/><ellipse class="cls-2" cx="951.25" cy="315.06" rx="4.65" ry="5"/><ellipse class="cls-2" cx="951.25" cy="333.37" rx="4.65" ry="5"/><ellipse class="cls-2" cx="951.25" cy="351.68" rx="4.65" ry="5"/><ellipse class="cls-2" cx="951.25" cy="369.99" rx="4.65" ry="5"/><ellipse class="cls-2" cx="951.25" cy="390.56" rx="4.65" ry="5"/><ellipse class="cls-2" cx="951.25" cy="408.87" rx="4.65" ry="5"/><ellipse class="cls-2" cx="966.1" cy="276.55" rx="4.65" ry="5"/><ellipse class="cls-2" cx="966.1" cy="294.86" rx="4.65" ry="5"/><ellipse class="cls-2" cx="966.1" cy="315.43" rx="4.65" ry="5"/><ellipse class="cls-2" cx="966.1" cy="333.74" rx="4.65" ry="5"/><ellipse class="cls-2" cx="966.1" cy="352.05" rx="4.65" ry="5"/><ellipse class="cls-2" cx="966.1" cy="370.36" rx="4.65" ry="5"/><ellipse class="cls-2" cx="966.1" cy="390.93" rx="4.65" ry="5"/><ellipse class="cls-2" cx="966.1" cy="409.24" rx="4.65" ry="5"/><ellipse class="cls-2" cx="981.22" cy="276.89" rx="4.65" ry="5"/><ellipse class="cls-2" cx="981.22" cy="295.2" rx="4.65" ry="5"/><ellipse class="cls-2" cx="981.22" cy="315.77" rx="4.65" ry="5"/><ellipse class="cls-2" cx="981.22" cy="334.08" rx="4.65" ry="5"/><ellipse class="cls-2" cx="981.22" cy="352.39" rx="4.65" ry="5"/><ellipse class="cls-2" cx="981.22" cy="370.7" rx="4.65" ry="5"/><ellipse class="cls-2" cx="981.22" cy="391.27" rx="4.65" ry="5"/><ellipse class="cls-2" cx="981.22" cy="409.58" rx="4.65" ry="5"/><ellipse class="cls-2" cx="213.74" cy="119.96" rx="4.65" ry="5"/><ellipse class="cls-2" cx="213.74" cy="138.27" rx="4.65" ry="5"/><ellipse class="cls-2" cx="213.74" cy="158.84" rx="4.65" ry="5"/><ellipse class="cls-2" cx="213.74" cy="177.15" rx="4.65" ry="5"/><ellipse class="cls-2" cx="213.74" cy="195.47" rx="4.65" ry="5"/><ellipse class="cls-2" cx="213.74" cy="213.78" rx="4.65" ry="5"/><ellipse class="cls-2" cx="213.74" cy="234.35" rx="4.65" ry="5"/><ellipse class="cls-2" cx="213.74" cy="252.66" rx="4.65" ry="5"/><ellipse class="cls-2" cx="228.85" cy="120.31" rx="4.65" ry="5"/><ellipse class="cls-2" cx="228.85" cy="138.62" rx="4.65" ry="5"/><ellipse class="cls-2" cx="228.85" cy="159.19" rx="4.65" ry="5"/><ellipse class="cls-2" cx="228.85" cy="177.5" rx="4.65" ry="5"/><ellipse class="cls-2" cx="228.85" cy="195.81" rx="4.65" ry="5"/><ellipse class="cls-2" cx="228.85" cy="214.12" rx="4.65" ry="5"/><ellipse class="cls-2" cx="228.85" cy="234.69" rx="4.65" ry="5"/><ellipse class="cls-2" cx="228.85" cy="253" rx="4.65" ry="5"/><ellipse class="cls-2" cx="243.71" cy="120.68" rx="4.65" ry="5"/><ellipse class="cls-2" cx="243.71" cy="138.99" rx="4.65" ry="5"/><ellipse class="cls-2" cx="243.71" cy="159.56" rx="4.65" ry="5"/><ellipse class="cls-2" cx="243.71" cy="177.87" rx="4.65" ry="5"/><ellipse class="cls-2" cx="243.71" cy="196.18" rx="4.65" ry="5"/><ellipse class="cls-2" cx="243.71" cy="214.49" rx="4.65" ry="5"/><ellipse class="cls-2" cx="243.71" cy="235.06" rx="4.65" ry="5"/><ellipse class="cls-2" cx="243.71" cy="253.37" rx="4.65" ry="5"/><ellipse class="cls-2" cx="258.83" cy="121.02" rx="4.65" ry="5"/><ellipse class="cls-2" cx="258.83" cy="139.33" rx="4.65" ry="5"/><ellipse class="cls-2" cx="258.83" cy="159.9" rx="4.65" ry="5"/><ellipse class="cls-2" cx="258.83" cy="178.21" rx="4.65" ry="5"/><ellipse class="cls-2" cx="258.83" cy="196.52" rx="4.65" ry="5"/><ellipse class="cls-2" cx="258.83" cy="214.83" rx="4.65" ry="5"/><ellipse class="cls-2" cx="258.83" cy="235.4" rx="4.65" ry="5"/><ellipse class="cls-2" cx="258.83" cy="253.71" rx="4.65" ry="5"/><ellipse class="cls-2" cx="274.16" cy="121.02" rx="4.65" ry="5"/><ellipse class="cls-2" cx="274.16" cy="139.33" rx="4.65" ry="5"/><ellipse class="cls-2" cx="274.16" cy="159.9" rx="4.65" ry="5"/><ellipse class="cls-2" cx="274.16" cy="178.21" rx="4.65" ry="5"/><ellipse class="cls-2" cx="274.16" cy="196.52" rx="4.65" ry="5"/><ellipse class="cls-2" cx="274.16" cy="214.83" rx="4.65" ry="5"/><ellipse class="cls-2" cx="274.16" cy="235.4" rx="4.65" ry="5"/><ellipse class="cls-2" cx="274.16" cy="253.71" rx="4.65" ry="5"/><ellipse class="cls-2" cx="289.28" cy="121.37" rx="4.65" ry="5"/><ellipse class="cls-2" cx="289.28" cy="139.68" rx="4.65" ry="5"/><ellipse class="cls-2" cx="289.28" cy="160.25" rx="4.65" ry="5"/><ellipse class="cls-2" cx="289.28" cy="178.56" rx="4.65" ry="5"/><ellipse class="cls-2" cx="289.28" cy="196.87" rx="4.65" ry="5"/><ellipse class="cls-2" cx="289.28" cy="215.18" rx="4.65" ry="5"/><ellipse class="cls-2" cx="289.28" cy="235.75" rx="4.65" ry="5"/><ellipse class="cls-2" cx="289.28" cy="254.06" rx="4.65" ry="5"/><ellipse class="cls-2" cx="304.14" cy="121.74" rx="4.65" ry="5"/><ellipse class="cls-2" cx="304.14" cy="140.05" rx="4.65" ry="5"/><ellipse class="cls-2" cx="304.14" cy="160.62" rx="4.65" ry="5"/><ellipse class="cls-2" cx="304.14" cy="178.93" rx="4.65" ry="5"/><ellipse class="cls-2" cx="304.14" cy="197.24" rx="4.65" ry="5"/><ellipse class="cls-2" cx="304.14" cy="215.55" rx="4.65" ry="5"/><ellipse class="cls-2" cx="304.14" cy="236.12" rx="4.65" ry="5"/><ellipse class="cls-2" cx="304.14" cy="254.43" rx="4.65" ry="5"/><ellipse class="cls-2" cx="319.25" cy="122.08" rx="4.65" ry="5"/><ellipse class="cls-2" cx="319.25" cy="140.39" rx="4.65" ry="5"/><ellipse class="cls-2" cx="319.25" cy="160.96" rx="4.65" ry="5"/><ellipse class="cls-2" cx="319.25" cy="179.27" rx="4.65" ry="5"/><ellipse class="cls-2" cx="319.25" cy="197.58" rx="4.65" ry="5"/><ellipse class="cls-2" cx="319.25" cy="215.89" rx="4.65" ry="5"/><ellipse class="cls-2" cx="319.25" cy="236.46" rx="4.65" ry="5"/><ellipse class="cls-2" cx="319.25" cy="254.77" rx="4.65" ry="5"/><ellipse class="cls-2" cx="414.78" cy="601.43" rx="4.65" ry="5"/><ellipse class="cls-2" cx="414.78" cy="619.74" rx="4.65" ry="5"/><ellipse class="cls-2" cx="414.78" cy="640.32" rx="4.65" ry="5"/><ellipse class="cls-2" cx="414.78" cy="658.63" rx="4.65" ry="5"/><ellipse class="cls-2" cx="414.78" cy="676.94" rx="4.65" ry="5"/><ellipse class="cls-2" cx="414.78" cy="695.25" rx="4.65" ry="5"/><ellipse class="cls-2" cx="414.78" cy="715.82" rx="4.65" ry="5"/><ellipse class="cls-2" cx="414.78" cy="734.13" rx="4.65" ry="5"/><ellipse class="cls-2" cx="429.9" cy="601.78" rx="4.65" ry="5"/><ellipse class="cls-2" cx="429.9" cy="620.09" rx="4.65" ry="5"/><ellipse class="cls-2" cx="429.9" cy="640.66" rx="4.65" ry="5"/><ellipse class="cls-2" cx="429.9" cy="658.97" rx="4.65" ry="5"/><ellipse class="cls-2" cx="429.9" cy="677.28" rx="4.65" ry="5"/><ellipse class="cls-2" cx="429.9" cy="695.59" rx="4.65" ry="5"/><ellipse class="cls-2" cx="429.9" cy="716.16" rx="4.65" ry="5"/><ellipse class="cls-2" cx="429.9" cy="734.47" rx="4.65" ry="5"/><ellipse class="cls-2" cx="444.75" cy="602.15" rx="4.65" ry="5"/><ellipse class="cls-2" cx="444.75" cy="620.46" rx="4.65" ry="5"/><ellipse class="cls-2" cx="444.75" cy="641.03" rx="4.65" ry="5"/><ellipse class="cls-2" cx="444.75" cy="659.34" rx="4.65" ry="5"/><ellipse class="cls-2" cx="444.75" cy="677.65" rx="4.65" ry="5"/><ellipse class="cls-2" cx="444.75" cy="695.96" rx="4.65" ry="5"/><ellipse class="cls-2" cx="444.75" cy="716.53" rx="4.65" ry="5"/><ellipse class="cls-2" cx="444.75" cy="734.84" rx="4.65" ry="5"/><ellipse class="cls-2" cx="459.87" cy="602.49" rx="4.65" ry="5"/><ellipse class="cls-2" cx="459.87" cy="620.8" rx="4.65" ry="5"/><ellipse class="cls-2" cx="459.87" cy="641.37" rx="4.65" ry="5"/><ellipse class="cls-2" cx="459.87" cy="659.68" rx="4.65" ry="5"/><ellipse class="cls-2" cx="459.87" cy="677.99" rx="4.65" ry="5"/><ellipse class="cls-2" cx="459.87" cy="696.3" rx="4.65" ry="5"/><ellipse class="cls-2" cx="459.87" cy="716.87" rx="4.65" ry="5"/><ellipse class="cls-2" cx="459.87" cy="735.18" rx="4.65" ry="5"/><ellipse class="cls-2" cx="475.21" cy="602.49" rx="4.65" ry="5"/><ellipse class="cls-2" cx="475.21" cy="620.8" rx="4.65" ry="5"/><ellipse class="cls-2" cx="475.21" cy="641.37" rx="4.65" ry="5"/><ellipse class="cls-2" cx="475.21" cy="659.68" rx="4.65" ry="5"/><ellipse class="cls-2" cx="475.21" cy="677.99" rx="4.65" ry="5"/><ellipse class="cls-2" cx="475.21" cy="696.3" rx="4.65" ry="5"/><ellipse class="cls-2" cx="475.21" cy="716.87" rx="4.65" ry="5"/><ellipse class="cls-2" cx="475.21" cy="735.18" rx="4.65" ry="5"/><ellipse class="cls-2" cx="490.32" cy="602.84" rx="4.65" ry="5"/><ellipse class="cls-2" cx="490.32" cy="621.15" rx="4.65" ry="5"/><ellipse class="cls-2" cx="490.32" cy="641.72" rx="4.65" ry="5"/><ellipse class="cls-2" cx="490.32" cy="660.03" rx="4.65" ry="5"/><ellipse class="cls-2" cx="490.32" cy="678.34" rx="4.65" ry="5"/><ellipse class="cls-2" cx="490.32" cy="696.65" rx="4.65" ry="5"/><ellipse class="cls-2" cx="490.32" cy="717.22" rx="4.65" ry="5"/><ellipse class="cls-2" cx="490.32" cy="735.53" rx="4.65" ry="5"/><ellipse class="cls-2" cx="505.18" cy="603.21" rx="4.65" ry="5"/><ellipse class="cls-2" cx="505.18" cy="621.52" rx="4.65" ry="5"/><ellipse class="cls-2" cx="505.18" cy="642.09" rx="4.65" ry="5"/><ellipse class="cls-2" cx="505.18" cy="660.4" rx="4.65" ry="5"/><ellipse class="cls-2" cx="505.18" cy="678.71" rx="4.65" ry="5"/><ellipse class="cls-2" cx="505.18" cy="697.02" rx="4.65" ry="5"/><ellipse class="cls-2" cx="505.18" cy="717.59" rx="4.65" ry="5"/><ellipse class="cls-2" cx="505.18" cy="735.9" rx="4.65" ry="5"/><ellipse class="cls-2" cx="520.29" cy="603.55" rx="4.65" ry="5"/><ellipse class="cls-2" cx="520.29" cy="621.86" rx="4.65" ry="5"/><ellipse class="cls-2" cx="520.29" cy="642.43" rx="4.65" ry="5"/><ellipse class="cls-2" cx="520.29" cy="660.74" rx="4.65" ry="5"/><ellipse class="cls-2" cx="520.29" cy="679.05" rx="4.65" ry="5"/><ellipse class="cls-2" cx="520.29" cy="697.36" rx="4.65" ry="5"/><ellipse class="cls-2" cx="520.29" cy="717.93" rx="4.65" ry="5"/><ellipse class="cls-2" cx="520.29" cy="736.24" rx="4.65" ry="5"/><ellipse class="cls-2" cx="990.01" cy="529.75" rx="4.65" ry="5"/><ellipse class="cls-2" cx="990.01" cy="548.06" rx="4.65" ry="5"/><ellipse class="cls-2" cx="990.01" cy="568.63" rx="4.65" ry="5"/><ellipse class="cls-2" cx="990.01" cy="586.94" rx="4.65" ry="5"/><ellipse class="cls-2" cx="990.01" cy="605.25" rx="4.65" ry="5"/><ellipse class="cls-2" cx="990.01" cy="623.56" rx="4.65" ry="5"/><ellipse class="cls-2" cx="990.01" cy="644.13" rx="4.65" ry="5"/><ellipse class="cls-2" cx="990.01" cy="662.44" rx="4.65" ry="5"/><ellipse class="cls-2" cx="1005.13" cy="530.09" rx="4.65" ry="5"/><ellipse class="cls-2" cx="1005.13" cy="548.4" rx="4.65" ry="5"/><ellipse class="cls-2" cx="1005.13" cy="568.97" rx="4.65" ry="5"/><ellipse class="cls-2" cx="1005.13" cy="587.28" rx="4.65" ry="5"/><ellipse class="cls-2" cx="1005.13" cy="605.59" rx="4.65" ry="5"/><ellipse class="cls-2" cx="1005.13" cy="623.9" rx="4.65" ry="5"/><ellipse class="cls-2" cx="1005.13" cy="644.47" rx="4.65" ry="5"/><ellipse class="cls-2" cx="1005.13" cy="662.78" rx="4.65" ry="5"/><ellipse class="cls-2" cx="1019.99" cy="530.46" rx="4.65" ry="5"/><ellipse class="cls-2" cx="1019.99" cy="548.77" rx="4.65" ry="5"/><ellipse class="cls-2" cx="1019.99" cy="569.34" rx="4.65" ry="5"/><ellipse class="cls-2" cx="1019.99" cy="587.65" rx="4.65" ry="5"/><ellipse class="cls-2" cx="1019.99" cy="605.96" rx="4.65" ry="5"/><ellipse class="cls-2" cx="1019.99" cy="624.27" rx="4.65" ry="5"/><ellipse class="cls-2" cx="1019.99" cy="644.84" rx="4.65" ry="5"/><ellipse class="cls-2" cx="1019.99" cy="663.15" rx="4.65" ry="5"/><ellipse class="cls-2" cx="1035.1" cy="530.81" rx="4.65" ry="5"/><ellipse class="cls-2" cx="1035.1" cy="549.12" rx="4.65" ry="5"/><ellipse class="cls-2" cx="1035.1" cy="569.69" rx="4.65" ry="5"/><ellipse class="cls-2" cx="1035.1" cy="588" rx="4.65" ry="5"/><ellipse class="cls-2" cx="1035.1" cy="606.31" rx="4.65" ry="5"/><ellipse class="cls-2" cx="1035.1" cy="624.62" rx="4.65" ry="5"/><ellipse class="cls-2" cx="1035.1" cy="645.19" rx="4.65" ry="5"/><ellipse class="cls-2" cx="1035.1" cy="663.5" rx="4.65" ry="5"/><ellipse class="cls-2" cx="1050.44" cy="530.81" rx="4.65" ry="5"/><ellipse class="cls-2" cx="1050.44" cy="549.12" rx="4.65" ry="5"/><ellipse class="cls-2" cx="1050.44" cy="569.69" rx="4.65" ry="5"/><ellipse class="cls-2" cx="1050.44" cy="588" rx="4.65" ry="5"/><ellipse class="cls-2" cx="1050.44" cy="606.31" rx="4.65" ry="5"/><ellipse class="cls-2" cx="1050.44" cy="624.62" rx="4.65" ry="5"/><ellipse class="cls-2" cx="1050.44" cy="645.19" rx="4.65" ry="5"/><ellipse class="cls-2" cx="1050.44" cy="663.5" rx="4.65" ry="5"/><ellipse class="cls-2" cx="1065.55" cy="531.15" rx="4.65" ry="5"/><ellipse class="cls-2" cx="1065.55" cy="549.46" rx="4.65" ry="5"/><ellipse class="cls-2" cx="1065.55" cy="570.03" rx="4.65" ry="5"/><ellipse class="cls-2" cx="1065.55" cy="588.34" rx="4.65" ry="5"/><ellipse class="cls-2" cx="1065.55" cy="606.65" rx="4.65" ry="5"/><ellipse class="cls-2" cx="1065.55" cy="624.96" rx="4.65" ry="5"/><ellipse class="cls-2" cx="1065.55" cy="645.53" rx="4.65" ry="5"/><ellipse class="cls-2" cx="1065.55" cy="663.84" rx="4.65" ry="5"/><ellipse class="cls-2" cx="1080.41" cy="531.52" rx="4.65" ry="5"/><ellipse class="cls-2" cx="1080.41" cy="549.83" rx="4.65" ry="5"/><ellipse class="cls-2" cx="1080.41" cy="570.4" rx="4.65" ry="5"/><ellipse class="cls-2" cx="1080.41" cy="588.71" rx="4.65" ry="5"/><ellipse class="cls-2" cx="1080.41" cy="607.02" rx="4.65" ry="5"/><ellipse class="cls-2" cx="1080.41" cy="625.33" rx="4.65" ry="5"/><ellipse class="cls-2" cx="1080.41" cy="645.9" rx="4.65" ry="5"/><ellipse class="cls-2" cx="1080.41" cy="664.21" rx="4.65" ry="5"/><ellipse class="cls-2" cx="1095.53" cy="531.86" rx="4.65" ry="5"/><ellipse class="cls-2" cx="1095.53" cy="550.17" rx="4.65" ry="5"/><ellipse class="cls-2" cx="1095.53" cy="570.74" rx="4.65" ry="5"/><ellipse class="cls-2" cx="1095.53" cy="589.05" rx="4.65" ry="5"/><ellipse class="cls-2" cx="1095.53" cy="607.36" rx="4.65" ry="5"/><ellipse class="cls-2" cx="1095.53" cy="625.67" rx="4.65" ry="5"/><ellipse class="cls-2" cx="1095.53" cy="646.24" rx="4.65" ry="5"/><ellipse class="cls-2" cx="1095.53" cy="664.55" rx="4.65" ry="5"/><path class="cls-2" d="M751.48,659.32A7.78,7.78,0,0,1,744,652l-3-32.49c-.41-4.46,2.61-8.44,6.76-8.88l22.48-2.44-2.28-24.45a8,8,0,0,1,6.75-8.89l23.09-2.5-2.29-24.58a8,8,0,0,1,6.75-8.89l22.49-2.43L822.4,512c-.42-4.46,2.61-8.44,6.75-8.89l30-3.25a7.71,7.71,0,0,1,8.26,7.27c.41,4.46-2.61,8.44-6.75,8.89l-22.53,2.43,2.24,23.94a8.69,8.69,0,0,1-.22,3.65,7.7,7.7,0,0,1-6.45,5.75l-22.53,2.44,2.29,24.41a8.2,8.2,0,0,1-4.82,8.4l-.55.23a7.18,7.18,0,0,1-1.94.49l-22.52,2.44,2.23,23.93a8.52,8.52,0,0,1-.21,3.65,7.71,7.71,0,0,1-6.45,5.76L756.71,626,759,650.39c.41,4.46-2.61,8.44-6.76,8.89C752,659.3,751.73,659.32,751.48,659.32Z" transform="translate(-246.3 -139.64)"/><path class="cls-5" d="M762.4,654.66a7.77,7.77,0,0,1-7.5-7.3l-3-32.49c-.41-4.46,2.61-8.44,6.76-8.89l22.48-2.43-2.28-24.46a8.54,8.54,0,0,1,1.66-6,7.47,7.47,0,0,1,5.09-2.94l23.09-2.5-2.3-24.57c-.41-4.46,2.61-8.44,6.76-8.89l22.48-2.43-2.28-24.46a8,8,0,0,1,6.75-8.89l30-3.25a7.71,7.71,0,0,1,8.27,7.26c.41,4.46-2.61,8.44-6.76,8.89l-22.52,2.44,2.23,23.94a8.48,8.48,0,0,1-.21,3.64,7.7,7.7,0,0,1-6.45,5.76l-22.53,2.44L824.42,574a8.19,8.19,0,0,1-4.83,8.4l-.55.23a7.19,7.19,0,0,1-1.93.48l-22.53,2.44,2.24,23.94a8.69,8.69,0,0,1-.21,3.65,7.69,7.69,0,0,1-6.45,5.75l-22.53,2.44,2.28,24.41a8,8,0,0,1-6.75,8.89A6.45,6.45,0,0,1,762.4,654.66Z" transform="translate(-246.3 -139.64)"/><path class="cls-2" d="M711.14,611.84a7.77,7.77,0,0,1-7.5-7.3l-3-32.49c-.41-4.46,2.61-8.44,6.75-8.89l22.49-2.43-2.28-24.46a8,8,0,0,1,6.75-8.89l23.09-2.5-2.3-24.58c-.41-4.46,2.61-8.44,6.76-8.88L784.34,489l-2.28-24.46a8,8,0,0,1,6.75-8.88l30-3.25a7.71,7.71,0,0,1,8.27,7.26c.41,4.46-2.61,8.44-6.76,8.89L797.83,471l2.23,23.93a8.52,8.52,0,0,1-.21,3.65,7.71,7.71,0,0,1-6.45,5.76l-22.53,2.43,2.29,24.42a8.18,8.18,0,0,1-4.82,8.39l-.55.23a7,7,0,0,1-1.94.49l-22.53,2.44,2.24,23.94a8.64,8.64,0,0,1-.21,3.64,7.7,7.7,0,0,1-6.45,5.76l-22.53,2.44,2.28,24.41a8,8,0,0,1-6.75,8.89A6.45,6.45,0,0,1,711.14,611.84Z" transform="translate(-246.3 -139.64)"/><path class="cls-5" d="M722.06,607.19a7.78,7.78,0,0,1-7.5-7.31l-3-32.49c-.42-4.46,2.61-8.44,6.75-8.88l22.49-2.44-2.29-24.46a8.5,8.5,0,0,1,1.67-5.94,7.37,7.37,0,0,1,5.09-2.94l23.09-2.5L766,495.65c-.41-4.46,2.61-8.44,6.76-8.89l22.48-2.43L793,459.87a8,8,0,0,1,6.75-8.89l30-3.25A7.71,7.71,0,0,1,838,455c.42,4.46-2.6,8.44-6.75,8.88l-22.53,2.44L811,490.26a8.69,8.69,0,0,1-.21,3.65,7.7,7.7,0,0,1-6.45,5.75l-22.53,2.44,2.28,24.41a8.19,8.19,0,0,1-4.83,8.41l-.55.22a7,7,0,0,1-1.92.49l-22.53,2.43L756.48,562a8.68,8.68,0,0,1-.21,3.65,7.71,7.71,0,0,1-6.45,5.76l-22.53,2.44,2.28,24.41c.42,4.46-2.6,8.44-6.75,8.88A6.61,6.61,0,0,1,722.06,607.19Z" transform="translate(-246.3 -139.64)"/><path class="cls-2" d="M312.21,790.63a7.78,7.78,0,0,1-7.5-7.31l-3-32.49c-.42-4.46,2.61-8.44,6.75-8.88l22.49-2.44-2.29-24.46a8,8,0,0,1,6.76-8.88l23.09-2.5-2.3-24.58c-.41-4.46,2.61-8.44,6.75-8.89l22.49-2.43-2.28-24.46a8,8,0,0,1,6.75-8.89l30-3.25a7.7,7.7,0,0,1,8.26,7.27c.42,4.46-2.6,8.44-6.75,8.88l-22.53,2.44,2.24,23.94a8.7,8.7,0,0,1-.21,3.65,7.7,7.7,0,0,1-6.45,5.75l-22.53,2.44L374.22,710a8.19,8.19,0,0,1-4.82,8.4l-.55.23a7.21,7.21,0,0,1-1.93.49l-22.53,2.44,2.24,23.93a8.86,8.86,0,0,1-.21,3.65,7.72,7.72,0,0,1-6.45,5.76l-22.53,2.43,2.28,24.42a8,8,0,0,1-6.75,8.89C312.71,790.61,312.46,790.63,312.21,790.63Z" transform="translate(-246.3 -139.64)"/><path class="cls-4" d="M323.12,786a7.77,7.77,0,0,1-7.49-7.3l-3-32.49c-.42-4.46,2.61-8.44,6.75-8.89l22.49-2.43-2.29-24.46a8.54,8.54,0,0,1,1.67-5.95,7.43,7.43,0,0,1,5.08-2.94l23.1-2.5-2.3-24.57c-.42-4.46,2.61-8.44,6.75-8.89l22.49-2.44L394,638.66c-.41-4.46,2.61-8.44,6.76-8.89l30-3.25a7.69,7.69,0,0,1,8.26,7.26,8,8,0,0,1-6.75,8.89l-22.53,2.44,2.24,23.94a8.64,8.64,0,0,1-.21,3.64,7.7,7.7,0,0,1-6.45,5.76l-22.53,2.44,2.28,24.41a8.19,8.19,0,0,1-4.83,8.4l-.55.23a7.12,7.12,0,0,1-1.92.48l-22.53,2.44,2.24,23.94a8.7,8.7,0,0,1-.22,3.65,7.68,7.68,0,0,1-6.44,5.75l-22.53,2.44L330.64,777c.42,4.46-2.61,8.44-6.75,8.89A6.62,6.62,0,0,1,323.12,786Z" transform="translate(-246.3 -139.64)"/><path class="cls-2" d="M271.86,743.15a7.77,7.77,0,0,1-7.49-7.3l-3-32.49c-.42-4.46,2.61-8.44,6.75-8.89L290.57,692l-2.29-24.46c-.41-4.46,2.61-8.44,6.75-8.89l23.1-2.5-2.3-24.58c-.42-4.46,2.61-8.44,6.75-8.89l22.49-2.43-2.29-24.46a8,8,0,0,1,6.76-8.88l30-3.25a7.7,7.7,0,0,1,8.26,7.26,8,8,0,0,1-6.75,8.89l-22.53,2.43,2.24,23.94a8.86,8.86,0,0,1-.21,3.65,7.72,7.72,0,0,1-6.45,5.76l-22.53,2.43,2.28,24.42a8.17,8.17,0,0,1-4.82,8.39l-.55.23a7.21,7.21,0,0,1-1.93.49L304.05,674,306.29,698a8.65,8.65,0,0,1-.22,3.64,7.69,7.69,0,0,1-6.44,5.76l-22.53,2.44,2.28,24.41c.42,4.46-2.61,8.44-6.75,8.89A6.62,6.62,0,0,1,271.86,743.15Z" transform="translate(-246.3 -139.64)"/><path class="cls-4" d="M282.78,738.5a7.78,7.78,0,0,1-7.49-7.31l-3-32.49c-.42-4.46,2.61-8.44,6.75-8.88l22.49-2.44-2.29-24.46a8.54,8.54,0,0,1,1.67-5.95A7.38,7.38,0,0,1,306,654l23.1-2.5L326.75,627c-.42-4.46,2.61-8.44,6.75-8.89L356,615.64l-2.29-24.46c-.41-4.46,2.61-8.44,6.75-8.89l30-3.25a7.71,7.71,0,0,1,8.26,7.27c.42,4.46-2.6,8.44-6.75,8.88l-22.53,2.44,2.24,23.94a8.7,8.7,0,0,1-.22,3.65,7.69,7.69,0,0,1-6.44,5.75l-22.53,2.44,2.28,24.41a8.18,8.18,0,0,1-4.83,8.4l-.55.23a7.14,7.14,0,0,1-1.92.49L315,669.37l2.24,23.94A8.69,8.69,0,0,1,317,697a7.71,7.71,0,0,1-6.44,5.76L288,705.15l2.28,24.42c.42,4.46-2.61,8.44-6.75,8.88A6.64,6.64,0,0,1,282.78,738.5Z" transform="translate(-246.3 -139.64)"/><path class="cls-2" d="M974.07,986.69a7.77,7.77,0,0,1-7.5-7.3l-3-32.49c-.42-4.46,2.61-8.44,6.75-8.89l22.49-2.43-2.29-24.46c-.41-4.46,2.61-8.44,6.75-8.89l23.1-2.5-2.3-24.58c-.42-4.46,2.61-8.44,6.75-8.89l22.49-2.43L1045,839.37a8,8,0,0,1,6.76-8.88l30-3.25a7.7,7.7,0,0,1,8.26,7.26,8,8,0,0,1-6.75,8.89l-22.53,2.43,2.24,23.94a8.69,8.69,0,0,1-.21,3.65,7.71,7.71,0,0,1-6.45,5.76l-22.53,2.43,2.28,24.42a8.17,8.17,0,0,1-4.82,8.39l-.55.23a7.21,7.21,0,0,1-1.93.49l-22.53,2.44,2.24,23.94a8.65,8.65,0,0,1-.22,3.64,7.69,7.69,0,0,1-6.44,5.76l-22.53,2.44,2.28,24.41c.42,4.46-2.61,8.44-6.75,8.89A6.56,6.56,0,0,1,974.07,986.69Z" transform="translate(-246.3 -139.64)"/><path class="cls-6" d="M985,982a7.78,7.78,0,0,1-7.49-7.31l-3-32.49c-.42-4.46,2.61-8.44,6.75-8.88l22.49-2.44-2.29-24.46a8.54,8.54,0,0,1,1.67-6,7.38,7.38,0,0,1,5.08-2.93l23.1-2.5L1029,870.5c-.42-4.46,2.61-8.44,6.75-8.89l22.49-2.43-2.29-24.46c-.41-4.46,2.61-8.44,6.75-8.89l30-3.25a7.71,7.71,0,0,1,8.26,7.27c.42,4.46-2.6,8.44-6.75,8.88l-22.53,2.44,2.24,23.94a8.7,8.7,0,0,1-.22,3.65,7.69,7.69,0,0,1-6.44,5.75L1044.72,877l2.28,24.41a8.18,8.18,0,0,1-4.83,8.4l-.55.23a7.14,7.14,0,0,1-1.92.49l-22.53,2.43,2.24,23.94a8.69,8.69,0,0,1-.22,3.65,7.71,7.71,0,0,1-6.44,5.76l-22.53,2.43,2.28,24.42c.42,4.46-2.61,8.44-6.75,8.88A6.64,6.64,0,0,1,985,982Z" transform="translate(-246.3 -139.64)"/><path class="cls-2" d="M933.72,939.21a7.77,7.77,0,0,1-7.49-7.3l-3-32.49c-.42-4.46,2.61-8.44,6.75-8.89l22.49-2.43-2.29-24.46c-.42-4.46,2.61-8.44,6.75-8.89l23.1-2.5-2.3-24.57c-.42-4.46,2.61-8.44,6.75-8.89l22.49-2.44-2.29-24.45c-.41-4.46,2.61-8.44,6.75-8.89l30-3.25a7.7,7.7,0,0,1,8.26,7.26,8,8,0,0,1-6.75,8.89l-22.53,2.44,2.24,23.94a8.65,8.65,0,0,1-.22,3.64,7.69,7.69,0,0,1-6.44,5.76l-22.53,2.44,2.28,24.41a8.19,8.19,0,0,1-4.82,8.4l-.55.22a6.85,6.85,0,0,1-1.93.49l-22.53,2.44L968.15,894a8.7,8.7,0,0,1-.22,3.65,7.69,7.69,0,0,1-6.44,5.75L939,905.87l2.28,24.42a8,8,0,0,1-6.75,8.88A6.62,6.62,0,0,1,933.72,939.21Z" transform="translate(-246.3 -139.64)"/><path class="cls-6" d="M944.64,934.56a7.77,7.77,0,0,1-7.49-7.31l-3-32.48a8,8,0,0,1,6.75-8.89l22.49-2.43L961.06,859a8.57,8.57,0,0,1,1.66-6,7.39,7.39,0,0,1,5.09-2.94l23.1-2.5L988.61,823c-.42-4.46,2.61-8.44,6.75-8.89l22.49-2.43-2.29-24.46c-.42-4.46,2.61-8.44,6.75-8.88l30-3.25a7.7,7.7,0,0,1,8.26,7.26c.42,4.46-2.61,8.44-6.75,8.89l-22.53,2.43,2.24,23.94a8.69,8.69,0,0,1-.22,3.65,7.71,7.71,0,0,1-6.44,5.76l-22.53,2.43,2.28,24.42a8.19,8.19,0,0,1-4.83,8.4l-.55.22a6.78,6.78,0,0,1-1.92.49l-22.53,2.44,2.24,23.93a8.68,8.68,0,0,1-.22,3.65,7.7,7.7,0,0,1-6.44,5.76l-22.53,2.44,2.28,24.41c.42,4.46-2.61,8.44-6.75,8.89C945.15,934.54,944.9,934.56,944.64,934.56Z" transform="translate(-246.3 -139.64)"/><path class="cls-2" d="M1020.07,425.6a7.78,7.78,0,0,1-7.5-7.31l-3-32.49c-.41-4.46,2.61-8.44,6.76-8.89l22.48-2.43L1036.49,350c-.42-4.46,2.6-8.44,6.75-8.88l23.09-2.5L1064,314.06a8,8,0,0,1,6.75-8.89l22.49-2.43L1091,278.28a8,8,0,0,1,6.75-8.89l30-3.25a7.71,7.71,0,0,1,8.26,7.27c.41,4.46-2.61,8.43-6.75,8.88l-22.53,2.44,2.23,23.94a8.48,8.48,0,0,1-.21,3.64,7.7,7.7,0,0,1-6.45,5.76l-22.53,2.44,2.29,24.41a8.2,8.2,0,0,1-4.82,8.4l-.55.23a7.18,7.18,0,0,1-1.94.49l-22.52,2.43,2.23,23.94a8.53,8.53,0,0,1-.21,3.65,7.69,7.69,0,0,1-6.45,5.75l-22.53,2.44,2.29,24.42c.41,4.46-2.61,8.44-6.76,8.88A6.47,6.47,0,0,1,1020.07,425.6Z" transform="translate(-246.3 -139.64)"/><path class="cls-3" d="M1031,420.94a7.77,7.77,0,0,1-7.5-7.3l-3-32.49c-.41-4.46,2.61-8.44,6.75-8.89l22.49-2.43-2.29-24.46a8.59,8.59,0,0,1,1.67-5.95,7.43,7.43,0,0,1,5.09-2.94l23.09-2.5L1075,309.4a8,8,0,0,1,6.76-8.88l22.48-2.44-2.28-24.45a8,8,0,0,1,6.75-8.89l30-3.25a7.71,7.71,0,0,1,8.27,7.26c.41,4.46-2.61,8.44-6.76,8.89l-22.52,2.44,2.23,23.94a8.48,8.48,0,0,1-.21,3.64,7.71,7.71,0,0,1-6.45,5.76l-22.53,2.44,2.29,24.41a8.19,8.19,0,0,1-4.83,8.4l-.55.22a6.85,6.85,0,0,1-1.93.49l-22.53,2.44,2.24,23.94a8.64,8.64,0,0,1-.21,3.64,7.7,7.7,0,0,1-6.45,5.76l-22.53,2.44L1038.5,412a8,8,0,0,1-6.75,8.89A6.45,6.45,0,0,1,1031,420.94Z" transform="translate(-246.3 -139.64)"/><path class="cls-2" d="M979.73,378.12a7.77,7.77,0,0,1-7.5-7.3l-3-32.49c-.41-4.47,2.61-8.44,6.75-8.89L998.43,327l-2.28-24.45a8,8,0,0,1,6.75-8.89l23.09-2.5-2.3-24.58c-.41-4.46,2.61-8.44,6.76-8.89l22.48-2.43-2.28-24.46a8,8,0,0,1,6.75-8.89l30-3.24a7.71,7.71,0,0,1,8.27,7.26c.41,4.46-2.61,8.44-6.76,8.89l-22.52,2.43,2.23,23.94a8.53,8.53,0,0,1-.21,3.65,7.71,7.71,0,0,1-6.45,5.76L1039.46,273l2.29,24.42a8.18,8.18,0,0,1-4.82,8.39l-.56.23a7.21,7.21,0,0,1-1.93.49L1011.91,309l2.24,23.94a8.64,8.64,0,0,1-.21,3.64,7.7,7.7,0,0,1-6.45,5.76L985,344.78l2.28,24.41a8,8,0,0,1-6.75,8.89A6.45,6.45,0,0,1,979.73,378.12Z" transform="translate(-246.3 -139.64)"/><path class="cls-3" d="M990.65,373.46a7.77,7.77,0,0,1-7.5-7.3l-3-32.49c-.42-4.46,2.61-8.44,6.75-8.89l22.49-2.43-2.29-24.46a8.54,8.54,0,0,1,1.67-5.95,7.45,7.45,0,0,1,5.09-2.94l23.09-2.49-2.3-24.58c-.41-4.46,2.61-8.44,6.75-8.89l22.49-2.43-2.28-24.46a8,8,0,0,1,6.75-8.89l30-3.25a7.71,7.71,0,0,1,8.26,7.26,8,8,0,0,1-6.75,8.89l-22.53,2.44,2.24,23.94a8.64,8.64,0,0,1-.21,3.64,7.7,7.7,0,0,1-6.45,5.76l-22.53,2.44,2.28,24.41a8.17,8.17,0,0,1-4.83,8.4l-.55.23a7.42,7.42,0,0,1-1.92.49l-22.53,2.43,2.24,23.94a8.69,8.69,0,0,1-.21,3.65,7.69,7.69,0,0,1-6.45,5.75l-22.53,2.44,2.28,24.42a8,8,0,0,1-6.75,8.88A6.56,6.56,0,0,1,990.65,373.46Z" transform="translate(-246.3 -139.64)"/><rect class="cls-7" x="31.18" y="225.81" width="131.42" height="141.37"/><polygon class="cls-7" points="810.79 407.64 731.33 555.71 890.26 555.71 810.79 407.64"/><polygon class="cls-7" points="319.98 401.01 240.52 549.08 399.45 549.08 319.98 401.01"/><polygon class="cls-7" points="979.5 665.01 900.03 813.08 1058.96 813.08 979.5 665.01"/><ellipse class="cls-7" cx="230.75" cy="762.38" rx="66.93" ry="72"/><path class="cls-3" d="M665.73,456.5c-18.65,0-33.82-16.32-33.82-36.37s15.17-36.38,33.82-36.38,33.81,16.32,33.81,36.38S684.37,456.5,665.73,456.5Zm0-62c-13.14,0-23.82,11.5-23.82,25.63s10.68,25.62,23.82,25.62,23.81-11.5,23.81-25.62S678.86,394.5,665.73,394.5Z" transform="translate(-246.3 -139.64)"/><path class="cls-5" d="M891.38,801.81c-18.65,0-33.81-16.31-33.81-36.37s15.16-36.38,33.81-36.38,33.81,16.32,33.81,36.38S910,801.81,891.38,801.81Zm0-62c-13.13,0-23.82,11.49-23.82,25.62s10.69,25.62,23.82,25.62,23.82-11.49,23.82-25.62S904.51,739.82,891.38,739.82Z" transform="translate(-246.3 -139.64)"/><ellipse class="cls-2" cx="711.03" cy="316.61" rx="15.26" ry="16.41"/><ellipse class="cls-2" cx="205.31" cy="624.01" rx="12.48" ry="13.42"/><ellipse class="cls-2" cx="207.25" cy="323.57" rx="14.42" ry="15.51"/><ellipse class="cls-2" cx="925.37" cy="611.94" rx="9.22" ry="9.92"/></g></svg>