<svg id="Layer_1" data-name="Layer 1" xmlns="http://www.w3.org/2000/svg" xmlns:xlink="http://www.w3.org/1999/xlink" viewBox="0 0 723 535.31"><defs><style>.cls-1{fill:url(#linear-gradient);}.cls-2{fill:url(#linear-gradient-2);}.cls-3{fill:url(#linear-gradient-3);}.cls-4{fill:url(#linear-gradient-4);}.cls-5{fill:url(#linear-gradient-5);}.cls-6{fill:url(#linear-gradient-6);}.cls-7{fill:url(#linear-gradient-7);}.cls-8{fill:url(#linear-gradient-8);}.cls-9{fill:url(#linear-gradient-9);}.cls-10{fill:#fff;}.cls-11{fill:url(#linear-gradient-10);}.cls-12{fill:url(#linear-gradient-11);}.cls-13{fill:url(#linear-gradient-12);}.cls-14{fill:url(#linear-gradient-13);}.cls-15{fill:url(#linear-gradient-14);}.cls-16{fill:url(#linear-gradient-15);}.cls-17{fill:url(#linear-gradient-16);}.cls-18{fill:url(#linear-gradient-17);}.cls-19{fill:url(#linear-gradient-18);}.cls-20{fill:url(#linear-gradient-19);}.cls-21{fill:url(#linear-gradient-20);}.cls-22{fill:url(#linear-gradient-21);}.cls-23{fill:url(#linear-gradient-22);}.cls-24{fill:url(#linear-gradient-23);}.cls-25{fill:url(#linear-gradient-24);}.cls-26{fill:url(#linear-gradient-25);}.cls-27{fill:url(#linear-gradient-26);}.cls-28{fill:url(#linear-gradient-27);}.cls-29{fill:url(#linear-gradient-28);}.cls-30{fill:url(#linear-gradient-29);}.cls-31{fill:url(#linear-gradient-30);}.cls-32{fill:url(#linear-gradient-31);}.cls-33{fill:url(#linear-gradient-32);}.cls-34{fill:url(#linear-gradient-33);}.cls-35{fill:url(#linear-gradient-34);}.cls-36{fill:url(#linear-gradient-35);}.cls-37{fill:url(#linear-gradient-36);}.cls-38{fill:url(#linear-gradient-37);}.cls-39{fill:url(#linear-gradient-38);}.cls-40{fill:url(#linear-gradient-39);}.cls-41{fill:url(#linear-gradient-40);}.cls-42{fill:url(#linear-gradient-41);}.cls-43{fill:url(#linear-gradient-42);}.cls-44{fill:url(#linear-gradient-43);}.cls-45{fill:url(#linear-gradient-44);}.cls-46{fill:url(#linear-gradient-45);}.cls-47{fill:#d2d2d2;}.cls-48{fill:#f8f8f8;}.cls-49{fill:url(#linear-gradient-46);}.cls-50{fill:url(#linear-gradient-47);}.cls-51{fill:url(#linear-gradient-48);}.cls-52{fill:url(#linear-gradient-49);}.cls-53{fill:url(#linear-gradient-50);}.cls-54{fill:url(#linear-gradient-51);}.cls-55{fill:url(#linear-gradient-52);}.cls-56{fill:url(#linear-gradient-53);}.cls-57{fill:url(#linear-gradient-54);}.cls-58{fill:url(#linear-gradient-55);}.cls-59{fill:url(#linear-gradient-56);}.cls-60{fill:url(#linear-gradient-57);}.cls-61{fill:url(#linear-gradient-58);}.cls-62{fill:url(#linear-gradient-59);}.cls-63{fill:#16161c;}.cls-64{fill:url(#linear-gradient-60);}.cls-65{fill:url(#linear-gradient-61);}.cls-66{fill:url(#linear-gradient-62);}.cls-67{fill:url(#linear-gradient-63);}.cls-68{fill:url(#linear-gradient-64);}.cls-69{fill:url(#linear-gradient-65);}.cls-70{fill:url(#linear-gradient-66);}.cls-71{fill:url(#linear-gradient-67);}.cls-72{fill:url(#linear-gradient-68);}.cls-73{fill:url(#linear-gradient-69);}.cls-74{fill:url(#linear-gradient-70);}.cls-75{fill:url(#linear-gradient-71);}.cls-76{fill:url(#linear-gradient-72);}.cls-77{fill:url(#linear-gradient-73);}.cls-78{fill:url(#linear-gradient-74);}.cls-79{fill:url(#linear-gradient-75);}.cls-80{fill:url(#linear-gradient-76);}.cls-81{fill:url(#linear-gradient-77);}.cls-82{fill:url(#linear-gradient-78);}.cls-83{fill:url(#linear-gradient-79);}.cls-84{fill:url(#linear-gradient-80);}.cls-85{fill:url(#linear-gradient-81);}.cls-86{fill:url(#linear-gradient-82);}.cls-87{fill:url(#linear-gradient-83);}.cls-88{fill:url(#linear-gradient-84);}.cls-89{fill:url(#linear-gradient-85);}.cls-90{fill:url(#linear-gradient-86);}</style><linearGradient id="linear-gradient" x1="829.98" y1="423.61" x2="917.46" y2="423.61" gradientUnits="userSpaceOnUse"><stop offset="0" stop-color="#bbcee6"/><stop offset="1" stop-color="#d0e5f8"/></linearGradient><linearGradient id="linear-gradient-2" x1="554.78" y1="850.51" x2="661.84" y2="850.51" xlink:href="#linear-gradient"/><linearGradient id="linear-gradient-3" x1="504.09" y1="867.21" x2="504.09" y2="782.81" gradientUnits="userSpaceOnUse"><stop offset="0" stop-color="#0396cd"/><stop offset="1" stop-color="#8abeef"/></linearGradient><linearGradient id="linear-gradient-4" x1="565.09" y1="791.82" x2="565.09" y2="747.81" gradientUnits="userSpaceOnUse"><stop offset="0" stop-color="#0063b1"/><stop offset="1" stop-color="#013d8b"/></linearGradient><linearGradient id="linear-gradient-5" x1="378.02" y1="405.06" x2="378.02" y2="172.95" gradientUnits="userSpaceOnUse"><stop offset="0" stop-color="#223141"/><stop offset="1" stop-color="#42455c"/></linearGradient><linearGradient id="linear-gradient-6" x1="378.02" y1="399.86" x2="378.02" y2="448.62" xlink:href="#linear-gradient"/><linearGradient id="linear-gradient-7" x1="378.02" y1="466.76" x2="378.02" y2="449.62" xlink:href="#linear-gradient-5"/><linearGradient id="linear-gradient-8" x1="837.02" y1="592.04" x2="837.02" y2="789.94" gradientTransform="translate(138.01 1536.02) rotate(-90)" xlink:href="#linear-gradient"/><linearGradient id="linear-gradient-9" x1="615.85" y1="692.44" x2="991.04" y2="692.44" xlink:href="#linear-gradient-5"/><linearGradient id="linear-gradient-10" x1="169" y1="203.92" x2="178.01" y2="203.92" gradientUnits="userSpaceOnUse"><stop offset="0" stop-color="#f17817"/><stop offset="1" stop-color="#f13d15"/></linearGradient><linearGradient id="linear-gradient-11" x1="196.25" y1="208.14" x2="196.25" y2="199.7" gradientUnits="userSpaceOnUse"><stop offset="0" stop-color="#f58a0a"/><stop offset="1" stop-color="#f4cf0a"/></linearGradient><linearGradient id="linear-gradient-12" x1="218.99" y1="208.14" x2="218.99" y2="199.7" xlink:href="#linear-gradient-3"/><linearGradient id="linear-gradient-13" x1="266.9" y1="237.53" x2="512.06" y2="237.53" xlink:href="#linear-gradient-11"/><linearGradient id="linear-gradient-14" x1="339.7" y1="374.44" x2="339.7" y2="269.61" xlink:href="#linear-gradient"/><linearGradient id="linear-gradient-15" x1="949.29" y1="691.02" x2="949.29" y2="789" xlink:href="#linear-gradient-5"/><linearGradient id="linear-gradient-16" x1="396.49" y1="277.72" x2="405.5" y2="277.72" xlink:href="#linear-gradient-10"/><linearGradient id="linear-gradient-17" x1="423.74" y1="281.94" x2="423.74" y2="273.5" xlink:href="#linear-gradient-11"/><linearGradient id="linear-gradient-18" x1="446.48" y1="281.94" x2="446.48" y2="273.5" xlink:href="#linear-gradient-3"/><linearGradient id="linear-gradient-19" x1="466.81" y1="736.32" x2="551.62" y2="651.51" xlink:href="#linear-gradient"/><linearGradient id="linear-gradient-20" x1="1032.87" y1="623.95" x2="1032.87" y2="516.73" xlink:href="#linear-gradient-11"/><linearGradient id="linear-gradient-21" x1="1032.87" y1="665.8" x2="1032.87" y2="633.23" xlink:href="#linear-gradient-5"/><linearGradient id="linear-gradient-22" x1="1032.87" y1="665.8" x2="1032.87" y2="633.23" xlink:href="#linear-gradient-5"/><linearGradient id="linear-gradient-23" x1="493.31" y1="493.6" x2="517.64" y2="493.6" xlink:href="#linear-gradient-3"/><linearGradient id="linear-gradient-24" x1="478.48" y1="429.83" x2="498.24" y2="429.83" xlink:href="#linear-gradient-3"/><linearGradient id="linear-gradient-25" x1="498.59" y1="510.82" x2="599.62" y2="510.82" xlink:href="#linear-gradient-3"/><linearGradient id="linear-gradient-26" x1="490.29" y1="463.3" x2="618.48" y2="463.3" xlink:href="#linear-gradient"/><linearGradient id="linear-gradient-27" x1="932.31" y1="831.28" x2="945.71" y2="831.28" xlink:href="#linear-gradient-5"/><linearGradient id="linear-gradient-28" x1="943.73" y1="920.82" x2="970.75" y2="920.82" xlink:href="#linear-gradient-5"/><linearGradient id="linear-gradient-29" x1="952.24" y1="920.82" x2="962.24" y2="920.82" xlink:href="#linear-gradient"/><linearGradient id="linear-gradient-30" x1="1045.58" y1="920.82" x2="1072.6" y2="920.82" xlink:href="#linear-gradient-5"/><linearGradient id="linear-gradient-31" x1="1054.09" y1="920.82" x2="1064.09" y2="920.82" xlink:href="#linear-gradient"/><linearGradient id="linear-gradient-32" x1="505.47" y1="448.66" x2="603.3" y2="448.66" xlink:href="#linear-gradient-3"/><linearGradient id="linear-gradient-33" x1="966.46" y1="872.67" x2="1060.31" y2="872.67" xlink:href="#linear-gradient-3"/><linearGradient id="linear-gradient-34" x1="969.52" y1="886.67" x2="1057.25" y2="886.67" xlink:href="#linear-gradient-3"/><linearGradient id="linear-gradient-35" x1="659.88" y1="376.71" x2="659.88" y2="258.56" xlink:href="#linear-gradient-3"/><linearGradient id="linear-gradient-36" x1="1100.03" y1="782.43" x2="1100.03" y2="670.24" gradientUnits="userSpaceOnUse"><stop offset="0.02" stop-color="#2a8b1f"/><stop offset="1" stop-color="#5bad35"/></linearGradient><linearGradient id="linear-gradient-37" x1="1160.29" y1="750.58" x2="1160.29" y2="674.89" xlink:href="#linear-gradient-36"/><linearGradient id="linear-gradient-38" x1="816.38" y1="516.32" x2="816.38" y2="435.3" xlink:href="#linear-gradient-10"/><linearGradient id="linear-gradient-39" x1="816.38" y1="512.97" x2="816.38" y2="410" xlink:href="#linear-gradient-11"/><linearGradient id="linear-gradient-40" x1="340.36" y1="134.94" x2="374.4" y2="134.94" xlink:href="#linear-gradient-5"/><linearGradient id="linear-gradient-41" x1="357.38" y1="147.55" x2="357.38" y2="124.31" xlink:href="#linear-gradient-11"/><linearGradient id="linear-gradient-42" x1="796.38" y1="528.24" x2="836.38" y2="528.24" xlink:href="#linear-gradient-10"/><linearGradient id="linear-gradient-43" x1="343.71" y1="101.71" x2="343.71" y2="127.43" xlink:href="#linear-gradient-5"/><linearGradient id="linear-gradient-44" x1="830.05" y1="511.71" x2="830.05" y2="537.43" gradientTransform="translate(1660.11 1038.38) rotate(-180)" xlink:href="#linear-gradient-5"/><linearGradient id="linear-gradient-45" x1="357.38" y1="101.71" x2="357.38" y2="127.43" xlink:href="#linear-gradient-5"/><linearGradient id="linear-gradient-46" x1="178.98" y1="470.33" x2="249.99" y2="470.33" xlink:href="#linear-gradient-10"/><linearGradient id="linear-gradient-47" x1="158.69" y1="509.88" x2="270.28" y2="509.88" xlink:href="#linear-gradient-10"/><linearGradient id="linear-gradient-48" x1="1002.22" y1="491.78" x2="1089.7" y2="491.78" xlink:href="#linear-gradient"/><linearGradient id="linear-gradient-49" x1="637.01" y1="528.76" x2="769.64" y2="528.76" xlink:href="#linear-gradient"/><linearGradient id="linear-gradient-50" x1="624.38" y1="486.97" x2="695.39" y2="486.97" xlink:href="#linear-gradient-10"/><linearGradient id="linear-gradient-51" x1="604.09" y1="526.52" x2="715.68" y2="526.52" xlink:href="#linear-gradient-10"/><linearGradient id="linear-gradient-52" x1="430.39" y1="119.02" x2="430.39" y2="150.09" xlink:href="#linear-gradient-3"/><linearGradient id="linear-gradient-53" x1="920.73" y1="564.52" x2="920.73" y2="511.11" xlink:href="#linear-gradient-3"/><linearGradient id="linear-gradient-54" x1="911.31" y1="511.34" x2="911.31" y2="504.63" gradientUnits="userSpaceOnUse"><stop offset="0" stop-color="#f5a264"/><stop offset="0.3" stop-color="#f5b372"/><stop offset="0.64" stop-color="#f5be7c"/><stop offset="1" stop-color="#f5c27f"/></linearGradient><linearGradient id="linear-gradient-55" x1="902.21" y1="618.99" x2="902.21" y2="581.28" xlink:href="#linear-gradient-4"/><linearGradient id="linear-gradient-56" x1="865.22" y1="560.7" x2="919.1" y2="560.7" xlink:href="#linear-gradient-10"/><linearGradient id="linear-gradient-57" x1="418.57" y1="176.73" x2="408.2" y2="166.36" xlink:href="#linear-gradient-5"/><linearGradient id="linear-gradient-58" x1="842.05" y1="627" x2="869.34" y2="627" xlink:href="#linear-gradient-5"/><linearGradient id="linear-gradient-59" x1="911.24" y1="507.71" x2="911.24" y2="477.75" xlink:href="#linear-gradient-54"/><linearGradient id="linear-gradient-60" x1="907.94" y1="495.12" x2="907.94" y2="476.82" xlink:href="#linear-gradient-11"/><linearGradient id="linear-gradient-61" x1="912.32" y1="619.48" x2="912.32" y2="543.55" xlink:href="#linear-gradient-4"/><linearGradient id="linear-gradient-62" x1="884.58" y1="630.23" x2="911.64" y2="630.23" xlink:href="#linear-gradient-5"/><linearGradient id="linear-gradient-63" x1="917.88" y1="545.56" x2="917.88" y2="517.7" xlink:href="#linear-gradient-3"/><linearGradient id="linear-gradient-64" x1="894.65" y1="565.44" x2="894.65" y2="556.15" xlink:href="#linear-gradient-54"/><linearGradient id="linear-gradient-65" x1="621.08" y1="773.06" x2="621.08" y2="764.91" xlink:href="#linear-gradient-5"/><linearGradient id="linear-gradient-66" x1="648.22" y1="773.06" x2="648.22" y2="764.91" xlink:href="#linear-gradient-5"/><linearGradient id="linear-gradient-67" x1="626.66" y1="768.6" x2="626.66" y2="706.09" xlink:href="#linear-gradient-4"/><linearGradient id="linear-gradient-68" x1="191.81" y1="329.06" x2="191.81" y2="250.09" xlink:href="#linear-gradient-4"/><linearGradient id="linear-gradient-69" x1="647.24" y1="622.61" x2="647.24" y2="592.7" xlink:href="#linear-gradient-54"/><linearGradient id="linear-gradient-70" x1="650.2" y1="606.23" x2="650.2" y2="591.68" xlink:href="#linear-gradient-11"/><linearGradient id="linear-gradient-71" x1="648.06" y1="625.59" x2="648.06" y2="618.88" xlink:href="#linear-gradient-54"/><linearGradient id="linear-gradient-72" x1="643.18" y1="690.6" x2="643.18" y2="631.05" xlink:href="#linear-gradient-10"/><linearGradient id="linear-gradient-73" x1="693.33" y1="690.6" x2="693.33" y2="631.05" xlink:href="#linear-gradient-10"/><linearGradient id="linear-gradient-74" x1="730.1" y1="633.73" x2="730.1" y2="624.13" xlink:href="#linear-gradient-54"/><linearGradient id="linear-gradient-75" x1="848.86" y1="797.84" x2="848.86" y2="791.13" xlink:href="#linear-gradient-54"/><linearGradient id="linear-gradient-76" x1="848.04" y1="794.85" x2="848.04" y2="764.95" xlink:href="#linear-gradient-54"/><linearGradient id="linear-gradient-77" x1="851" y1="778.48" x2="851" y2="764.02" xlink:href="#linear-gradient-11"/><linearGradient id="linear-gradient-78" x1="825.37" y1="941.23" x2="851.25" y2="941.23" xlink:href="#linear-gradient-5"/><linearGradient id="linear-gradient-79" x1="852.51" y1="941.23" x2="878.4" y2="941.23" xlink:href="#linear-gradient-5"/><linearGradient id="linear-gradient-80" x1="838.06" y1="928.34" x2="838.06" y2="866.16" xlink:href="#linear-gradient-4"/><linearGradient id="linear-gradient-81" x1="398.49" y1="499.03" x2="398.49" y2="433.97" xlink:href="#linear-gradient-4"/><linearGradient id="linear-gradient-82" x1="819.81" y1="848.57" x2="819.81" y2="787.22" xlink:href="#linear-gradient-36"/><linearGradient id="linear-gradient-83" x1="894.95" y1="848.57" x2="894.95" y2="787.22" xlink:href="#linear-gradient-36"/><linearGradient id="linear-gradient-84" x1="935.13" y1="808.85" x2="935.13" y2="800.46" xlink:href="#linear-gradient-54"/><linearGradient id="linear-gradient-85" x1="808.17" y1="785.84" x2="808.17" y2="762.2" xlink:href="#linear-gradient-54"/><linearGradient id="linear-gradient-86" x1="849.29" y1="848.57" x2="849.29" y2="787.22" xlink:href="#linear-gradient-36"/></defs><title>build</title><path class="cls-1" d="M917.46,437.22v-.08c0-8.61-11.59-15.59-25.88-15.59-.86,0-1.71,0-2.55.07a20.7,20.7,0,0,0-37.49.61,17.9,17.9,0,0,0-4.9-.68c-9.2,0-16.66,7-16.66,15.59,0,0,0,.05,0,.08Z" transform="translate(-459 -410)"/><path class="cls-2" d="M554.78,858.92a49.33,49.33,0,0,0,2.43,8.74,50.05,50.05,0,0,0,4.06,8.2l15-5a37.35,37.35,0,0,0,7.37,7.59l-6.79,13.45a56.24,56.24,0,0,0,17.39,7.68L601,886.11a41.17,41.17,0,0,0,10.94.5l5.37,14a58,58,0,0,0,9.34-2.27,57.34,57.34,0,0,0,8.75-3.8l-5.36-14a37.63,37.63,0,0,0,8.11-6.9L652.51,880a49.45,49.45,0,0,0,8.21-16.27l-14.37-6.35a33.79,33.79,0,0,0,.54-10.25l15-5a48.49,48.49,0,0,0-2.43-8.74,49.56,49.56,0,0,0-4.06-8.19l-15,5A36.89,36.89,0,0,0,633,822.6l6.79-13.46a56.42,56.42,0,0,0-17.38-7.68l-6.79,13.45a41.22,41.22,0,0,0-10.95-.5l-5.36-14a57.79,57.79,0,0,0-9.34,2.28,55.54,55.54,0,0,0-8.76,3.8l5.37,14a37.67,37.67,0,0,0-8.11,6.9L564.11,821a49.94,49.94,0,0,0-8.21,16.27l14.38,6.35a33.79,33.79,0,0,0-.54,10.25Zm47.81-23.35c8.82-3,18.53,1.33,21.69,9.58S622.86,862.5,614,865.46s-18.53-1.34-21.7-9.59S593.77,838.53,602.59,835.57Z" transform="translate(-459 -410)"/><path class="cls-3" d="M459,832.09a39.6,39.6,0,0,0,2.05,7.36,41.52,41.52,0,0,0,3.42,6.91l12.59-4.23a31.36,31.36,0,0,0,6.21,6.39l-5.71,11.34a47.44,47.44,0,0,0,14.64,6.47L497.92,855a34.59,34.59,0,0,0,9.22.43l4.51,11.79a48,48,0,0,0,7.87-1.92,46.56,46.56,0,0,0,7.38-3.2l-4.52-11.79a31.77,31.77,0,0,0,6.83-5.81l12.11,5.35a41.75,41.75,0,0,0,6.91-13.7l-12.1-5.35a28.63,28.63,0,0,0,.45-8.63l12.6-4.23a40.7,40.7,0,0,0-5.47-14.27l-12.6,4.23a30.84,30.84,0,0,0-6.21-6.39l5.72-11.34A47.44,47.44,0,0,0,516,783.69L510.26,795a34.59,34.59,0,0,0-9.22-.43l-4.52-11.79a48.52,48.52,0,0,0-7.87,1.92,46.85,46.85,0,0,0-7.37,3.2l4.52,11.79a31.26,31.26,0,0,0-6.83,5.81l-12.11-5.35a41.78,41.78,0,0,0-6.92,13.7l12.11,5.35a28.31,28.31,0,0,0-.45,8.63Zm40.27-19.67c7.42-2.49,15.61,1.12,18.27,8.08s-1.2,14.61-8.63,17.1-15.61-1.12-18.27-8.08S491.84,814.91,499.27,812.42Z" transform="translate(-459 -410)"/><path class="cls-4" d="M532.27,770.7a29.13,29.13,0,0,0,1.49,5.36,30.14,30.14,0,0,0,2.48,5l9.17-3.08a22.65,22.65,0,0,0,4.52,4.65l-4.16,8.25a34.62,34.62,0,0,0,10.66,4.72l4.17-8.25a25,25,0,0,0,6.71.3l3.29,8.59a35.59,35.59,0,0,0,5.72-1.4,33.22,33.22,0,0,0,5.37-2.33L578.4,784a23.19,23.19,0,0,0,5-4.23l8.81,3.89a30.44,30.44,0,0,0,5-10l-8.81-3.9a20.92,20.92,0,0,0,.33-6.28l9.17-3.08a29.58,29.58,0,0,0-1.49-5.36,30.47,30.47,0,0,0-2.49-5l-9.17,3.08a23,23,0,0,0-4.52-4.66l4.16-8.25a34.5,34.5,0,0,0-10.66-4.71l-4.16,8.25a25.45,25.45,0,0,0-6.71-.31l-3.29-8.58a34.32,34.32,0,0,0-11.1,3.72l3.29,8.59a22.85,22.85,0,0,0-5,4.23l-8.82-3.9a30.49,30.49,0,0,0-5,10l8.82,3.89a20.36,20.36,0,0,0-.33,6.29Zm29.31-14.32c5.4-1.81,11.36.82,13.3,5.88s-.87,10.64-6.28,12.45-11.36-.81-13.3-5.88S556.17,758.2,561.58,756.38Z" transform="translate(-459 -410)"/><rect class="cls-5" x="134.29" y="172.95" width="487.45" height="232.12" rx="3.63"/><rect class="cls-6" x="341.31" y="405.06" width="73.41" height="44.55"/><rect class="cls-7" x="277.93" y="449.62" width="200.17" height="17.14"/><rect class="cls-8" x="731.54" y="465.87" width="210.95" height="466.27" transform="translate(1077.02 -548.01) rotate(90)"/><path class="cls-9" d="M979.31,602.08H627.58c-6.48,0-11.73,4.92-11.73,11V771.81c0,6.07,5.25,11,11.73,11H979.31c6.48,0,11.73-4.92,11.73-11V613.06C991,607,985.79,602.08,979.31,602.08Z" transform="translate(-459 -410)"/><path class="cls-10" d="M991,625.76v-12.7c0-6.06-5.25-11-11.73-11H627.58c-6.48,0-11.73,4.92-11.73,11v12.7Z" transform="translate(-459 -410)"/><ellipse class="cls-11" cx="173.5" cy="203.92" rx="4.51" ry="4.22"/><ellipse class="cls-12" cx="196.25" cy="203.92" rx="4.51" ry="4.22"/><ellipse class="cls-13" cx="218.99" cy="203.92" rx="4.51" ry="4.22"/><rect class="cls-10" x="169" y="229.86" width="79.85" height="15.33"/><rect class="cls-14" x="266.9" y="229.86" width="245.16" height="15.33"/><rect class="cls-15" x="169" y="265.88" width="341.4" height="93.72"/><path class="cls-16" d="M1043.5,675.88H855.07c-6.48,0-11.73,4.92-11.73,11V785c0,6.07,5.25,11,11.73,11H1043.5c6.48,0,11.74-4.91,11.74-11V686.87C1055.24,680.8,1050,675.88,1043.5,675.88Z" transform="translate(-459 -410)"/><path class="cls-10" d="M1055.24,699.56V686.87c0-6.07-5.26-11-11.74-11H855.07c-6.48,0-11.73,4.92-11.73,11v12.69Z" transform="translate(-459 -410)"/><ellipse class="cls-17" cx="400.99" cy="277.72" rx="4.51" ry="4.22"/><ellipse class="cls-18" cx="423.74" cy="277.72" rx="4.51" ry="4.22"/><ellipse class="cls-19" cx="446.48" cy="277.72" rx="4.51" ry="4.22"/><path class="cls-10" d="M891.28,764.36,873.5,745.62l17.78-18.75a3,3,0,0,0-.28-4.41,3.5,3.5,0,0,0-4.71.26l-19.74,20.82a3,3,0,0,0,0,4.15l19.74,20.82a3.49,3.49,0,0,0,4.71.26A3,3,0,0,0,891.28,764.36Z" transform="translate(-459 -410)"/><path class="cls-10" d="M1032,743.54l-19.74-20.82a3.51,3.51,0,0,0-4.71-.26,3,3,0,0,0-.28,4.41l17.77,18.75-17.77,18.74a3,3,0,0,0,.28,4.41,3.42,3.42,0,0,0,2.21.79,3.46,3.46,0,0,0,2.5-1L1032,747.69A3,3,0,0,0,1032,743.54Z" transform="translate(-459 -410)"/><path class="cls-10" d="M928,714a3.42,3.42,0,0,0-4.33,1.77l-24.86,59.33a3.06,3.06,0,0,0,1.89,4,3.67,3.67,0,0,0,1.21.21,3.34,3.34,0,0,0,3.11-2L929.85,718A3.07,3.07,0,0,0,928,714Z" transform="translate(-459 -410)"/><path class="cls-10" d="M947.82,714a3.42,3.42,0,0,0-4.33,1.77l-24.86,59.33a3.06,3.06,0,0,0,1.89,4,3.67,3.67,0,0,0,1.21.21,3.33,3.33,0,0,0,3.11-2L949.71,718A3.07,3.07,0,0,0,947.82,714Z" transform="translate(-459 -410)"/><path class="cls-10" d="M964.06,731.1a4.45,4.45,0,1,0,4.75,4.45A4.61,4.61,0,0,0,964.06,731.1Z" transform="translate(-459 -410)"/><path class="cls-10" d="M964.06,752.75a4.46,4.46,0,1,0,4.75,4.45A4.61,4.61,0,0,0,964.06,752.75Z" transform="translate(-459 -410)"/><path class="cls-10" d="M984.08,752.75a4.46,4.46,0,1,0,4.75,4.45A4.61,4.61,0,0,0,984.08,752.75Z" transform="translate(-459 -410)"/><path class="cls-20" d="M579.89,646.91l-13.5,6.64-11.6-6.86.54-12.83,13.5-6.64a1.2,1.2,0,0,0-.14-2.23,22.21,22.21,0,0,0-16.91,1.06,19.3,19.3,0,0,0-11,19.79L492.1,692.52a19.5,19.5,0,0,0-12.16,1.65,17.48,17.48,0,0,0-9.28,11,1.13,1.13,0,0,0,1.65,1.21l11.92-5.86,10.24,6L494,717.87l-11.91,5.87a1,1,0,0,0,.12,2,19.56,19.56,0,0,0,14.92-.93A17.11,17.11,0,0,0,507,708.52a11.88,11.88,0,0,0,1-.87l47.48-45.53a22.17,22.17,0,0,0,15.79-1.41,19.79,19.79,0,0,0,10.52-12.43A1.28,1.28,0,0,0,579.89,646.91Z" transform="translate(-459 -410)"/><path class="cls-21" d="M1082.76,563.43c0-26.16-23-47.3-51.09-46.69-26.54.59-48.16,20.89-48.69,45.73a45.25,45.25,0,0,0,16.43,35.59,7.33,7.33,0,0,1,2.65,5.57v12.81a7.78,7.78,0,0,0,8,7.51h45.57a7.78,7.78,0,0,0,8-7.51V603.63a7.32,7.32,0,0,1,2.64-5.57A45.27,45.27,0,0,0,1082.76,563.43Z" transform="translate(-459 -410)"/><path class="cls-22" d="M1055.65,627.79h-45.57a7.78,7.78,0,0,0-8,7.51h0a7.77,7.77,0,0,0,8,7.5h45.57a7.78,7.78,0,0,0,8-7.5h0A7.78,7.78,0,0,0,1055.65,627.79Z" transform="translate(-459 -410)"/><path class="cls-23" d="M1055.65,646.51h-45.57a7.78,7.78,0,0,0-8,7.51h0a7.78,7.78,0,0,0,8,7.51h45.57a7.78,7.78,0,0,0,8-7.51h0A7.79,7.79,0,0,0,1055.65,646.51Z" transform="translate(-459 -410)"/><path class="cls-10" d="M1045.54,568.77c-6.37,0-11.56,4.86-11.56,10.82V624h3.35V588.51h8.21c5.82,0,10.55-4.43,10.55-9.87S1051.36,568.77,1045.54,568.77Zm0,16.6h-8.21v-5.78a8,8,0,0,1,8.21-7.68,6.75,6.75,0,1,1,0,13.46Z" transform="translate(-459 -410)"/><path class="cls-10" d="M1020.19,568.77c-5.81,0-10.54,4.43-10.54,9.87s4.73,9.87,10.54,9.87h8.21V624h3.35V579.59C1031.75,573.63,1026.56,568.77,1020.19,568.77Zm8.21,16.29v.31h-8.21a6.74,6.74,0,1,1,0-13.46,8,8,0,0,1,8.21,7.68Z" transform="translate(-459 -410)"/><polygon class="cls-24" points="517.64 483.62 512.14 483.62 493.31 503.58 498.81 503.58 517.64 483.62"/><polygon class="cls-25" points="497.64 442.23 498.24 437.11 479.08 417.42 478.49 422.54 497.64 442.23"/><rect class="cls-26" x="498.59" y="509.02" width="101.03" height="3.61"/><polygon class="cls-27" points="605.98 493.61 505.47 493.61 490.29 432.99 618.49 432.99 605.98 493.61"/><path class="cls-28" d="M945.71,831.28A6.71,6.71,0,1,1,939,825,6.5,6.5,0,0,1,945.71,831.28Z" transform="translate(-459 -410)"/><path class="cls-29" d="M970.75,920.82c0,7-6,12.65-13.51,12.65s-13.51-5.66-13.51-12.65,6-12.64,13.51-12.64S970.75,913.84,970.75,920.82Z" transform="translate(-459 -410)"/><path class="cls-30" d="M962.24,920.82a5,5,0,1,1-5-4.68A4.85,4.85,0,0,1,962.24,920.82Z" transform="translate(-459 -410)"/><path class="cls-31" d="M1072.6,920.82c0,7-6,12.65-13.51,12.65s-13.51-5.66-13.51-12.65,6.05-12.64,13.51-12.64S1072.6,913.84,1072.6,920.82Z" transform="translate(-459 -410)"/><path class="cls-32" d="M1064.09,920.82a5,5,0,1,1-5-4.68A4.85,4.85,0,0,1,1064.09,920.82Z" transform="translate(-459 -410)"/><rect class="cls-33" x="505.47" y="445.95" width="97.83" height="5.43" rx="1.29"/><path class="cls-34" d="M1057.41,875.39H969.36a2.82,2.82,0,0,1-2.9-2.72h0a2.82,2.82,0,0,1,2.9-2.72h88.05a2.82,2.82,0,0,1,2.9,2.72h0A2.82,2.82,0,0,1,1057.41,875.39Z" transform="translate(-459 -410)"/><path class="cls-35" d="M1054.35,889.39H972.42a2.82,2.82,0,0,1-2.9-2.72h0a2.81,2.81,0,0,1,2.9-2.71h81.93a2.81,2.81,0,0,1,2.9,2.71h0A2.82,2.82,0,0,1,1054.35,889.39Z" transform="translate(-459 -410)"/><ellipse class="cls-36" cx="659.88" cy="317.64" rx="63.12" ry="59.07"/><path class="cls-37" d="M1078.38,710.63a3.56,3.56,0,0,1,4.62,1.66c1.37,2.9,4.85,5.11,8.38,5.49a22.24,22.24,0,0,0,9.93-1.6,3.5,3.5,0,0,1,4.5,1.93,7.57,7.57,0,0,0,2.72,3.59,8.4,8.4,0,0,0,4.6,1.5,3.65,3.65,0,0,1,3.71,3.38,2.25,2.25,0,0,1-1.33,2.11,3.76,3.76,0,0,0-1.89,2.42c-.37,1.45-.12,3-.41,4.44-.86,4.36-5.94,6.65-10.46,8-5.16,1.53-11.16,3.27-12.29,8.76a8.65,8.65,0,0,0,.7,5.29c1.84,4.07,5.62,6.65,9.38,9a20.25,20.25,0,0,1,4.74,3.69,5.82,5.82,0,0,1,1.43,5.4c-.48,1.47-1.77,2.74-1.21,4.4a3.88,3.88,0,0,0,4.66,2.2c3.52-.88,4.92-4,6.48-6.8A38.55,38.55,0,0,1,1131,761.18c4.5-2.58,10-4.68,10.4-10.56a9.93,9.93,0,0,0-1.21-5.42c-2.49-4.66-7.24-7.33-11.9-9.79a11.44,11.44,0,0,1-3.46-2.39,3.39,3.39,0,0,1-.67-3.77c.57-1,1.77-1.57,2.57-2.44,1.92-2.08,1-5.41-.82-7.54s-4.47-3.58-6.42-5.64-3.13-5.24-1.51-7.53c.67-1,1.82-1.74,1.92-2.89.19-2.13-3.21-3.17-3.49-5.28-.18-1.32,1-2.49,2.22-3.12s2.68-.91,3.87-1.63c2.79-1.69,3.5-5.51,2.11-8.33s-4.44-4.69-7.63-5.55a24.84,24.84,0,0,0-5.08-.76,7,7,0,0,1-6.35-4.59l-1.23-3.64-.39-.07c-21.57,4.89-38.82,20.15-45.36,39.83a12.28,12.28,0,0,0,4.8,2.71C1068.36,714.22,1073.54,712.73,1078.38,710.63Z" transform="translate(-459 -410)"/><path class="cls-38" d="M1144.09,677.94c-2.49,3.35-3.14,7.62-4.09,11.52a4.45,4.45,0,0,0,1,4.11c2,2.13,4.83.92,7.38.45a12.42,12.42,0,0,1,10.07,2.63,10.93,10.93,0,0,1,3.29,4.86,5.47,5.47,0,0,0,3.56,3.61,3.84,3.84,0,0,1,2.53,2.17c.78,2.08-.25,4.39-1.67,6.15-1.78,2.21-4.16,3.95-5.9,6.18s-2.75,5.32-1.37,7.76A5.52,5.52,0,0,0,1164,730a5.45,5.45,0,0,0,2-.5,2.66,2.66,0,0,1,3.73,3.1,8.71,8.71,0,0,1-.9,1.9c-2,3.15-5.47,5.33-6.82,8.94a5.94,5.94,0,0,0-.29,3.28c1,4.65,6.79,4.68,9.94,2.25,2.55-2,3.8-5,5-7.89,1.38-3.46,2.78-7.11,2.17-10.76-.5-3-2.29-5.82-1.67-8.76.44-2.07,2-3.74,3.35-5.46l.32-.43c-3.93-17.87-16.49-32.78-33.41-40.79A13.32,13.32,0,0,0,1144.09,677.94Z" transform="translate(-459 -410)"/><path class="cls-39" d="M863.42,454c0-24.67-21.68-44.6-48.18-44-25.49.57-46,20.4-45.9,44.26.09,14.84,8,27.94,20.1,35.85C797.2,495.2,802,503.38,802,512.24V513h28.82v-.73a26,26,0,0,1,12.15-21.87C855.31,482.44,863.42,469.12,863.42,454Z" transform="translate(-459 -410)"/><path class="cls-40" d="M839.72,454c0-24.67-10.75-44.6-23.9-44-12.65.57-22.85,20.4-22.78,44.26,0,14.84,4,27.94,10,35.85,3.84,5.08,6.21,13.26,6.21,22.12V513h14.3v-.73c0-8.71,2.22-16.95,6-21.87C835.7,482.44,839.72,469.12,839.72,454Z" transform="translate(-459 -410)"/><path class="cls-41" d="M340.36,121.07h34a0,0,0,0,1,0,0v24.56a3.17,3.17,0,0,1-3.17,3.17H343.54a3.18,3.18,0,0,1-3.18-3.18V121.07A0,0,0,0,1,340.36,121.07Z"/><rect class="cls-42" x="351.23" y="121.07" width="12.3" height="27.73"/><path class="cls-43" d="M833.35,531.07H799.41a2.94,2.94,0,0,1-3-2.83h0a2.93,2.93,0,0,1,3-2.83h33.94a2.93,2.93,0,0,1,3,2.83h0A2.94,2.94,0,0,1,833.35,531.07Z" transform="translate(-459 -410)"/><rect class="cls-44" x="342.97" y="102.97" width="1.47" height="12.43"/><rect class="cls-45" x="829.32" y="512.97" width="1.47" height="12.43" transform="translate(1201.11 628.38) rotate(180)"/><rect class="cls-46" x="356.65" y="102.97" width="1.47" height="12.43"/><path class="cls-47" d="M625.11,627.43l46.54,276.24h8.55L673,860.85h54.24l7.22,42.82H743L696.45,627.43H687.9l4.44,26.4H638.1l-4.44-26.4Zm68.58,34.4,5.36,31.8H644.81l-5.36-31.8ZM658.22,773.24l-5.36-31.8H707.1l5.36,31.8Zm55.59,8,5.36,31.8H664.93l-5.36-31.8Zm-62.29-47.81-5.36-31.8H700.4l5.36,31.8Zm20.11,119.41-5.35-31.8h54.24l5.35,31.8Z" transform="translate(-459 -410)"/><path class="cls-48" d="M685.85,627.43l-4.45,26.4H627.16l4.45-26.4h-8.55L576.52,903.67h8.55l7.22-42.82h54.24l-7.22,42.82h8.55L694.4,627.43Zm-5.79,34.4-5.36,31.8H620.46l5.36-31.8Zm-73,111.41,5.35-31.8h54.24l-5.35,31.8Zm52.89,8-5.36,31.8H600.34l5.36-31.8Zm-46.19-47.81,5.36-31.8h54.24L668,733.44ZM593.63,852.85l5.36-31.8h54.24l-5.36,31.8Z" transform="translate(-459 -410)"/><polygon class="cls-49" points="222.72 437.41 206.25 437.41 178.98 503.25 249.99 503.25 222.72 437.41"/><polygon class="cls-50" points="158.69 516.51 270.28 516.51 262.72 503.25 166.25 503.25 158.69 516.51"/><polygon class="cls-10" points="224.64 442.06 199.05 454.79 191.26 473.59 229.77 454.44 224.64 442.06"/><polygon class="cls-10" points="180.46 499.68 178.98 503.25 203.3 503.25 242.01 483.99 236.88 471.61 180.46 499.68"/><path class="cls-51" d="M1089.7,505.39v-.09c0-8.61-11.59-15.59-25.88-15.59-.86,0-1.71,0-2.55.08a20.7,20.7,0,0,0-37.49.61,17.9,17.9,0,0,0-4.9-.69c-9.2,0-16.66,7-16.66,15.59,0,0,0,.06,0,.09Z" transform="translate(-459 -410)"/><path class="cls-52" d="M769.63,549.39s0-.08,0-.13c0-13-17.57-23.63-39.24-23.63-1.31,0-2.6,0-3.87.11-4.6-10.34-15.5-17.62-28.22-17.62-13.1,0-24.27,7.71-28.62,18.55a26.66,26.66,0,0,0-7.42-1c-13.95,0-25.26,10.58-25.26,23.63,0,0,0,.09,0,.13Z" transform="translate(-459 -410)"/><polygon class="cls-53" points="668.11 454.06 651.65 454.06 624.38 519.89 695.38 519.89 668.11 454.06"/><polygon class="cls-54" points="604.09 533.15 715.67 533.15 708.12 519.89 611.64 519.89 604.09 533.15"/><polygon class="cls-10" points="670.04 458.7 644.45 471.43 636.66 490.24 675.17 471.08 670.04 458.7"/><polygon class="cls-10" points="625.86 516.32 624.38 519.89 648.69 519.89 687.41 500.63 682.28 488.25 625.86 516.32"/><polygon class="cls-55" points="436.87 106.2 430.24 143.75 415.69 160.77 423.61 159.37 440.65 144.75 445.1 126.13 436.87 106.2"/><path class="cls-56" d="M907,510.84s-9.31.55-11.08,5.36S905,563.51,905,563.51l40.76-2.1-12.17-44.55a6.22,6.22,0,0,0-3.16-3.88c-2.5-1.3-7-2.67-14.78-2.14Z" transform="translate(-459 -410)"/><path class="cls-57" d="M915.67,510.84a19.16,19.16,0,0,1-8.72,0v-6.21h8.72Z" transform="translate(-459 -410)"/><path class="cls-58" d="M905,563.51l-29.83,5.16a10.54,10.54,0,0,0-8.78,8.41l-7.77,45.56h9.2L883,582.19l62.75-20.78Z" transform="translate(-459 -410)"/><path class="cls-59" d="M872.74,568.67l-3.07,2.87a3.3,3.3,0,0,1-4.45,0l15.36,14.37a2.8,2.8,0,0,1,0-4.17l3.06-2.87a3.31,3.31,0,0,1,4.46,0l.09.09,27.69-25.91a9.83,9.83,0,0,0,0-14.55h0a11.53,11.53,0,0,0-15.55,0l-27.69,25.91.1.09A2.82,2.82,0,0,1,872.74,568.67Z" transform="translate(-459 -410)"/><polygon class="cls-60" points="402.78 164.76 418.14 179.13 421.57 175.91 421.57 175.91 406.21 161.54 402.78 164.76"/><polygon class="cls-48" points="369.35 206.4 371.49 208.41 373.64 210.42 387.86 201.71 388.42 196.87 412.76 174.1 410.46 171.94 408.15 169.79 383.82 192.57 378.65 193.09 369.35 206.4"/><path class="cls-61" d="M858.64,622.64,844,626.49a2.51,2.51,0,0,0-1.94,2.39h0a2.57,2.57,0,0,0,2.65,2.48h21a3.49,3.49,0,0,0,3.6-3.37v-2.16a3.27,3.27,0,0,0-.56-1.81l-.94-1.38Z" transform="translate(-459 -410)"/><path class="cls-62" d="M922.83,492.73c0,8.27-5.18,15-11.59,15s-11.59-6.71-11.59-15,5.19-15,11.59-15S922.83,484.45,922.83,492.73Z" transform="translate(-459 -410)"/><path class="cls-63" d="M922.83,492.73c0-8.28-5.18-15-11.59-15-4.66,0-8.66,3.56-10.51,8.69,1.25.15,2.53-.07,3.8,0,1.44,0,3.08.7,3.39,2,.22.91-.23,2,.44,2.72s2,.34,3.09.28a4,4,0,0,1,3.5,1.72,3.46,3.46,0,0,1,0,3.7c-.51.8-1.39,1.62-1,2.5.21.55.86.85,1.17,1.37a4.32,4.32,0,0,1,.28,2,3.47,3.47,0,0,0,1.59,2.59c.12.07.24.12.36.18C920.63,502.82,922.83,498.11,922.83,492.73Z" transform="translate(-459 -410)"/><path class="cls-64" d="M923.67,485.34l-1.39.21c-2-5.18-6.2-8.73-11-8.73-6.22,0-13.16,1.35-12.21,13.7-2.51.7-5,1.46-7.48,2.27a1.19,1.19,0,0,0-.79,1.53,1.3,1.3,0,0,0,1.22.8,1.52,1.52,0,0,0,.42-.06,185,185,0,0,1,31.63-7.35,1.2,1.2,0,0,0,1.07-1.36A1.27,1.27,0,0,0,923.67,485.34Z" transform="translate(-459 -410)"/><path class="cls-65" d="M945.78,561.41l1.3,5.72c1.76,7.8-4.34,15.22-12.85,15.63l-38.55,1.83,13.83,40.13-9.14.93-22.11-42.34c-2.79-5.35.53-11.73,6.75-13l39.32-7.82Z" transform="translate(-459 -410)"/><path class="cls-66" d="M900.37,625.65,886.24,631a2.45,2.45,0,0,0-1.64,2.56h0a2.61,2.61,0,0,0,2.92,2.2l20.91-2.13a3.43,3.43,0,0,0,3.19-3.71l-.25-2.15a3.2,3.2,0,0,0-.77-1.74l-1.09-1.27Z" transform="translate(-459 -410)"/><path class="cls-67" d="M929.87,543.26l5.16-21.2-1.42-5.2a6.22,6.22,0,0,0-3.16-3.88,21.18,21.18,0,0,0-7.62-2.06h0l-2.1,29-20,16.22,3.37,3.7,22.78-12.73A6.08,6.08,0,0,0,929.87,543.26Z" transform="translate(-459 -410)"/><path class="cls-68" d="M900.73,556.15l-3,2.21-5,1.9c-2.56,1.16-5.85,2.31-7.18,3.51a.82.82,0,0,0,.53,1.42l2.11.24a2.14,2.14,0,0,0,.62,0l6.28-1.34,4.09-.69a6.45,6.45,0,0,0,3.94-2.24l1.05-1.28Z" transform="translate(-459 -410)"/><path class="cls-69" d="M618.32,764.91l13.71,3.6a2.36,2.36,0,0,1,1.81,2.24h0a2.4,2.4,0,0,1-2.48,2.31H611.68a3.26,3.26,0,0,1-3.37-3.14v-2a3,3,0,0,1,.53-1.69l.87-1.29Z" transform="translate(-459 -410)"/><path class="cls-70" d="M645.47,764.91l13.71,3.6a2.35,2.35,0,0,1,1.8,2.24h0a2.39,2.39,0,0,1-2.47,2.31H638.82a3.26,3.26,0,0,1-3.36-3.14v-2a3,3,0,0,1,.52-1.69l.88-1.29Z" transform="translate(-459 -410)"/><path class="cls-71" d="M620,679.56a611.62,611.62,0,0,0-10.35,85.35h9L643.7,682.6C629.37,683.4,620,679.57,620,679.56Z" transform="translate(-459 -410)"/><polygon class="cls-72" points="205.61 270.2 185.93 354.91 178.01 354.91 180.39 272.7 205.61 270.2"/><path class="cls-73" d="M635.7,608.69c.84,8.23,6.69,14.45,13.06,13.88s10.86-7.71,10-16-6.69-14.45-13.06-13.88S634.86,600.45,635.7,608.69Z" transform="translate(-459 -410)"/><path class="cls-63" d="M635.7,608.69c-.84-8.24,3.64-15.38,10-16,4.64-.42,9,2.78,11.34,7.72-1.22.26-2.52.15-3.78.31-1.43.18-3,1-3.17,2.31-.13.93.43,2-.16,2.75s-2,.51-3,.55a3.94,3.94,0,0,0-3.31,2,3.46,3.46,0,0,0,.35,3.69c.59.75,1.55,1.49,1.29,2.39-.16.57-.77.93-1,1.47a4.43,4.43,0,0,0-.07,2,3.41,3.41,0,0,1-1.33,2.72,2.8,2.8,0,0,1-.34.21C638.92,618.53,636.25,614.05,635.7,608.69Z" transform="translate(-459 -410)"/><path class="cls-74" d="M633.63,603.84l1.39-.18c.34-5.51,3.21-10,7.8-11.35,5.95-1.7,14.71-.37,16,9.75q3.93,0,7.86.13a1.19,1.19,0,0,1,.32,2.35,1.42,1.42,0,0,1-.42.05A186.28,186.28,0,0,0,634,606.22a1.28,1.28,0,0,1-1.46-1A1.22,1.22,0,0,1,633.63,603.84Z" transform="translate(-459 -410)"/><path class="cls-75" d="M643.7,625.09a19.15,19.15,0,0,0,8.72,0v-6.21H643.7Z" transform="translate(-459 -410)"/><path class="cls-76" d="M664.61,680.2l1.77-48.32a5.14,5.14,0,0,0-4.42-5.14l-9.54-1.65H643.7l-5.4.27a6.54,6.54,0,0,0-6,4.42A458.53,458.53,0,0,0,620,679.56s9.4,3.84,23.73,3C643.7,682.6,655,683.4,664.61,680.2Z" transform="translate(-459 -410)"/><path class="cls-77" d="M663.24,627.12s-2.54,13.13,2.63,18.84l28.81-4.27,29.37-8-2.09-6-28.63,3.6Z" transform="translate(-459 -410)"/><path class="cls-78" d="M724.05,633.73l3-1.2s5.86.38,5.78-4.5l4.19-1.16a1.39,1.39,0,0,0,1-1.81h0a1.52,1.52,0,0,0-1.73-.9L730,625.47s-5.27-.05-7.85,2.75Z" transform="translate(-459 -410)"/><path class="cls-79" d="M844.5,797.34a19.3,19.3,0,0,0,8.72,0v-6.21H844.5Z" transform="translate(-459 -410)"/><path class="cls-80" d="M836.5,780.93c.85,8.24,6.69,14.46,13.07,13.89s10.85-7.71,10-16-6.69-14.45-13.06-13.88S835.66,772.7,836.5,780.93Z" transform="translate(-459 -410)"/><path class="cls-63" d="M836.5,780.93c-.84-8.23,3.65-15.37,10-15.94,4.64-.42,9,2.77,11.34,7.71-1.22.26-2.52.16-3.77.32-1.43.18-3,1-3.18,2.3-.12.93.43,2-.16,2.75s-2,.52-3,.56a3.91,3.91,0,0,0-3.31,2,3.46,3.46,0,0,0,.35,3.68c.59.76,1.55,1.5,1.3,2.4-.16.57-.78.93-1,1.47a4.43,4.43,0,0,0-.07,2,3.43,3.43,0,0,1-1.33,2.72,2.8,2.8,0,0,1-.34.21C839.72,790.78,837.05,786.29,836.5,780.93Z" transform="translate(-459 -410)"/><path class="cls-81" d="M834.43,776.09c.46-.07.93-.12,1.39-.18.34-5.51,3.21-10,7.81-11.36,6-1.7,15.07.4,16,9.76,2.62,0,5.25,0,7.86.12a1.24,1.24,0,0,1,1.23,1.25,1.21,1.21,0,0,1-.9,1.1,1.24,1.24,0,0,1-.43.05,188.25,188.25,0,0,0-32.54,1.63,1.27,1.27,0,0,1-1.46-1A1.22,1.22,0,0,1,834.43,776.09Z" transform="translate(-459 -410)"/><path class="cls-82" d="M835.06,937.16l14.12,3.6a2.72,2.72,0,0,1,2.06,2.23h0a2.11,2.11,0,0,1-2.21,2.32H829.34a3.75,3.75,0,0,1-3.72-3.15l-.23-2a2.72,2.72,0,0,1,.33-1.69l.73-1.29Z" transform="translate(-459 -410)"/><path class="cls-83" d="M862.2,937.16l14.12,3.6a2.7,2.7,0,0,1,2.06,2.23h0a2.1,2.1,0,0,1-2.21,2.32H856.49a3.76,3.76,0,0,1-3.73-3.15l-.23-2a2.79,2.79,0,0,1,.33-1.69l.73-1.29Z" transform="translate(-459 -410)"/><path class="cls-84" d="M826.93,851.81a598.88,598.88,0,0,0-.58,85.35h9L851,854.85C836.77,855.64,827,851.82,826.93,851.81Z" transform="translate(-459 -410)"/><polygon class="cls-85" points="412.65 442.44 402.66 527.16 394.74 527.16 384.34 442.44 412.65 442.44"/><path class="cls-86" d="M837,798.05l-24.07,6.22-3.21-18.43h-5.89l-1.17,22.35a4.36,4.36,0,0,0,4.26,4.45l27.73,1.64Z" transform="translate(-459 -410)"/><path class="cls-87" d="M865.46,800.06l30.26,8.71,26.54-5.2,2.78,6.2-28.46,10-27.76-3.61S863,806.77,865.46,800.06Z" transform="translate(-459 -410)"/><path class="cls-88" d="M922.26,803.57s4.17-1.53,5.13-2,2-1.13,7.06-1.13a59.21,59.21,0,0,1,10.35.9c1.13.23,4.9,1.43,2.33,2.78s-4.41,1.5-7.06,2.11-4.41,2.77-8.35,1.87a11.32,11.32,0,0,0-7.1.73Z" transform="translate(-459 -410)"/><path class="cls-89" d="M803.81,785.84a12.59,12.59,0,0,1-.64-5.58s3.61-16.22,6.26-17.88-.08,8.57,1.28,10.22,2.73,4.31,2.57,6.43-3,2.66-3.29,4a23,23,0,0,0-.29,2.8Z" transform="translate(-459 -410)"/><path class="cls-90" d="M871.65,852.44l-3.77-48.32a6,6,0,0,0-5-5.14l-9.73-1.64h-8.72l-5.37.27a5.66,5.66,0,0,0-5.48,4.42,429.38,429.38,0,0,0-6.64,49.78s9.84,3.83,24.07,3C851,854.85,862.38,855.65,871.65,852.44Z" transform="translate(-459 -410)"/></svg>