<svg id="Layer_1" data-name="Layer 1" xmlns="http://www.w3.org/2000/svg" viewBox="0 0 798.22 646"><defs><style>.cls-1,.cls-6{fill:#173d7a;}.cls-1{opacity:0.5;}.cls-2{fill:#d3008d;}.cls-3{fill:#fff;}.cls-4{fill:#ff2c9c;}.cls-5{fill:#396caa;}.cls-7{fill:#d4ecff;}.cls-8{fill:#5793ce;}.cls-9{fill:#ffc2b0;}.cls-10{fill:#ea9c92;}.cls-11{fill:#699dd1;}</style></defs><title>float</title><path class="cls-1" d="M917.39,592.49a28.76,28.76,0,0,1-9.24-2.73c-7.94-4.11-7.94-10.76,0-14.87s20.82-4.11,28.76,0a11.63,11.63,0,0,1,5.28,4.77l55-28.41L880.21,490.79c-9.82-5.08-25.75-5.08-35.58,0L727.69,551.25l53.86,27.84a25.46,25.46,0,0,0-5.76,2.08c-7.95,4.1-7.95,10.76,0,14.87s20.82,4.11,28.76,0a14.11,14.11,0,0,0,4-3l53.85,27.84Z" transform="translate(-449.78 -187)"/><path class="cls-1" d="M1179.1,656.3l-116.94-60.46-55,28.41a11.63,11.63,0,0,0-5.28-4.77c-7.94-4.11-20.82-4.11-28.76,0s-7.95,10.76,0,14.87a28.77,28.77,0,0,0,9.23,2.73l-55,28.41L984,694.75c.3-2.47,2.26-4.89,5.9-6.77,7.94-4.11,20.82-4.11,28.76,0s7.95,10.76,0,14.87a31.49,31.49,0,0,1-13.09,3l56.58,29.25,116.95-60.46C1188.93,669.61,1188.93,661.38,1179.1,656.3Z" transform="translate(-449.78 -187)"/><path class="cls-1" d="M750.29,698.34a28.4,28.4,0,0,0-9-2.7l54.88-28.38L742.3,639.42a14.3,14.3,0,0,1-4,3c-7.94,4.1-20.82,4.1-28.77,0s-7.94-10.77,0-14.88a26.12,26.12,0,0,1,5.76-2.07L661.42,597.6,544.48,658.06c-9.83,5.08-9.83,13.32,0,18.4l116.94,60.46,54.89-28.38a11.74,11.74,0,0,0,5.22,4.67c7.94,4.11,20.82,4.11,28.77,0S758.24,702.45,750.29,698.34Z" transform="translate(-449.78 -187)"/><path class="cls-1" d="M936.34,744.54a29.61,29.61,0,0,0,12.38-2.88c7.51-3.88,7.51-10.18,0-14.06s-19.69-3.89-27.21,0c-3.44,1.78-5.29,4.07-5.57,6.4l-53.52-27.67-51.91,26.84a27,27,0,0,1,8.54,2.55c7.51,3.89,7.51,10.18,0,14.07s-19.69,3.88-27.21,0a11.16,11.16,0,0,1-4.94-4.42L735,772.21,845.6,829.4c9.29,4.8,24.36,4.8,33.65,0l110.6-57.19Z" transform="translate(-449.78 -187)"/><path class="cls-2" d="M989.07,470.4,884,416.06c-11.9-6.15-31.2-6.15-43.1,0l-110.24,57-31.4-11.48v27.71l51.08,26.41v18.42c-.22,3.4,2.16,6.83,7.18,9.43,9.62,5,25.22,5,34.84,0a17.17,17.17,0,0,0,4.86-3.61l65.23,33.73L929,539.25h0V514.63c8.18-1.11,17.24,0,23.65,3.3,3.21,1.66,5.32,3.67,6.39,5.78l66.57-34.41V461.58Z" transform="translate(-449.78 -187)"/><path class="cls-3" d="M922.78,513.65,921.71,515l.6,0-59.89,31-65.23-33.72a17,17,0,0,1-4.86,3.6c-9.62,5-25.22,5-34.84,0-3.9-2-6.19-4.53-6.93-7.15-1.09,3.85,1.2,7.91,6.93,10.87,9.62,5,25.22,5,34.84,0a17.17,17.17,0,0,0,4.86-3.61l65.23,33.73L929,515.25v-3.72Z" transform="translate(-449.78 -187)"/><path class="cls-4" d="M929,511.53a34.67,34.67,0,0,1-11.19-3.3c-9.62-5-9.62-13,0-18s25.22-5,34.84,0c3.21,1.66,5.32,3.66,6.39,5.78l66.57-34.42L884,388.35c-11.9-6.15-31.2-6.15-43.1,0L699.23,461.58l65.23,33.72a31.54,31.54,0,0,0-7,2.52c-9.62,5-9.62,13,0,18s25.22,5,34.84,0a17,17,0,0,0,4.86-3.6L862.42,546Z" transform="translate(-449.78 -187)"/><path class="cls-3" d="M764.46,495.3l-65.23-33.72v3.71L760,496.73A33.74,33.74,0,0,1,764.46,495.3Z" transform="translate(-449.78 -187)"/><path class="cls-3" d="M959,496c-1.07-2.12-3.18-4.12-6.39-5.78-9.62-5-25.22-5-34.84,0-5.73,3-8,7-6.93,10.86.75-2.62,3-5.14,6.93-7.15,9.62-5,25.22-5,34.84,0,3.21,1.66,5.32,3.67,6.39,5.78l66.57-34.41v-3.72Z" transform="translate(-449.78 -187)"/><path class="cls-5" d="M1190.07,582.29l-126.81-65.57-66.57,34.42c-1.07-2.12-3.18-4.12-6.39-5.78A35.19,35.19,0,0,0,978.52,542c-2.14-2.5-9.32-10.17-10-10.35l-20.23-5.24v27.82c-.08,3.31,2.31,6.64,7.2,9.16a34.94,34.94,0,0,0,11.18,3.31L933.15,584l-33.08-10.61v27.71l68.53,35.44c.37-3,2.73-5.92,7.14-8.2,5.21-2.69,12.18-3.92,19-3.69V650l68.54,35.44,141.64-73.23c6.08-3.15,9-7.29,8.9-11.41h0V573.67Z" transform="translate(-449.78 -187)"/><path class="cls-6" d="M968.61,587.27v49.25c.37-3,2.73-5.91,7.13-8.19,9.63-5,25.22-5,34.84,0a16.82,16.82,0,0,1,4.84,3.58,71.23,71.23,0,0,1,16-2.51V587.27Z" transform="translate(-449.78 -187)"/><path class="cls-6" d="M1063.26,516.72l-.49.26V685.21l.5.26,141.64-73.23c6.08-3.15,9-7.29,8.9-11.41h0V573.67l-23.75,8.62Z" transform="translate(-449.78 -187)"/><polygon class="cls-5" points="544.95 443.34 544.95 435.32 552.71 439.33 544.95 443.34"/><path class="cls-3" d="M1213.59,575.24c-.77,3.39-3.65,6.68-8.68,9.28l-141.64,73.23-59.74-30.88c-.07-.84-.34-2.54-.34-2.54l-8.46-2V626l68.54,35.44,141.64-73.23C1211.77,584.69,1214.65,579.87,1213.59,575.24Z" transform="translate(-449.78 -187)"/><path class="cls-7" d="M1204.91,562.24,1063.26,489l-66.57,34.42c-1.07-2.12-3.18-4.13-6.39-5.79-9.62-5-25.22-5-34.84,0s-9.62,13,0,18a34.68,34.68,0,0,0,11.18,3.3l-66.57,34.42,68.54,35.43c.36-3,2.73-5.91,7.14-8.19,9.62-5,25.22-5,34.84,0s9.62,13,0,18a38.06,38.06,0,0,1-15.86,3.69l68.54,35.43,141.64-73.23C1216.81,578.37,1216.81,568.4,1204.91,562.24Z" transform="translate(-449.78 -187)"/><path class="cls-3" d="M955.46,539.37a30.12,30.12,0,0,0,6,2.26l5.15-2.67a34.68,34.68,0,0,1-11.18-3.3c-3.9-2-6.19-4.54-6.93-7.15C947.44,532.36,949.73,536.41,955.46,539.37Z" transform="translate(-449.78 -187)"/><path class="cls-3" d="M1017.51,611.48c1.09-3.85-1.2-7.9-6.92-10.86-9.62-5-25.22-5-34.84,0-4.41,2.28-6.78,5.21-7.14,8.19l-68.54-35.43v3.71l68.54,35.44c.36-3,2.73-5.92,7.14-8.2,9.62-5,25.22-5,34.84,0C1014.48,606.34,1016.77,608.86,1017.51,611.48Z" transform="translate(-449.78 -187)"/><path class="cls-6" d="M824.14,601.09V573.38l-32.53,10.9-32.7-16.91A17.23,17.23,0,0,1,754,571c-9.62,5-25.22,5-34.84,0-9.4-4.86-9.59-12.67-.62-17.66l7.6,3.81v-34.4H702.64l-2.34,14.34L661,516.72,535.65,581.5l-25.27-8.12v27.71h0c0,4,3,8.07,8.93,11.14L661,685.46l66.48-34.36a14.27,14.27,0,0,0,6.33,5.65c9.62,5,25.21,5,34.84,0,5-2.58,7.37-6,7.18-9.38V626.1Z" transform="translate(-449.78 -187)"/><path class="cls-5" d="M661,516.72,535.65,581.5l-25.27-8.12v27.71h0c0,4,3,8.07,8.93,11.14L661,685.46V516.72Z" transform="translate(-449.78 -187)"/><path class="cls-3" d="M720.56,522.86l-.81,1.88.2.16-.75.35c-5.73,3-8,7-6.93,10.86.75-2.61,3-5.13,6.93-7.15a31.43,31.43,0,0,1,7-2.51v-3.72Z" transform="translate(-449.78 -187)"/><path class="cls-8" d="M768.59,611a34.5,34.5,0,0,0-10.93-3.27l66.48-34.37-65.23-33.72a17,17,0,0,1-4.87,3.6c-9.62,5-25.22,5-34.84,0s-9.62-13,0-18a31,31,0,0,1,7-2.52L661,489,519.3,562.24c-11.9,6.15-11.9,16.13,0,22.28L661,657.75l66.48-34.37a14.21,14.21,0,0,0,6.33,5.65c9.62,5,25.21,5,34.84,0S778.22,616,768.59,611Z" transform="translate(-449.78 -187)"/><path class="cls-3" d="M768.6,629c-9.63,5-25.22,5-34.84,0a14.21,14.21,0,0,1-6.33-5.65L661,657.75,519.31,584.52c-5-2.6-7.92-5.89-8.69-9.29-1.06,4.63,1.82,9.45,8.69,13L661,661.46l66.48-34.36a14.27,14.27,0,0,0,6.33,5.65c9.62,5,25.21,5,34.84,0,5.72-3,8-7,6.92-10.87C774.78,624.5,772.49,627,768.6,629Z" transform="translate(-449.78 -187)"/><path class="cls-3" d="M757.66,607.75a39.32,39.32,0,0,1,5.12,1.07l61.36-31.73v-3.71Z" transform="translate(-449.78 -187)"/><path class="cls-2" d="M993.79,697l-36.71-19a37.9,37.9,0,0,0,15.86-3.69c4-2.08,6.34-4.7,7-7.41l.21.12V637.5l-31,10.8,7.14,4.32c-6.55-.1-13.16,1.13-18.15,3.71-4.41,2.28-6.78,5.21-7.14,8.2l-68.54-35.44-40.27,20.82L818,637.41l-22-1.66v30.8l6.73-1.53a28.81,28.81,0,0,1,4.2,1.72c9.62,5,9.62,13,0,18s-25.22,5-34.84,0a14.39,14.39,0,0,1-6.33-5.65l-36.79,19-29.68-12.37v27.71L840.88,786.7c11.9,6.15,31.2,6.15,43.1,0l141.64-73.23V685.75Z" transform="translate(-449.78 -187)"/><path class="cls-3" d="M806.88,639a29.11,29.11,0,0,0-5-1.93l-.6-1.05-5.38-.29v3.71a34.58,34.58,0,0,1,10.93,3.28c3.9,2,6.18,4.53,6.93,7.14C814.9,646,812.61,642,806.88,639Z" transform="translate(-449.78 -187)"/><path class="cls-4" d="M957.08,650.32a38.06,38.06,0,0,0,15.86-3.69c9.62-5,9.62-13,0-18s-25.22-5-34.84,0c-4.41,2.28-6.78,5.21-7.14,8.19l-68.54-35.43L796,635.75A34.58,34.58,0,0,1,806.88,639c9.62,5,9.62,13,0,18s-25.22,5-34.84,0a14.27,14.27,0,0,1-6.33-5.65l-66.47,34.37L840.88,759c11.9,6.15,31.2,6.16,43.1,0l141.64-73.23Z" transform="translate(-449.78 -187)"/><path class="cls-3" d="M979.86,639.48c-.74,2.62-3,5.14-6.92,7.15a38.06,38.06,0,0,1-15.86,3.69l6,3.12a33.45,33.45,0,0,0,9.82-3.1C978.67,647.38,981,643.33,979.86,639.48Z" transform="translate(-449.78 -187)"/><path class="cls-3" d="M884,759c-11.9,6.16-31.2,6.16-43.1,0L699.24,685.75v3.71L840.88,762.7c11.9,6.15,31.2,6.15,43.1,0l141.64-73.23v-3.72Z" transform="translate(-449.78 -187)"/><ellipse class="cls-5" cx="212.09" cy="393.34" rx="65.28" ry="33.75"/><path class="cls-4" d="M630.62,234.84s1.42,26.23,3.65,43.87,49.65-13.55,49.65-13.55V245.09Z" transform="translate(-449.78 -187)"/><path class="cls-6" d="M655.88,561.3c.71,1.59,13,15,25.29,18.33,5.34,1.46,8.93,1.65,11.28,1.4a3.34,3.34,0,0,0,3-4.44c-2.12-5.33-8.18-16.43-23.58-23.27C651.07,544.07,655.88,561.3,655.88,561.3Z" transform="translate(-449.78 -187)"/><path class="cls-6" d="M651.78,566.44s4.63,9.73,6.06,17.86c.86,5-2.18,11.41-4.68,15.68a5.46,5.46,0,0,1-8,1.24c-4-3.27-9.13-8.94-10-17.08-1.43-13.71,0-16.1,0-16.1Z" transform="translate(-449.78 -187)"/><path class="cls-7" d="M622.18,400.68a234,234,0,0,0,0,36.43c1.6,19.14,7.34,108.64,8.41,130.17,0,0-.54,6.51,13.56,5.08s13-8.67,13-8.67,19.79-.24,20.41-10.69,20.27-124.73,20.27-165.82Z" transform="translate(-449.78 -187)"/><path class="cls-9" d="M705.1,311.23l9.7,13.44,33.33,36.05a7.12,7.12,0,0,1-5.3,4.22c-3.24.69-31.27-23.26-43.38-33.77a7.69,7.69,0,0,1-1.27-10.58Z" transform="translate(-449.78 -187)"/><path class="cls-8" d="M686.19,256s15.4-.36,20.76,19.58,9.56,44.89,4.89,47c-14,6.23-22.85-1.06-22.85-1.06Z" transform="translate(-449.78 -187)"/><path class="cls-8" d="M690.8,256.88a13.9,13.9,0,0,0-8.32-.41C669.36,259.84,620,272.81,611.9,279c-9.4,7.19,14.08,47.6,13.75,60.85s-2,28.86-3.32,43.26-3.07,22.3,10.08,28.42S668,418,684.84,406.5s13.76-19.32,13.06-27.65-6.43-44.35-5.93-54.57a40.74,40.74,0,0,0,10.31-10.61c4.39-6.7-3.36-19-6.58-27s1.82-17.17.82-23.7C696,259.57,693.61,257.93,690.8,256.88Z" transform="translate(-449.78 -187)"/><path class="cls-3" d="M653.09,284.1l5.6,5.75a3.17,3.17,0,0,1,.9,2.73l-4.9,30.66a3.09,3.09,0,0,0,.67,2.43l12,14.87a1.19,1.19,0,0,0,2-.26l7.35-18.91a3.06,3.06,0,0,0,0-2.21L665.6,290.94a3.08,3.08,0,0,1-.11-1.92l2-7.37Z" transform="translate(-449.78 -187)"/><path class="cls-3" d="M675,270.65c1,7.28-6.42,14.13-16.66,15.3S639,282.18,638,274.9s6.42-14.12,16.66-15.3S674,263.37,675,270.65Z" transform="translate(-449.78 -187)"/><path class="cls-9" d="M669.74,271.26c.74,5.2-4.59,10.1-11.9,10.94s-13.85-2.7-14.6-7.9,4.59-10.1,11.9-10.94S669,266.06,669.74,271.26Z" transform="translate(-449.78 -187)"/><path class="cls-9" d="M662.47,254.18s-8.91-6.56-10.66-3.24-3.19,17.58-3.19,17.58l17.69,4.26-2.69-14.45S667.16,255.65,662.47,254.18Z" transform="translate(-449.78 -187)"/><ellipse class="cls-9" cx="213.97" cy="50.16" rx="26.41" ry="23.65"/><path class="cls-10" d="M650.58,255.08c-.16.74-.31,1.54-.45,2.36,1.77,8.22,15.52,11.82,15.52,11.82l-2-10.93s1.67-1.26,1.2-2.53C659.38,254.26,652.54,252.9,650.58,255.08Z" transform="translate(-449.78 -187)"/><ellipse class="cls-9" cx="213.97" cy="50.16" rx="26.41" ry="23.65"/><polygon class="cls-9" points="148.9 150.26 151.86 213.55 162.19 214.5 168.91 157.53 148.9 150.26"/><path class="cls-5" d="M632.63,332c-.55-2.21-5.08-4-5.77-6.89-3.55-14.74-4.4-36.48-4.4-36.48l-2.89,29.69c3.33,8.81,6.2,16.89,6.08,21.58-.2,7.77-.86,16.37-1.64,25.05v0S636.05,345.49,632.63,332Z" transform="translate(-449.78 -187)"/><path class="cls-8" d="M613.87,277.73s-8.26,2.83-12.94,25.55-8.17,45.49.17,48.42,15.3,5.14,17.75-.94,4-35.36,4.27-45.89S623.88,279.82,613.87,277.73Z" transform="translate(-449.78 -187)"/><path class="cls-9" d="M745.65,358.09a22.64,22.64,0,0,1,7.71,4.62,46,46,0,0,1,5.27,6.34c2.57,3.43,4.74,10.86,3.17,11.79s-10.54-12.44-12-9.33,0,6-1.84,6-8.3-13.44-13.38-17.62S745.65,358.09,745.65,358.09Z" transform="translate(-449.78 -187)"/><path class="cls-5" d="M657.1,563.69a44.38,44.38,0,0,0,5.66-.53h0l3.87-139.11Z" transform="translate(-449.78 -187)"/><path class="cls-5" d="M642.15,488.54l-5.5-6.43-57.81-30a7,7,0,0,1-3.35-5.75l0-42.38-3.32-3.88,3.12-1.62h0a2.3,2.3,0,0,1,2.27.12l65.52,34a7,7,0,0,1,3.35,5.75l-.06,46.16A2.53,2.53,0,0,1,645.2,487h0Z" transform="translate(-449.78 -187)"/><path class="cls-5" d="M602.17,464.24l-4.11-2.13L575.52,427l0-23-3.32-3.88,3.12-1.62h0a2.3,2.3,0,0,1,2.27.12l65.52,34a6.38,6.38,0,0,1,2.47,2.59Z" transform="translate(-449.78 -187)"/><path class="cls-5" d="M573.69,401.85l-1.47-1.72,3.12-1.62h0a2.3,2.3,0,0,1,2.27.12l1.16.59Z" transform="translate(-449.78 -187)"/><path class="cls-5" d="M643.72,433a7.26,7.26,0,0,1,2.74,4.94l-6.4,3.31L637,436.45Z" transform="translate(-449.78 -187)"/><path class="cls-7" d="M640,434.21l-65.52-34c-1.85-1-3.36.06-3.36,2.27l0,46.16a7,7,0,0,0,3.35,5.75l65.51,34c1.85,1,3.36-.06,3.36-2.27l.06-46.16A7,7,0,0,0,640,434.21Z" transform="translate(-449.78 -187)"/><path class="cls-3" d="M641,433.68l-65.51-34a2.14,2.14,0,0,0-2.67.22,2.66,2.66,0,0,1,1.68.31l65.52,34a7,7,0,0,1,3.35,5.75l-.06,46.16a2.89,2.89,0,0,1-.69,2.05c1-.18,1.68-1.1,1.68-2.58l.06-46.16A7,7,0,0,0,641,433.68Z" transform="translate(-449.78 -187)"/><polygon class="cls-3" points="176.77 280.32 173.65 278.7 173.65 254.7 176.77 256.31 176.77 280.32"/><polygon class="cls-3" points="169.48 276.55 166.36 274.93 166.36 250.93 169.48 252.54 169.48 276.55"/><polygon class="cls-3" points="162.19 272.78 159.07 271.17 159.07 247.16 162.19 248.77 162.19 272.78"/><path class="cls-9" d="M601.72,400s-2.73,14.77-2.32,19.5,3.24,12.53,5.38,12.37.08-19,3.84-17.15,4.17,5.1,5.88,4-3-17.25-1.73-24.24S601.72,400,601.72,400Z" transform="translate(-449.78 -187)"/><path class="cls-10" d="M673.89,239.23c13.25,4.21,15.82,1.64,16,1.5a21.8,21.8,0,0,0,.27-2.17,21.4,21.4,0,0,0-.88-7.56l-34.37-4.15S660.29,234.9,673.89,239.23Z" transform="translate(-449.78 -187)"/><path class="cls-4" d="M691.06,215c-3.12-2.4-14.39-14.25-34.57-11.45-12.61,1.75-23.25,9.45-25.6,27-1.59,11.84,3.26,23.51,12.2,32.13a10.38,10.38,0,0,0,1.44-.65c5.05-3,5.6-4.62,5.6-4.63l1.11-9a2.63,2.63,0,0,0-2.52-2.49,5.17,5.17,0,0,1-3.69-2c-2.9-3.4-1.56-8.69,4.23-8.89,3-.11,4.21-1.57,4.63-2.95a2.43,2.43,0,0,1,3.1-1.44c6.59,2.14,22.85,6.74,33.31,4.09C703.68,231.37,694.18,217.4,691.06,215Z" transform="translate(-449.78 -187)"/><path class="cls-3" d="M676,249.91l8.08-2s-3.86,5.44-9.49,6.82-6.5-2.88-6.5-2.88Z" transform="translate(-449.78 -187)"/><polygon class="cls-5" points="165.68 231.25 158.79 227.72 161.38 231.5 164.86 232.65 165.68 231.25"/><path class="cls-3" d="M648.33,244.54a2.76,2.76,0,1,1-2.74-2.45A2.6,2.6,0,0,1,648.33,244.54Z" transform="translate(-449.78 -187)"/><ellipse class="cls-11" cx="612.52" cy="385.37" rx="64.15" ry="33.17"/><path class="cls-6" d="M1066.06,554.9c-.71,1.6-13,15.06-25.39,18.42-5.37,1.46-9,1.65-11.34,1.4a3.36,3.36,0,0,1-3-4.46c2.13-5.35,8.21-16.5,23.68-23.37C1070.89,537.6,1066.06,554.9,1066.06,554.9Z" transform="translate(-449.78 -187)"/><path class="cls-6" d="M1070.18,560.07s-4.65,9.77-6.08,17.94c-.88,5,2.18,11.45,4.69,15.74a5.48,5.48,0,0,0,8,1.24c4-3.28,9.17-9,10-17.14,1.43-13.78,0-16.18,0-16.18Z" transform="translate(-449.78 -187)"/><path class="cls-7" d="M1099.9,393.6a234.58,234.58,0,0,1,0,36.59c-1.61,19.22-7.37,109.1-8.44,130.72,0,0,.54,6.54-13.62,5.1s-13-8.71-13-8.71-19.87-.24-20.5-10.73S1024,421.31,1024,380Z" transform="translate(-449.78 -187)"/><path class="cls-5" d="M1064.83,557.3a45.64,45.64,0,0,1-5.68-.52h0l-3.89-139.71Z" transform="translate(-449.78 -187)"/><path class="cls-8" d="M1078.89,266.11C1111,278,1110.35,295,1110.35,295s-6.29,62.31-4.15,103.92c.9,17.39-103.2,18.72-87.67-27.69,18.3-54.71,11.44-99,20-105.69S1070.58,263,1078.89,266.11Z" transform="translate(-449.78 -187)"/><path class="cls-9" d="M1089.21,281.18c-1.67,5.84-10.21,8.91-19.07,6.87s-14.67-8.43-13-14.27,10.22-8.91,19.08-6.87S1090.89,275.34,1089.21,281.18Z" transform="translate(-449.78 -187)"/><path class="cls-3" d="M1075.55,290.48a26.42,26.42,0,0,1-5.91-.68c-9.92-2.29-16.4-9.68-14.45-16.47,1-3.39,3.83-6.1,8-7.62a24.37,24.37,0,0,1,13.48-.55,22.39,22.39,0,0,1,11.51,6.32c2.87,3.15,3.91,6.75,2.94,10.15h0C1089.61,287.05,1083.14,290.48,1075.55,290.48Zm-4.82-22.4a17.63,17.63,0,0,0-6,1c-3,1.07-5,2.91-5.64,5.16-1.4,4.86,3.78,10.28,11.54,12.07s15.23-.71,16.62-5.57h0c.65-2.26-.11-4.73-2.15-7a18.23,18.23,0,0,0-9.39-5.1A22.11,22.11,0,0,0,1070.73,268.08Z" transform="translate(-449.78 -187)"/><path class="cls-9" d="M1066,264.81s.28,1.16-.27,10.27c-.18,2.86,11,5.54,13.91,2.94s1.74-5.29,2.44-15S1066,264.81,1066,264.81Z" transform="translate(-449.78 -187)"/><path class="cls-10" d="M1082.09,263s-2.76,9-16.36,12.5l.21-8.21Z" transform="translate(-449.78 -187)"/><path class="cls-9" d="M1090.7,240c3.41,11.83-4.53,23.9-17.74,27s-26.7-4.05-30.11-15.89,4.52-23.9,17.74-27S1087.28,228.19,1090.7,240Z" transform="translate(-449.78 -187)"/><path class="cls-10" d="M1072.45,246.38s-13.61,5.22-23,5.28-7.34-7-7.34-7l28-3.62Z" transform="translate(-449.78 -187)"/><path class="cls-4" d="M1046.61,247.75s11.85-4.5,22.25-2.62a11.21,11.21,0,0,1,6.29,3.34,3.73,3.73,0,0,0,1.9,1.23c1.84.37,4.86-6.48,8.44-6.63s6,2.11,3,6.33-2,8.93-.59,9.6,15.69-9.16,3-31.6-44.78-10.35-49.78-5.8c0,0-5.27,4.1-9.55.45C1031.65,222.05,1026.85,254.24,1046.61,247.75Z" transform="translate(-449.78 -187)"/><path class="cls-9" d="M1022.83,261l-17.26-6.67a7.18,7.18,0,0,1-4.21-4.06L984.31,206l-7.89,1.23,13.78,55a9.45,9.45,0,0,0,5,6.07L1024,282.84Z" transform="translate(-449.78 -187)"/><path class="cls-9" d="M1202.45,268.2l4-1.62a32.19,32.19,0,0,0,9.09-5.63l2.76-2.44a4.43,4.43,0,0,0,1.17-5.26h0a3.09,3.09,0,0,0-4-1.33l-8.28,3.74s1.3-3.28.67-4.13-7,5.48-10,10S1202.45,268.2,1202.45,268.2Z" transform="translate(-449.78 -187)"/><path class="cls-9" d="M1133.55,285.9l14.77-1.48a28.19,28.19,0,0,0,9.92-2.88l39.56-20.05,4.65,6.71-40.45,28a19.14,19.14,0,0,1-4.06,2.13l-24.12,9.24Z" transform="translate(-449.78 -187)"/><path class="cls-9" d="M976.42,207.27l-1.51-1.56a11.89,11.89,0,0,1-3.25-6.33l-1-6.46a5.27,5.27,0,0,1,2.37-5.25l.2-.13a3.92,3.92,0,0,1,5.47,1.6l3.55,7.69s-1.12-4,.32-4.43c1.05-.32,3,4.62,1.86,7.37s-.07,6.27-.07,6.27Z" transform="translate(-449.78 -187)"/><path class="cls-3" d="M1057,260.8l-6.38-1.57s3,4.29,7.49,5.39,5.14-2.28,5.14-2.28Z" transform="translate(-449.78 -187)"/><path class="cls-8" d="M1047.4,262.38s-28.84-5.1-37.65-7.5-12.48,19.27-11.81,24.76,30.65,11.61,34.22,21S1047.4,262.38,1047.4,262.38Z" transform="translate(-449.78 -187)"/><path class="cls-8" d="M1091.49,271.89s21.08,8.1,56.35,12a3.76,3.76,0,0,1,3.14,2.23c1.36,3.5,3.68,11.14,1.87,19-.75,3.24-4,5.51-7.72,5.49-11-.07-34.8.88-38.66,10.12C1101.42,332.87,1091.49,271.89,1091.49,271.89Z" transform="translate(-449.78 -187)"/><path class="cls-3" d="M1079.09,288.91l-5.78,5.62a3.18,3.18,0,0,0-1,2.7l4,30.77a3.1,3.1,0,0,1-.74,2.42L1063.12,345a1.18,1.18,0,0,1-2-.31l-6.77-19.08a3.07,3.07,0,0,1,.07-2.21l11.91-27.94a3.09,3.09,0,0,0,.17-1.92l-1.74-7.41Z" transform="translate(-449.78 -187)"/><path class="cls-5" d="M1142.22,304.91c-6.31.66-21.79,1.85-33.7,2.74-6.82.51-11.35,6.4-9.63,12.34,6.35,21.82-2.05,56.91-.54,68.78,1.82,14.22-7.8,19.71-7.85,19.74,9.5-1.84,15.93-5.2,15.71-9.57-1.32-25.56.54-58.9,2.17-80.84,6.94-6.78,27-7.53,36.87-7.46a7.59,7.59,0,0,0,7.64-5.66,29.79,29.79,0,0,0,.11-11.51C1153,293.69,1153,303.79,1142.22,304.91Z" transform="translate(-449.78 -187)"/><ellipse class="cls-2" cx="421.15" cy="501.85" rx="75.93" ry="39.26"/><path class="cls-6" d="M824.4,668a12.82,12.82,0,0,0-8.18,13c.21,2.68.57,5.17,1.19,6.35,1.69,3.16,7.2,7.5,16,4.39s28.36-19.57,29.09-30.34C863.87,641.41,838.33,662.71,824.4,668Z" transform="translate(-449.78 -187)"/><path class="cls-6" d="M876.13,701.13s-2.11,11.53-1.08,13.65,7.15,6.62,16.2,5.65,35.1-9,40.91-24.39c9-23.83-50.28,1.79-50.28,1.79Z" transform="translate(-449.78 -187)"/><path class="cls-7" d="M901.58,516.74l2,180.06a13,13,0,0,1-11,12.48c-.76.12-1.58.21-2.45.28-6.24.49-9.87-1.91-12-4.43a12.34,12.34,0,0,1-2.69-7.27L873,621l-12.82-68.73L842.45,673.91a10.28,10.28,0,0,1-4.87,8,14.85,14.85,0,0,1-8.08,2,15.51,15.51,0,0,1-10.75-4.74,9.1,9.1,0,0,1-2.57-6.51l7-73.19,2.62-93.35Z" transform="translate(-449.78 -187)"/><path class="cls-9" d="M875.55,355.56,872.37,372s-.12,5.6,6.86,7.15,9.14-2.49,9.14-2.49l3.15-18.47Z" transform="translate(-449.78 -187)"/><ellipse class="cls-9" cx="888.74" cy="339.35" rx="27.5" ry="25.75" transform="translate(-465.41 447.51) rotate(-38.97)"/><path class="cls-8" d="M876.38,372.27c-.49-.18-29.62-17-40.39.6-17.55,28.66-4.71,61.53-11,132.87-1,11.94,18,19.22,26.92,23.81a58.57,58.57,0,0,0,26.13,6.66c9.11.06,26.56-7.18,25.93-17.84-2.92-49,1.92-90.33,6.39-130.41C910.38,388,904.8,382.57,876.38,372.27Z" transform="translate(-449.78 -187)"/><path class="cls-5" d="M860.18,552.27,842.45,673.91a10.28,10.28,0,0,1-4.87,8,13.29,13.29,0,0,1-1.51.76c3.68-2.47,14.42-104.57,16.41-115.92S860.18,552.27,860.18,552.27Z" transform="translate(-449.78 -187)"/><polygon class="cls-9" points="521.05 200.12 545.44 156.77 537.79 152.44 512.51 185.46 521.05 200.12"/><polygon class="cls-9" points="360.18 154.09 372.05 105.75 381.5 105.85 377.95 145.93 360.18 154.09"/><path class="cls-8" d="M910.38,388s27.28,9.63,50.72-16.85c2.06-2.33,6.3-2.07,7.53.45,2.11,4.34,4.75,10.89,1.54,17.05C956,415.83,907.68,414.88,896,430.14S910.38,388,910.38,388Z" transform="translate(-449.78 -187)"/><path class="cls-8" d="M857.9,366.25s-22.52,1.55-25.77-15.91a119.23,119.23,0,0,1-2.26-17.45,3.82,3.82,0,0,0-4.42-3.43c-5.39.6-13.74,2.05-14.87,5.28-1.7,4.84-4.88,28.54,17.37,64.92C842.52,423.49,857.9,366.25,857.9,366.25Z" transform="translate(-449.78 -187)"/><path class="cls-9" d="M821.78,292.87l.22-5.51a10.45,10.45,0,0,1,1.84-5.5l6.23-9.18,1.63-1.83a5.12,5.12,0,0,1,6.24-1l1.43.81a5.15,5.15,0,0,1,2.75,4.81l-3.23,7.84,4.08-.71a1.44,1.44,0,0,1,1.7,1h0a1.29,1.29,0,0,1-.88,1.44l-6.67,2.4-6,7.68Z" transform="translate(-449.78 -187)"/><path class="cls-9" d="M995.4,344l2.85-4.88a10.35,10.35,0,0,0,1.44-5.6l-.36-10.74-.4-2.32a4.64,4.64,0,0,0-4.89-3.59l-1.7.07a6,6,0,0,0-5,3l-1.53,8.24-3.15-2.42a1.57,1.57,0,0,0-2.06.16h0a1.18,1.18,0,0,0,0,1.63l4.46,5,1.16,10.51Z" transform="translate(-449.78 -187)"/><path class="cls-5" d="M892.59,424.69c-2.37,9.68,11.92,82.7-4,109.41,7.94-2.88,15.79-8.52,15.36-15.73-2.09-35.05-.2-66.15,2.68-95.7,13.58-6.16,34.8-9.83,49.81-19.68C940.38,408.31,894.71,416,892.59,424.69Z" transform="translate(-449.78 -187)"/><path class="cls-3" d="M865.9,367.63l4.05-3.72s6.65,6.09,12,7.15a69,69,0,0,0,9.58,1.77l2.61,6.43S872.94,377.9,865.9,367.63Z" transform="translate(-449.78 -187)"/><path class="cls-6" d="M895,347a3.55,3.55,0,0,0,2.79-1.29c1.11-1.44.41-8,3.81-9.12,5.33-1.7,18,4.27,19.32-12.94.7-8.94-4.16-11.32-4.14-16.22,0,0,.42,2.46-25.28.93s-34,18.91-34.66,28.64,4.65,25.74,22.22,27.94c2.91.36,15.14-8.45,14.82-9.6s-4.93-1.09-4.26-4.46C890.18,348.09,892.09,347.06,895,347Z" transform="translate(-449.78 -187)"/><path class="cls-8" d="M526.32,456.06,461.41,422.5a3.65,3.65,0,0,0-3.35-.24v0l-6.29,3.26,4.42,1.45v42.32a10.93,10.93,0,0,0,5.22,8.94l62,32.07v5l6.36-3.28h0a4,4,0,0,0,1.77-3.73V465A10.92,10.92,0,0,0,526.32,456.06Z" transform="translate(-449.78 -187)"/><path class="cls-7" d="M519.91,515.05,455,481.5a10.93,10.93,0,0,1-5.22-8.94V429.35c0-3.45,2.34-5,5.22-3.54l64.91,33.56a10.92,10.92,0,0,1,5.22,8.93v43.22C525.13,515,522.79,516.54,519.91,515.05Z" transform="translate(-449.78 -187)"/><path class="cls-3" d="M519.91,459.37,455,425.81c-1.64-.85-3.08-.67-4,.24a4.29,4.29,0,0,1,2.3.53l64.91,33.55a10.93,10.93,0,0,1,5.22,8.94v43.21a4.43,4.43,0,0,1-1.18,3.3c1.72-.13,2.92-1.61,2.92-4.06V468.3A10.92,10.92,0,0,0,519.91,459.37Z" transform="translate(-449.78 -187)"/><path class="cls-3" d="M476.83,466.6c0,2.5-2,3.52-4.38,2.27a8.53,8.53,0,0,1-4.38-6.79c0-2.5,2-3.52,4.38-2.27A8.53,8.53,0,0,1,476.83,466.6Z" transform="translate(-449.78 -187)"/><path class="cls-3" d="M490.09,473.46c0,2.5-2,3.52-4.37,2.27a8.53,8.53,0,0,1-4.38-6.8c0-2.5,2-3.51,4.38-2.26A8.54,8.54,0,0,1,490.09,473.46Z" transform="translate(-449.78 -187)"/><path class="cls-3" d="M503.36,480.32c0,2.5-2,3.52-4.38,2.27a8.55,8.55,0,0,1-4.38-6.8c0-2.5,2-3.51,4.38-2.26A8.53,8.53,0,0,1,503.36,480.32Z" transform="translate(-449.78 -187)"/><polygon class="cls-1" points="44.82 620.17 1.07 597.55 44.82 574.93 88.58 597.55 44.82 620.17"/><polygon class="cls-2" points="88.58 568.83 44.82 591.45 44.82 546.21 88.58 523.59 88.58 568.83"/><polygon class="cls-4" points="44.82 546.21 1.07 523.59 44.82 500.96 88.58 523.59 44.82 546.21"/><polygon class="cls-4" points="44.82 591.45 1.07 568.83 1.07 523.59 44.82 546.21 44.82 591.45"/><polygon class="cls-3" points="29.07 567.01 16.83 560.68 16.83 548.03 29.07 554.35 29.07 567.01"/><polygon class="cls-1" points="752.67 644.72 707.12 621.16 752.67 597.61 798.22 621.16 752.67 644.72"/><polygon class="cls-6" points="798.22 591.26 752.67 614.81 752.67 567.71 798.22 544.16 798.22 591.26"/><polygon class="cls-7" points="752.67 567.71 707.12 544.16 752.67 520.61 798.22 544.16 752.67 567.71"/><polygon class="cls-8" points="752.67 614.81 707.12 591.26 707.12 544.16 752.67 567.71 752.67 614.81"/><polygon class="cls-3" points="736.26 589.37 723.52 582.78 723.52 569.61 736.26 576.2 736.26 589.37"/><path class="cls-2" d="M1232,455.3l-63.46-32.81a3.57,3.57,0,0,0-3.28-.24v0l-6.16,3.18,4.33,1.42V468.2a10.68,10.68,0,0,0,5.1,8.73l60.65,31.36v4.86l6.22-3.21h0a3.91,3.91,0,0,0,1.72-3.65V464A10.65,10.65,0,0,0,1232,455.3Z" transform="translate(-449.78 -187)"/><path class="cls-4" d="M1225.71,513l-63.46-32.8a10.68,10.68,0,0,1-5.1-8.74V429.18c0-3.37,2.28-4.91,5.1-3.46l63.46,32.81a10.68,10.68,0,0,1,5.1,8.74v42.25C1230.81,512.89,1228.53,514.43,1225.71,513Z" transform="translate(-449.78 -187)"/><path class="cls-3" d="M1227.27,457.53l-63.46-32.81c-1.79-.92-3.35-.64-4.26.55a4,4,0,0,1,2.7.45l63.46,32.81a10.68,10.68,0,0,1,5.1,8.74v42.25a4.67,4.67,0,0,1-.84,2.9c1.44-.33,2.4-1.73,2.4-3.91V466.26A10.66,10.66,0,0,0,1227.27,457.53Z" transform="translate(-449.78 -187)"/><path class="cls-3" d="M1183.59,465.61c0,2.44-1.91,3.43-4.28,2.21a8.34,8.34,0,0,1-4.28-6.64c0-2.44,1.92-3.44,4.28-2.21A8.32,8.32,0,0,1,1183.59,465.61Z" transform="translate(-449.78 -187)"/><path class="cls-3" d="M1196.56,472.31c0,2.45-1.91,3.44-4.28,2.22a8.37,8.37,0,0,1-4.28-6.64c0-2.45,1.92-3.44,4.28-2.22A8.35,8.35,0,0,1,1196.56,472.31Z" transform="translate(-449.78 -187)"/><path class="cls-3" d="M1209.53,479c0,2.44-1.91,3.44-4.28,2.21a8.34,8.34,0,0,1-4.28-6.64c0-2.44,1.92-3.43,4.28-2.21A8.32,8.32,0,0,1,1209.53,479Z" transform="translate(-449.78 -187)"/></svg>