<svg id="Layer_1" data-name="Layer 1" xmlns="http://www.w3.org/2000/svg" viewBox="0 0 570.05 488.52"><defs><style>.cls-1{fill:#ff7b5b;}.cls-2{fill:#d6d3d3;}.cls-3{fill:#f4f2f2;}.cls-4{fill:#785298;}.cls-5{fill:#f2a682;}.cls-6{fill:#112129;}.cls-7{fill:#22343d;}.cls-8{fill:#ffc5b1;}.cls-9{fill:#fff;}.cls-10{fill:#ffb19f;}.cls-11{fill:#ffa091;}.cls-12{fill:#654286;}</style></defs><title>fun</title><polygon class="cls-1" points="129.8 373.25 128.26 369.97 85.47 404.19 104.14 435.85 146.74 398.25 129.8 373.25"/><polygon class="cls-2" points="87.26 404.92 103.66 434.61 104.71 434.12 90.11 406.36 87.26 404.92"/><path class="cls-3" d="M758.91,744.08l-41.7,32.33a1.94,1.94,0,0,0,1.21,1.12,3.37,3.37,0,0,0,1.64.32l43.83-31.4a12.73,12.73,0,0,1-3.44-1.34A11.36,11.36,0,0,0,758.91,744.08Z" transform="translate(-629.95 -371.48)"/><path class="cls-1" d="M765,745.18l-45.68,31.94,14.83,29.43,2.39,4.08,45.69-35.39s-4.81-7.52-7.7-12.06-8.56-15.24-8.87-15.93A16.58,16.58,0,0,1,765,745.18Z" transform="translate(-629.95 -371.48)"/><polygon class="cls-4" points="511.78 153.19 513.07 150.43 549.01 179.16 533.33 205.75 497.56 174.18 511.78 153.19"/><polygon class="cls-2" points="547.5 179.78 533.73 204.71 532.85 204.3 545.11 180.99 547.5 179.78"/><path class="cls-3" d="M1142.44,524.12l35,27.14a1.58,1.58,0,0,1-1,1,2.78,2.78,0,0,1-1.38.26l-36.8-26.36a10.86,10.86,0,0,0,2.89-1.12A9.42,9.42,0,0,1,1142.44,524.12Z" transform="translate(-629.95 -371.48)"/><path class="cls-4" d="M1137.36,525l38.36,26.82-12.46,24.72-2,3.42-38.36-29.72,6.47-10.12c2.42-3.81,7.18-12.8,7.44-13.38A14.3,14.3,0,0,0,1137.36,525Z" transform="translate(-629.95 -371.48)"/><path class="cls-1" d="M708.66,472.94a4.42,4.42,0,0,0-1.36,5.25c1.36,3.27,7.31,13,15.34,12.67.33,0-10.12-17.92-10.12-17.92Z" transform="translate(-629.95 -371.48)"/><path class="cls-4" d="M696.37,652.15s-10-9.4-13.27-7.71c-3.93,2-26.42,25.12-25.54,36,.36,4.45,5.31.64,14.13-8.94A19.08,19.08,0,0,1,691.63,666Z" transform="translate(-629.95 -371.48)"/><path class="cls-4" d="M720.78,668l-12.13-7.61s-31.44,30.85-26.53,35c3.73,3.12,5.92.32,14.74-9.26s20-4.07,20-4.07Z" transform="translate(-629.95 -371.48)"/><polygon class="cls-5" points="164.93 195 167.2 228.81 116.71 215.04 164.93 195"/><path class="cls-6" d="M746.66,587.69s44.17,2.92,50.05.86c0,0,8.63,88.76-6.73,98.33s-49.82-4.44-49.82-4.44l9.3-19.16,20.07-1.37v-34.2l-1.44.34Z" transform="translate(-629.95 -371.48)"/><path class="cls-7" d="M691.29,648.23s-11.11,4.79-7.51,16.42c0,0,37.92,31.13,56.38,23.94,10.33-4,21.44-34.72,29.21-61l27.34-39.09s-12.89.68-17.2.66c-8.22,0-32.85-1.52-32.85-1.52s-12.87,70.46-17.45,72.17S691.29,648.23,691.29,648.23Z" transform="translate(-629.95 -371.48)"/><path class="cls-8" d="M757,499.32s26.47-26,31-32.84,14.38-29.76,26.47-39.33l-5.88-13s3.59-2,5.88,3.42c0,0,8.49-17.79,10.45-17.44S821,413.81,821,413.81s8.18-12.32,10.46-12-5.88,13.84-5.88,13.84,9.15-11.11,10.46-9.74-7.19,9.74-7.19,9.74S838,410.18,839,412s-9.15,6.61-9.15,6.61-1,7.86-7.19,11.28c0,0-12.29,34.77-23.41,46.05l-35.69,38.83Z" transform="translate(-629.95 -371.48)"/><path class="cls-8" d="M725.35,512.79S700.27,540.25,693.69,545s-28.56,14.77-37.82,27.33L643.51,566s-2,3.75,3.21,6.19c0,0-17.07,8.73-16.76,10.79s13.1-4,13.1-4-11.84,8.44-11.53,10.83,13.28-6,13.28-6-10.7,9.48-9.4,10.86,9.37-7.44,9.37-7.44-5.34,9.53-3.62,10.57,6.4-9.51,6.4-9.51,7.52-.95,10.85-7.42c0,0,31.46-13.1,42.35-24.63l39.14-29Z" transform="translate(-629.95 -371.48)"/><path class="cls-9" d="M734.76,501.85l-12.69,13,3.22,14.66s12.5,31.4,14.39,39.06c2.93,11.92-1.82,30.08-1.82,30.08s21.19-1.84,40.47-2.52,25.58-7.19,25.58-7.19-16.71-58.27-28.25-74.55S759.92,493,759.92,493l-17,3.89Z" transform="translate(-629.95 -371.48)"/><path class="cls-9" d="M772,512.45l13.22-8.84s2-9.47-13.93-20.64l-18.69,12.26Z" transform="translate(-629.95 -371.48)"/><path class="cls-9" d="M724.75,513.82c-7.25,1.06-20.49,20.28-22,20.25,0,0,9.32,15.91,16.7,16.43C719.48,550.5,752,509.82,724.75,513.82Z" transform="translate(-629.95 -371.48)"/><path class="cls-8" d="M750.32,501.31s-10.53-8.24-10.16-11.52c.09-.83,1.55-2.17,1.93-3.36,2-6.42-7.81-22.94-13.86-26.42-4.76-2.74-2.67-3-12.68,3.25s-4.31,17,.16,22.57c4.23,5.27,9.07,7.52,13.43,7.9l6.19,14.41Z" transform="translate(-629.95 -371.48)"/><path class="cls-8" d="M731.32,512.74c-2-5.11,1.78-11.55,8.43-14.39s13.64-1,15.64,4.12-4.7,12.8-8.43,14.39S733.31,517.85,731.32,512.74Z" transform="translate(-629.95 -371.48)"/><path class="cls-8" d="M715.71,485.83s-3.42-.2-3.8,2.19,6.27,2.38,8.73.59Z" transform="translate(-629.95 -371.48)"/><path class="cls-1" d="M717.42,488c-.65-4.31-5-7.51-4.82-11.71,2.1,0,3.45-2.71,2.5-5-.38-.92-1-1.7-1.42-2.6s-.52-2.09.1-2.6a2,2,0,0,1,1.08-.32c3.12-.33,8.46.64,11.32-.47s5.66-3.12,5.37-6.62c-.24-3.05-2.82-5.52-5.18-7.38-1.35-1.07-5.22-3.87-6.68-3.62-2.22.39-2.76,3.5-2.93,6.1a3.75,3.75,0,0,0-5.21,0c-1.35,1.26-2,3.27-2.58,5.21s-1.22,3.95-2.55,5.24-3.22,2.1-3,4.15c.3,2.43,3.34,3.29,4.74,5.37-.34-.51-.63,2.73-.44,3.29.6,1.65,2.1,2.75,3.18,4C713.24,483.71,714.37,486.44,717.42,488Z" transform="translate(-629.95 -371.48)"/><path class="cls-9" d="M736.5,478.17l-7.78,4.21S738.07,489.48,736.5,478.17Z" transform="translate(-629.95 -371.48)"/><path class="cls-10" d="M725.79,479.84c.43.84-.2,2.07-1.4,2.73s-2.52.51-2.95-.33.21-2.07,1.41-2.73S725.37,479,725.79,479.84Z" transform="translate(-629.95 -371.48)"/><path class="cls-10" d="M737.16,471.71c.42.85-.21,2.07-1.41,2.73s-2.52.52-2.94-.33.2-2.07,1.4-2.73S736.73,470.87,737.16,471.71Z" transform="translate(-629.95 -371.48)"/><path class="cls-1" d="M731.07,477.87c0-.05.11-.25.44-.5a8.59,8.59,0,0,0,1.3-1c.41-.45.56-1.4-.07-1.53s-1.4.55-2.25,1.3l-.63.54a1.31,1.31,0,0,1-1,.4,2.27,2.27,0,0,1-1.45-1.07,7.52,7.52,0,0,1-1.21-2.45,3.78,3.78,0,0,1-.13-2.48c.14,0,.19.93.72,2.27a8.37,8.37,0,0,0,1.25,2.12c.28.36.64.7.89.71s.19,0,.4-.21l.61-.54c.43-.36.8-.73,1.29-1.07A2,2,0,0,1,733,474a1.42,1.42,0,0,1,.92,1.53,2.17,2.17,0,0,1-.64,1.28,4.94,4.94,0,0,1-1.58.86C731.31,477.83,731.11,477.92,731.07,477.87Z" transform="translate(-629.95 -371.48)"/><path class="cls-11" d="M729.14,493.73s5,0,7.66-1.7a11.46,11.46,0,0,1-6.84,3.69Z" transform="translate(-629.95 -371.48)"/><path class="cls-7" d="M731.29,470.43c0,.26-.74.34-1.47.67s-1.28.79-1.49.64.14-1,1.14-1.49S731.36,470.19,731.29,470.43Z" transform="translate(-629.95 -371.48)"/><path class="cls-7" d="M721.56,477.11c-.19-.15.11-1,.82-1.82s1.65-1.14,1.75-.9-.46.77-1.1,1.52S721.76,477.27,721.56,477.11Z" transform="translate(-629.95 -371.48)"/><path class="cls-1" d="M717.79,475.82c-.4-.31-.72-1.65.82-3.45s3.29-1.52,3.5-1-.35,1.21-1.72,2.83S718.22,476.16,717.79,475.82Z" transform="translate(-629.95 -371.48)"/><path class="cls-1" d="M726,468.73c-.22-.44,0-1.71,2-2.59s3.38.09,3.36.62-.77.88-2.55,1.69S726.2,469.2,726,468.73Z" transform="translate(-629.95 -371.48)"/><path class="cls-4" d="M1153.07,481.35c.13.13-2,2.67-6.5,5.44a37.54,37.54,0,0,1-38.83.3c-4.51-2.7-6.7-5.2-6.57-5.34s2.64,1.86,7.15,4.18a39.94,39.94,0,0,0,37.65-.29C1150.46,483.26,1152.88,481.1,1153.07,481.35Z" transform="translate(-629.95 -371.48)"/><path class="cls-4" d="M1104.27,477.51c-.13.28-2.51-.76-6.54-1.69a64.94,64.94,0,0,0-7.14-1.23c-2.72-.32-5.73-.57-8.9-.81s-6.22-.5-9-.85a56.34,56.34,0,0,1-7.28-1.42c-4.11-1.12-6.43-2.45-6.35-2.64s2.55.59,6.61,1.36c2,.4,4.48.72,7.2,1s5.74.48,8.92.71,6.23.54,9,1a48.51,48.51,0,0,1,7.25,1.65C1102.11,475.85,1104.36,477.33,1104.27,477.51Z" transform="translate(-629.95 -371.48)"/><path class="cls-4" d="M1055.88,422.88c7.62-1.69,15.52-.23,23.21,1.11s15.68,2.55,23.2.39c13.57-3.9,23.88-18.25,38-18.14,5.8.05,11.27,2.64,16.91,4,7,1.7,14.32,1.52,21.42,2.74s14.45,4.2,18.46,10.45c4.77,7.43,3.46,17.9-1.54,25.15s-13,11.66-21.2,14.16c-5.72,1.75-11.82,2.76-16.77,6.23s-8.28,9.17-12.94,13.16c-11.71,10-29.93,7.15-42-2.36-3-2.38-5.86-5.16-9.27-6.9-13.88-7.12-33.85,2.3-45.81-10.64C1035.34,449.09,1037.07,427.06,1055.88,422.88Z" transform="translate(-629.95 -371.48)"/><path class="cls-10" d="M1052.07,677.45s12.72,28.53,14.2,23.25,1-18,.2-19.79-6-9.82-6-9.82Z" transform="translate(-629.95 -371.48)"/><path class="cls-8" d="M1144.05,446.66c1.18,1.58.39-.11,1.73,2.16,5.54-.2,9.25-5.11,9.25-5.11s8.8.25,8.69-1.4-8.42-1-8.42-1,8.81-2.89,8.32-4.34S1153,440.1,1153,440.1s10.26-6.66,8.75-7.73-11.39,4.75-11.39,4.75,8.58-7.38,7.29-8.33-13.18,8.65-13.18,8.65c.17-4.72-3.07-4.56-3.07-4.56l.13,11.54A20.06,20.06,0,0,1,1144.05,446.66Z" transform="translate(-629.95 -371.48)"/><path class="cls-8" d="M1013.72,394.46c-1.88.36-.42-.33-2.86.45-4-4-3.48-10.29-3.48-10.29s-6.73-5.93-5.61-7.09,7,5.09,7,5.09-4.75-8.29-3.48-9,6,9.77,6,9.77-3.44-12.12-1.63-11.86,5.5,11.47,5.5,11.47-1.73-11.48-.17-11.3,4.38,15.63,4.38,15.63c2.86-3.65,5.18-1.28,5.18-1.28l-7.27,8.37A26,26,0,0,0,1013.72,394.46Z" transform="translate(-629.95 -371.48)"/><path class="cls-8" d="M1059.36,442.64c-2.43-.42-8.32,3.67-11.26,10.34a17.29,17.29,0,0,0-.89,13.6c.89,2.86,2.75,3.21,3.17,4.49.53,1.62-1.22,6.73-1.22,6.73l6.95,2.93c.45-3.5,1-7,4.38-8.56a36.24,36.24,0,0,0,3.85-1.65c3.25-1.95,5-6.22,6.32-9.72C1071.66,458.19,1065.46,443.69,1059.36,442.64Z" transform="translate(-629.95 -371.48)"/><path class="cls-10" d="M1051.09,541.76l-11.63-4.88s-34.53,67-34.39,85.61,47.43,55.82,47.43,55.82l8-7.22s-14.6-26.64-22.4-36S1051.09,541.76,1051.09,541.76Z" transform="translate(-629.95 -371.48)"/><path class="cls-8" d="M1108.86,618.1s25.64-12.73,20.49-13.85-17.21.42-18.86,1.4-8.87,7.05-8.87,7.05Z" transform="translate(-629.95 -371.48)"/><path class="cls-8" d="M1062.52,541.18l-17.65,6.72s-17.65,81.28-10.91,94,25.66,4.31,52.62-11.09l22.58-12.9-7.54-5.25s-26.27,5.39-33.65,10.77c0,0,3.85-11.42,9-27.54S1085.63,563.35,1062.52,541.18Z" transform="translate(-629.95 -371.48)"/><path class="cls-8" d="M1040.8,485.81c0-5.4,1.66-9.3,6.82-9.3s12.29,1.89,12.29,7.29-4.07,14.17-9.23,14.17S1040.8,491.21,1040.8,485.81Z" transform="translate(-629.95 -371.48)"/><path class="cls-8" d="M1044.87,475.73s-16-18.17-19.25-36-8.66-46.68-8.66-46.68l-6.1,1.83s-2.89,39.48,0,45.52,17,46.29,21.29,56.86Z" transform="translate(-629.95 -371.48)"/><path class="cls-8" d="M1062.11,489.89s1.23-5.65,21.52-13.33S1142.19,444,1142.19,444l3.81,4.57s-20.79,25.14-32.89,29.55-37.79,21.8-40.44,23.19C1068.67,503.4,1068.72,506.05,1062.11,489.89Z" transform="translate(-629.95 -371.48)"/><path class="cls-7" d="M1044.87,475.73s-16.3,5.53-16.3,31.49c0,0,0,35.55,3.85,42a32.75,32.75,0,0,0,14,0c8.17-1.76,16.07-8.06,16.07-8.06l12.82-40.29L1073.81,482l-17.43-3.53s5,24.46-13.1,13.95c-3.51-2.05,5.18-15.92,5.18-15.92Z" transform="translate(-629.95 -371.48)"/><path class="cls-7" d="M1031.08,496.84l-8-17.51s1.15-10.62,15.89-14.43c0,0,1.49,5.35,3.13,7.4s6.39,4.22,6.39,4.22Z" transform="translate(-629.95 -371.48)"/><path class="cls-7" d="M1061.44,503.88l25.54-5.47s4.44-9.63-6.09-21.09c0,0-19.92,1.26-22.49,1.49s-.8,2.26-.8,2.26Z" transform="translate(-629.95 -371.48)"/><path class="cls-7" d="M1032.38,540.58s-24.15,46.75-28.14,55.1c0,0,71.26,34.26,100.19-7,0,0-16.46-36.46-41.9-50.33h0l-11-3.44-18.75,5.43" transform="translate(-629.95 -371.48)"/><path class="cls-8" d="M1069.73,460.36s2.75-2.88,4.44-.89-6.13,4.88-6.13,4.88Z" transform="translate(-629.95 -371.48)"/><path class="cls-4" d="M1120.06,421.08a8.85,8.85,0,0,1-3.06,1.08,40.45,40.45,0,0,1-8.76,1.06,83.93,83.93,0,0,1-13-1c-4.86-.67-10.13-1.67-15.68-2.3A57.09,57.09,0,0,0,1064,420a33.93,33.93,0,0,0-11.93,4.29,26.62,26.62,0,0,0-6.63,5.62c-1.34,1.6-2,2.62-2.08,2.53a8.31,8.31,0,0,1,1.54-3,24.27,24.27,0,0,1,6.52-6.29,33.34,33.34,0,0,1,12.31-4.85,54.93,54.93,0,0,1,16-.23c5.64.65,10.92,1.69,15.72,2.45a96.94,96.94,0,0,0,12.79,1.34C1115.56,422.12,1120,420.76,1120.06,421.08Z" transform="translate(-629.95 -371.48)"/><path class="cls-1" d="M1055.72,458.73c0,.11-.8.19-2-.23a2.58,2.58,0,0,1-1-.56,1.66,1.66,0,0,1-.4-.61,1.46,1.46,0,0,1,0-1.05c0-.06,0-.2.11-.21h.23a1.52,1.52,0,0,1,.5.06,4.41,4.41,0,0,0,.64.07,4.62,4.62,0,0,0,1.21-.13,5,5,0,0,0,3.29-2.69c.53-1.05.57-1.84.71-1.83s.3.83-.14,2.1a5.35,5.35,0,0,1-1.22,2,5,5,0,0,1-2.44,1.36,4.78,4.78,0,0,1-1.44.13,5.44,5.44,0,0,1-.62-.07c-.09,0-.08,0-.1,0s0,0,0,.06a.89.89,0,0,0,.19.34,2.08,2.08,0,0,0,.69.5C1055,458.43,1055.74,458.59,1055.72,458.73Z" transform="translate(-629.95 -371.48)"/><path class="cls-9" d="M1050,459l9.41,3.88S1051.13,468.88,1050,459Z" transform="translate(-629.95 -371.48)"/><path class="cls-10" d="M1063.41,460.9c-.33.67-1.37.78-2.31.26s-1.44-1.48-1.11-2.14,1.37-.78,2.32-.26S1063.75,460.24,1063.41,460.9Z" transform="translate(-629.95 -371.48)"/><path class="cls-10" d="M1052.91,455.08c-.28.68-1.31.88-2.29.44s-1.54-1.36-1.26-2,1.31-.89,2.29-.44S1053.2,454.39,1052.91,455.08Z" transform="translate(-629.95 -371.48)"/><path class="cls-11" d="M1049.43,469.84s3.3,2.89,6.74,2c0,0-1.19,1.86-5.76,1.17A3.5,3.5,0,0,0,1049.43,469.84Z" transform="translate(-629.95 -371.48)"/><path class="cls-7" d="M1062.51,454.72a.75.75,0,1,1-.75-.78A.76.76,0,0,1,1062.51,454.72Z" transform="translate(-629.95 -371.48)"/><ellipse class="cls-7" cx="425.71" cy="80.93" rx="0.74" ry="0.78"/><path class="cls-4" d="M1064.91,452.64c-.24.1-.68-.46-1.35-.92s-1.33-.69-1.33-1,.91-.45,1.82.19S1065.13,452.57,1064.91,452.64Z" transform="translate(-629.95 -371.48)"/><path class="cls-4" d="M1054.15,448.86c0-.25.79-.56,1.86-.52s1.9.57,1.79.8-.87.14-1.82.12S1054.17,449.12,1054.15,448.86Z" transform="translate(-629.95 -371.48)"/><path class="cls-7" d="M1057.51,689s3.92,14.54,8,13.35,1-21.48,1-21.48l-4-6.67S1066.23,708.21,1057.51,689Z" transform="translate(-629.95 -371.48)"/><path class="cls-7" d="M1106.86,608.44s2.85-3.25,6.3-3.8,15.78-2.07,17.59-.36-10,7.47-10,7.47,4.11-2.74,2.4-3.77C1120.14,606.18,1106.86,608.44,1106.86,608.44Z" transform="translate(-629.95 -371.48)"/><polygon class="cls-7" points="472.02 240.84 475.88 249.05 477.98 247.82 472.84 239.74 472.02 240.84"/><polygon class="cls-7" points="428.84 296.32 419.37 305.26 422.18 307.71 430.13 298.65 428.84 296.32"/><path class="cls-7" d="M860.65,578.8c-2.69-7-3.73-14.8-7.75-21.06-5.79-9-16.9-13.49-21.6-23.18a31.12,31.12,0,0,1-2.64-13.43c0-9.12,2.57-18.83,9.31-24.63,7.74-6.66,19.35-6.57,28.41-2.09s16,12.6,21.87,21.09,11,17.6,17.9,25.25c5.08,5.67,11.11,10.56,14.94,17.22,10.5,18.27-.3,41.38-18.83,48C886,611.74,866.29,593.43,860.65,578.8Z" transform="translate(-629.95 -371.48)"/><path class="cls-8" d="M837.46,707.63c1.61,1.39-.15.43,2.2,2-.53,6.13-5.94,10-5.94,10s-.23,9.76-2,9.56-.63-9.4-.63-9.4-3.57,9.61-5.08,9,4-11.64,4-11.64-7.66,11-8.71,9.29S827,714.08,827,714.08s-8.32,9.13-9.26,7.65,9.92-14.16,9.92-14.16c-5-.06-4.67-3.64-4.67-3.64l12.25.76A21.87,21.87,0,0,0,837.46,707.63Z" transform="translate(-629.95 -371.48)"/><path class="cls-8" d="M954.42,523.56c2.1.39.47-.34,3.19.49,4.46-4.25,3.87-10.92,3.87-10.92s7.49-6.28,6.25-7.51S960,511,960,511s5.29-8.79,3.87-9.58-6.64,10.36-6.64,10.36,3.84-12.85,1.82-12.58-6.12,12.16-6.12,12.16,1.93-12.17.19-12-4.55,16.14-4.55,16.14c-4.1-3.49-7-1.26-7-1.26l9,9.21A32.14,32.14,0,0,1,954.42,523.56Z" transform="translate(-629.95 -371.48)"/><path class="cls-8" d="M903.17,576.87c3.78-.62,15.34,7.21,12.4,23.12-.25,1.34-1.92,4.28-2.33,5.49-.53,1.55,3.56,7.18,3.56,7.18l-10.55,3.53c-.45-3.34.31-8.21-3.1-9.66a34,34,0,0,1-3.84-1.57c-3.25-1.86-5-5.92-6.32-9.24a20.93,20.93,0,0,1-1.73-7.86C891.34,581.08,897.08,577.86,903.17,576.87Z" transform="translate(-629.95 -371.48)"/><path class="cls-8" d="M924.29,620.44c0-5.73-1.74-7.91-7.48-7.91s-13.32,2.18-13.32,7.91,4,12.89,9.8,12.89S924.29,626.17,924.29,620.44Z" transform="translate(-629.95 -371.48)"/><path class="cls-8" d="M919.75,609.75s17.86-19.27,21.43-38.14,9.64-49.51,9.64-49.51l6.79,1.95s3.22,41.86,0,48.27-21.43,50.93-21.07,62.32Z" transform="translate(-629.95 -371.48)"/><path class="cls-8" d="M887.92,619.08s-6.07,1.07-15.35,23.15-37.86,63.19-37.86,63.19l4.64,4.48s27.86-21.73,33.22-34.9,12.14-29.56,15.35-28.85S904.71,627.27,887.92,619.08Z" transform="translate(-629.95 -371.48)"/><path class="cls-1" d="M935.73,637.59l8.31-24s-1.28-11.27-17.69-15.31l-9.29,14Z" transform="translate(-629.95 -371.48)"/><path class="cls-1" d="M890.7,617.24s-9.81.86-17.76,19.14c0,0,8.74,12.64,15.14,13.06C888.08,649.44,911.84,628.19,890.7,617.24Z" transform="translate(-629.95 -371.48)"/><path class="cls-8" d="M917.65,834s-14.16,30.27-15.82,24.66-1.1-19.06-.22-21,6.68-10.41,6.68-10.41Z" transform="translate(-629.95 -371.48)"/><path class="cls-12" d="M918.73,690.11l12.95-5.18S970.11,756,970,775.71s-52.78,59.2-52.78,59.2l-8.88-7.65s24.94-38.39,33.63-48.35c4.34-5-26.75-29.39-31.46-52.88S918.73,690.11,918.73,690.11Z" transform="translate(-629.95 -371.48)"/><path class="cls-8" d="M840.87,818.14s-26.48,20.43-25.38,14.7,7.77-17.46,9.44-18.76,10.72-6.2,10.72-6.2Z" transform="translate(-629.95 -371.48)"/><path class="cls-4" d="M883.5,715.28,921.81,692s1.52,80.72-7.68,98.18S840,818.73,840,818.73l-4.38-10.85S875.7,782.91,888,778,883.5,715.28,883.5,715.28Z" transform="translate(-629.95 -371.48)"/><path class="cls-4" d="M906.32,676.14s-28.21,10.46-22.82,39.14,14.38,34.06,14.38,34.06l16.18-27.79,16.24-36.38L914.06,683Z" transform="translate(-629.95 -371.48)"/><path class="cls-1" d="M919.75,609.75a47,47,0,0,1,20.77,39.71s-2.64,31.38-6.91,38.24a38.24,38.24,0,0,1-15.62,0c-9.09-1.86-17.88-8.55-17.88-8.55L893,640.73l-5.52-22.43,3-1,15.63-1.79s-2.25,24.42,15.19,12.29c3.68-2.55-4.57-15.29-4.57-15.29Z" transform="translate(-629.95 -371.48)"/><polygon class="cls-9" points="302.51 134.24 346.06 160.83 370.55 112.4 329.73 88.67 302.51 134.24"/><polygon class="cls-9" points="363.09 366.06 394.24 345.88 368.51 298.87 340.04 318.19 363.09 366.06"/><path class="cls-7" d="M839.71,537.23a12.6,12.6,0,0,1,2.56,2.7,55.67,55.67,0,0,1,5.65,8.53,63.82,63.82,0,0,1,5.61,14.27c1.52,5.57,2.54,11.84,4.88,17.87a40.55,40.55,0,0,0,4.44,8.21,43.46,43.46,0,0,0,5.75,6.44,40.28,40.28,0,0,0,12.29,7.58,37.87,37.87,0,0,0,9.43,2.35c2.29.27,3.58.31,3.58.46a10.73,10.73,0,0,1-3.63.26,32.65,32.65,0,0,1-9.79-1.84,39.25,39.25,0,0,1-12.93-7.51,43,43,0,0,1-6.08-6.65,40.78,40.78,0,0,1-4.69-8.6c-2.44-6.31-3.4-12.63-4.82-18.13a67.62,67.62,0,0,0-5.14-14.08,74.3,74.3,0,0,0-5.09-8.72C840.39,538.4,839.6,537.32,839.71,537.23Z" transform="translate(-629.95 -371.48)"/><path class="cls-7" d="M893.2,506.13c.32-.05.63,4.43,3,11.07a50.86,50.86,0,0,0,5.54,10.92,51.82,51.82,0,0,0,4.42,5.66c1.65,1.88,3.45,3.8,5.16,5.94,3.41,4.33,5.76,9,8,13.13a54.79,54.79,0,0,1,4.84,11.69,22.43,22.43,0,0,1,.69,8.6,7.46,7.46,0,0,1-.87,3c-.16,0,.09-1.13.18-3.1a24.69,24.69,0,0,0-1.2-8.16,59.72,59.72,0,0,0-5.06-11.22c-2.28-4.08-4.65-8.67-7.91-12.79-1.64-2.06-3.42-4-5.08-5.9a50.08,50.08,0,0,1-4.48-5.92,47,47,0,0,1-5.37-11.44,43.84,43.84,0,0,1-1.8-8.37A9.08,9.08,0,0,1,893.2,506.13Z" transform="translate(-629.95 -371.48)"/><path class="cls-1" d="M906.55,594.16c0-.13.7-.25,1.37-1.07a1.25,1.25,0,0,0,.3-.63,1,1,0,0,0-.32-.65.85.85,0,0,0-.74-.25c-.31,0-.69.18-1.19.26a3.07,3.07,0,0,1-2.5-1,8.86,8.86,0,0,1-1.35-1.61c-.65-1-.85-1.73-.75-1.78s.51.53,1.24,1.38a12.76,12.76,0,0,0,1.38,1.36,2.49,2.49,0,0,0,1.86.76c.35,0,.76-.22,1.25-.26a1.68,1.68,0,0,1,1.38.56,1.73,1.73,0,0,1,.47,1.32,1.75,1.75,0,0,1-.59,1C907.4,594.42,906.52,594.28,906.55,594.16Z" transform="translate(-629.95 -371.48)"/><path class="cls-9" d="M911.7,594.92l-8.36,3.18S910.43,604.6,911.7,594.92Z" transform="translate(-629.95 -371.48)"/><path class="cls-10" d="M902.5,594.38c.34.66-.16,1.62-1.1,2.14s-2,.4-2.32-.26.16-1.62,1.11-2.14S902.17,593.71,902.5,594.38Z" transform="translate(-629.95 -371.48)"/><path class="cls-10" d="M912.42,589.05c.27.7-.31,1.61-1.29,2s-2,.21-2.29-.48.31-1.6,1.29-2S912.14,588.36,912.42,589.05Z" transform="translate(-629.95 -371.48)"/><path class="cls-11" d="M903.58,606.76a15.14,15.14,0,0,0,6.37-.33,8.72,8.72,0,0,1-4.63,2.2A5.25,5.25,0,0,0,903.58,606.76Z" transform="translate(-629.95 -371.48)"/><path class="cls-7" d="M906.44,587.09a.8.8,0,0,1,.09,1.1.72.72,0,0,1-1,.09.82.82,0,0,1-.09-1.1A.72.72,0,0,1,906.44,587.09Z" transform="translate(-629.95 -371.48)"/><path class="cls-7" d="M900.82,590.47a.8.8,0,0,1,.09,1.1.72.72,0,0,1-1,.09.82.82,0,0,1-.09-1.1A.72.72,0,0,1,900.82,590.47Z" transform="translate(-629.95 -371.48)"/><path class="cls-7" d="M906.48,583.83c-.08.25-.78.24-1.54.49s-1.37.61-1.56.44.26-1,1.31-1.33S906.57,583.6,906.48,583.83Z" transform="translate(-629.95 -371.48)"/><path class="cls-7" d="M896.77,590c-.19-.15.1-1,.82-1.82s1.65-1.14,1.74-.9-.46.77-1.09,1.53S897,590.13,896.77,590Z" transform="translate(-629.95 -371.48)"/><path class="cls-8" d="M893.61,596.47s-2.68-2.36-4-.23,5.8,3.26,5.8,3.26Z" transform="translate(-629.95 -371.48)"/><path class="cls-4" d="M829.12,811.5s-3.85,1.75-4.85,2.8-10.2,17.67-9,19.77,10.39-5,10.39-5-7.72,1.53,3.49-17.54" transform="translate(-629.95 -371.48)"/><path class="cls-4" d="M904.16,833.48s-2.74,3.09-3.16,4.51-1.17,20.61.8,21.9,7.35-9.3,7.35-9.3-6.44,5.28-5-17.06" transform="translate(-629.95 -371.48)"/></svg>