<svg xmlns="http://www.w3.org/2000/svg" viewBox="0 0 440.97 389.03"><defs><style>.cls-1{isolation:isolate}.cls-2{fill:#8fd8de}.cls-3{fill:#fcb8a5}.cls-4,.cls-5,.cls-6{fill:#0f6693}.cls-5,.cls-6{opacity:.35;mix-blend-mode:multiply}.cls-6{opacity:.24}.cls-7{fill:#f5a692}.cls-8{fill:#81276a}.cls-14,.cls-17,.cls-9{fill:none}.cls-9{stroke:#fcb8a5}.cls-14,.cls-9{stroke-linecap:round;stroke-linejoin:round;stroke-width:3px}.cls-10{fill:#113159}.cls-11,.cls-23,.cls-25{fill:#fff}.cls-12,.cls-16,.cls-22{fill:#3863b1}.cls-12{opacity:.11}.cls-13,.cls-21{fill:#fcfcfc}.cls-13{mix-blend-mode:soft-light}.cls-14{stroke:#113159}.cls-15{fill:#ff7c89}.cls-17{stroke:#fff;stroke-miterlimit:10;stroke-width:2px}.cls-18{fill:#e83666}.cls-19{fill:#7cb642}.cls-20{fill:#fec448}.cls-21{font-size:25.5px}.cls-21,.cls-22,.cls-23,.cls-25{font-family:Montserrat-Bold,Montserrat Bold;font-weight:700}.cls-22{font-size:20.16px}.cls-23{font-size:22.41px}.cls-24{letter-spacing:.06em}.cls-25{font-size:20.56px}.cls-26{letter-spacing:.01em}</style></defs><title>solve</title><g class="cls-1"><g id="Ñëîé_1" data-name="Ñëîé 1"><path d="M455.48,311.64H422.93a20.94,20.94,0,0,0,6.16-14.82v-1.27a21.06,21.06,0,0,0-21-21h-8.26a21.65,21.65,0,0,1-15-20.61h0a21.63,21.63,0,0,1,21.63-21.64h29.1a21.06,21.06,0,0,0,21-21V210a21.06,21.06,0,0,0-21-21H427a21.64,21.64,0,1,1,0-43.27h3.73a21.06,21.06,0,0,0,21-21v-1.28a21.06,21.06,0,0,0-21-21h-7.83c-9.65-2.08-16.87-10.29-16.87-20.11,0-11.39,9.71-20.63,21.68-20.63h17.15a20.69,20.69,0,0,0,20.63-20.63h0a20.7,20.7,0,0,0-20.63-20.63H91.81A20.69,20.69,0,0,0,71.18,41.11h0A20.69,20.69,0,0,0,91.81,61.74h29.34c12,0,21.68,9.24,21.68,20.63,0,9.82-7.21,18-16.87,20.11H79.18a21.06,21.06,0,0,0-21,21v1.28a21.06,21.06,0,0,0,21,21H121A21.64,21.64,0,1,1,121,189H83.94a21.06,21.06,0,0,0-21,21v1.27a21.06,21.06,0,0,0,21,21h16.48a21.64,21.64,0,0,1,21.64,21.64h0a21.65,21.65,0,0,1-15,20.61H56.52a21.06,21.06,0,0,0-21,21v1.27a21.06,21.06,0,0,0,21,21H89.07a20.93,20.93,0,0,0-6.16,14.82v1.27a21.06,21.06,0,0,0,21,21h-1.17a21.64,21.64,0,0,1,21.64,21.64h0a21.64,21.64,0,0,1-21.64,21.63h306a21.63,21.63,0,0,1-21.63-21.63h0a21.63,21.63,0,0,1,21.63-21.64h46.74a21.06,21.06,0,0,0,21-21v-1.27A21.06,21.06,0,0,0,455.48,311.64Z" class="cls-2" transform="translate(-35.52 -20.48)"/><path d="M379.52,230.91s1.15-17.37,5.79-20.85,30.12-2.32,30.12-2.32,8.11-19.69,11.58-18.53,2.32,4.63,2.32,4.63L418.9,218.17l-30.12,11.58Z" class="cls-3" transform="translate(-35.52 -20.48)"/><path d="M133.52,230.91s-1.16-17.37-5.8-20.85-30.12-2.32-30.12-2.32S89.49,188.05,86,189.21s-2.32,4.63-2.32,4.63l10.43,24.33,30.12,11.58Z" class="cls-3" transform="translate(-35.52 -20.48)"/><polygon points="175.06 378.51 168.72 255.8 230.51 255.8 228.92 378.51 175.06 378.51" class="cls-4"/><path d="M115.52,227.84l15.84,69.44s3.17,11.3,17.42,11.3l65,6.46L213,276.28H152l-19-53.28Z" class="cls-4" transform="translate(-35.52 -20.48)"/><polygon points="266.94 378.51 273.28 255.8 227.34 255.8 228.92 378.51 266.94 378.51" class="cls-4"/><path d="M397.52,227.84l-15.85,69.44s-3.17,11.3-17.42,11.3l-65,6.46.79-38.76h61l19-53.28Z" class="cls-4" transform="translate(-35.52 -20.48)"/><path d="M131.3,297l.06.28s3.17,11.3,17.42,11.3l65,6.46-.37-18Z" class="cls-5" transform="translate(-35.52 -20.48)"/><path d="M299.66,297l-.37,18,65-6.46c14.25,0,17.42-11.3,17.42-11.3l.07-.28Z" class="cls-5" transform="translate(-35.52 -20.48)"/><path d="M302.32,400h23.79l32.18-40.91s6.8-9.57-2.16-20.66l-35.82-54.57-29.64,25L329,356.27Z" class="cls-4" transform="translate(-35.52 -20.48)"/><path d="M203.71,400H179.92l-32.18-40.91s-6.8-9.57,2.16-20.66l35.82-54.57,29.64,25L177,356.27Z" class="cls-4" transform="translate(-35.52 -20.48)"/><path d="M302.32,400h6.19c14.93-14.85,21.78-31.77,36.54-46.79l-45.69-51.69-8.69,7.32L329,356.27Z" class="cls-6" transform="translate(-35.52 -20.48)"/><path d="M208.78,303.29c-15.92,15.78-27.88,34.53-43.71,50.41,7.23,9.74,9.55,15.44,15.28,23.38Q188.62,388.57,197,400h6.75L177,356.27l38.35-47.43Z" class="cls-6" transform="translate(-35.52 -20.48)"/><rect width="20" height="31" x="211" y="233.52" class="cls-3"/><polygon points="231 264.51 211 238.51 231 233.51 231 264.51" class="cls-7"/><rect width="83" height="97" x="178" y="142.52" class="cls-3" rx="18"/><rect width="83" height="97" x="178" y="142.52" class="cls-3" rx="18"/><path d="M293.52,171.09V217a18.05,18.05,0,0,1-18,18h-41a18.05,18.05,0,0,1-18-18V171.09a17.81,17.81,0,0,0-3,9.91v61a18.05,18.05,0,0,0,18,18h47a18.05,18.05,0,0,0,18-18V181A17.89,17.89,0,0,0,293.52,171.09Z" class="cls-8" transform="translate(-35.52 -20.48)"/><rect width="51" height="26" x="194" y="201.52" class="cls-8" rx="4.85"/><path d="M266.52,232.25c0,6.9-5.6,9.5-12.5,9.5s-12.5-2.6-12.5-9.5" class="cls-9" transform="translate(-35.52 -20.48)"/><ellipse cx="221" cy="264.52" class="cls-3" rx="14" ry="10"/><rect width="43" height="19" x="199.5" y="351.52" class="cls-10"/><path d="M300.84,398.67c-1.15-6-8.72-10.67-17.82-10.67H230c-9.11,0-16.68,4.67-17.83,10.67Z" class="cls-11" transform="translate(-35.52 -20.48)"/><rect width="134" height="107" x="154" y="248.52" class="cls-11" rx="18"/><path d="M316.37,272.69c-10.67,9.94-22.15,19.15-33,28.85-13.63,12.19-27.17,24.48-40.78,36.69-13.35,12-27,23.69-40.17,35.81l-1,.88a17.7,17.7,0,0,0,6.07,1.08h98a18.05,18.05,0,0,0,18-18V287A18,18,0,0,0,316.37,272.69Z" class="cls-12" transform="translate(-35.52 -20.48)"/><path d="M293,171s-72.47,28-89.47,4c-19-26.79,1-38,5.94-40s19.28-6,27.84,12c0,0-5.35-13,6.43-16s21.42,18,21.42,18,15-10,26.77-3,8.57,23,8.57,26-4.55,28.25-4.55,28.25Z" class="cls-8" transform="translate(-35.52 -20.48)"/><path d="M201.52,146s-2,11,3,20,15,16,30,14C234.52,180,205.52,184,201.52,146Z" class="cls-13" transform="translate(-35.52 -20.48)"/><path d="M240.35,154.2s-1.16,6.39,1.74,11.61,8.71,9.3,17.43,8.14C259.52,174,242.67,176.27,240.35,154.2Z" class="cls-13" transform="translate(-35.52 -20.48)"/><path d="M265.28,155.28a13.62,13.62,0,0,0,1.2,8c2,3.61,6,6.41,12,5.61C278.52,168.92,266.88,170.53,265.28,155.28Z" class="cls-13" transform="translate(-35.52 -20.48)"/><circle cx="195.29" cy="176.02" r="18.79" class="cls-14"/><circle cx="243.76" cy="176.02" r="18.79" class="cls-14"/><rect width="7" height="30" x="216.5" y="166.02" class="cls-15" rx="3.5"/><path d="M249.52,198.5a5.53,5.53,0,0,1,11,0" class="cls-14" transform="translate(-35.52 -20.48)"/><circle cx="196" cy="186.52" r="4" class="cls-10"/><circle cx="245" cy="186.52" r="4" class="cls-10"/><circle cx="175" cy="175.52" r="2" class="cls-10"/><circle cx="264.02" cy="175.52" r="1.98" class="cls-10"/><path d="M217.52,237s-2,17,14,18C231.52,255,217.52,251,217.52,237Z" class="cls-13" transform="translate(-35.52 -20.48)"/><path d="M292.52,237s2,17-14,18C278.52,255,292.52,251,292.52,237Z" class="cls-13" transform="translate(-35.52 -20.48)"/><rect width="115" height="69.65" x="17" y="86.86" class="cls-16"/><rect width="115" height="12.66" x="17" y="86.86" class="cls-10"/><line x1="25" x2="122" y1="108.52" y2="147.52" class="cls-17"/><line x1="121.58" x2="25.42" y1="107.51" y2="148.52" class="cls-17"/><circle cx="125" cy="92.52" r="2" class="cls-18"/><circle cx="119" cy="92.52" r="2" class="cls-19"/><circle cx="113" cy="92.52" r="2" class="cls-20"/><rect width="69" height="49" x="317" y="94.52" class="cls-16" rx="7"/><text class="cls-21" transform="translate(331.23 126.46)">&lt;/&gt;</text><ellipse cx="210" cy="58.52" class="cls-11" rx="46" ry="32"/><polygon points="222 75.52 237 111.52 238 63.52 222 75.52" class="cls-11"/><text class="cls-22" transform="translate(181.82 64.9)">HTML</text><ellipse cx="303" cy="187.71" class="cls-11" rx="32" ry="22.26"/><polygon points="294.65 199.54 284.22 224.58 283.52 191.19 294.65 199.54" class="cls-11"/><text class="cls-22" transform="translate(286.82 193.9)">css</text><text class="cls-23" transform="translate(116.2 199.55)"><tspan class="cls-24">{</tspan><tspan x="7.71" y="0" xml:space="preserve"> }</tspan></text><path d="M172.85,208.65a3.53,3.53,0,0,0-2.9,1.52,3.53,3.53,0,0,0-5.83,4c.63.94,3.87,3.89,5.83,5.85,1.2-1.2,5.19-4.91,5.83-5.85a3.53,3.53,0,0,0-2.93-5.5Z" class="cls-4" transform="translate(-35.52 -20.48)"/><text class="cls-25" transform="translate(299.75 51.35)"><tspan class="cls-26">ww</tspan><tspan x="30.75" y="0">w</tspan></text><line x1="274" x2="311" y1="76.52" y2="76.52" class="cls-17"/><line x1="285" x2="322" y1="82.52" y2="82.52" class="cls-17"/><line x1="92" x2="129" y1="23.52" y2="23.52" class="cls-17"/><line x1="103" x2="140" y1="29.52" y2="29.52" class="cls-17"/><line x1="337" x2="374" y1="310.52" y2="310.52" class="cls-17"/><line x1="348" x2="385" y1="316.52" y2="316.52" class="cls-17"/><line x1="30" x2="67" y1="276.52" y2="276.52" class="cls-17"/><line x1="41" x2="78" y1="282.52" y2="282.52" class="cls-17"/><rect width="306" height="11.33" x="68.77" y="377.7" class="cls-10"/></g></g></svg>