<svg xmlns="http://www.w3.org/2000/svg" xmlns:xlink="http://www.w3.org/1999/xlink" viewBox="0 0 701.34 550.8"><defs><style>.cls-1{isolation:isolate;}.cls-2,.cls-3,.cls-4{opacity:0.5;mix-blend-mode:multiply;}.cls-2{fill:url(#Degradado_sin_nombre_156);}.cls-3{fill:url(#Degradado_sin_nombre_152);}.cls-4{fill:url(#Degradado_sin_nombre_152-2);}.cls-5,.cls-6{fill:#6e7189;}.cls-5,.cls-7{stroke:#c0dfe2;stroke-miterlimit:10;}.cls-7{fill:none;}.cls-8{fill:#c7c5d3;}.cls-9{fill:url(#Degradado_sin_nombre_197);}.cls-10{fill:url(#Degradado_sin_nombre_197-2);}.cls-11{fill:url(#Degradado_sin_nombre_197-3);}.cls-12{fill:url(#Degradado_sin_nombre_17);}.cls-13{fill:#51b9fa;}.cls-14{fill:#538bf9;}.cls-15{fill:url(#Degradado_sin_nombre_86);}.cls-16{fill:#1f1c38;}.cls-17{fill:url(#Degradado_sin_nombre_17-2);}.cls-18{fill:url(#Degradado_sin_nombre_17-3);}.cls-19{fill:#fff;}.cls-20{fill:#e6fbff;}.cls-21{fill:url(#Degradado_sin_nombre_10);}.cls-22{fill:url(#Degradado_sin_nombre_86-2);}.cls-23{fill:#dbdbdb;}.cls-24{fill:url(#Degradado_sin_nombre_89);}.cls-25{fill:url(#Degradado_sin_nombre_10-2);}.cls-26{fill:url(#Degradado_sin_nombre_124);}.cls-27{fill:url(#Degradado_sin_nombre_124-2);}.cls-28{fill:url(#Degradado_sin_nombre_86-3);}.cls-29{fill:url(#Degradado_sin_nombre_10-3);}.cls-30{fill:url(#Degradado_sin_nombre_86-4);}.cls-31{fill:#f79244;}.cls-32{fill:#111023;}.cls-33{fill:url(#Degradado_sin_nombre_86-5);}.cls-34{fill:url(#Degradado_sin_nombre_173);}.cls-35{fill:url(#Degradado_sin_nombre_10-4);}.cls-36{fill:url(#Degradado_sin_nombre_87);}.cls-37{fill:url(#Degradado_sin_nombre_173-2);}.cls-38{fill:url(#Degradado_sin_nombre_86-6);}.cls-39{fill:url(#Degradado_sin_nombre_87-2);}.cls-40{fill:url(#Degradado_sin_nombre_86-7);}.cls-41{fill:url(#Degradado_sin_nombre_173-3);}.cls-42{fill:url(#Degradado_sin_nombre_59);}.cls-43{fill:url(#Degradado_sin_nombre_10-5);}.cls-44{fill:url(#Degradado_sin_nombre_86-8);}.cls-45{fill:url(#Degradado_sin_nombre_10-6);}.cls-46{fill:url(#Degradado_sin_nombre_86-9);}.cls-47{fill:url(#Degradado_sin_nombre_10-7);}.cls-48{fill:url(#Degradado_sin_nombre_87-3);}.cls-49{fill:url(#Degradado_sin_nombre_86-10);}.cls-50{fill:url(#Degradado_sin_nombre_86-11);}.cls-51{fill:url(#Degradado_sin_nombre_10-8);}.cls-52{fill:url(#Degradado_sin_nombre_124-3);}.cls-53{fill:url(#Degradado_sin_nombre_10-9);}.cls-54{fill:url(#Degradado_sin_nombre_10-10);}.cls-55{fill:url(#Degradado_sin_nombre_10-11);}.cls-56{fill:url(#Degradado_sin_nombre_86-12);}</style><linearGradient id="Degradado_sin_nombre_156" x1="697.66" y1="461.33" x2="1366.21" y2="461.33" gradientUnits="userSpaceOnUse"><stop offset="0" stop-color="#ba94d6"/><stop offset="0.45" stop-color="#b894d7"/><stop offset="0.61" stop-color="#b194d9"/><stop offset="0.72" stop-color="#a694dd"/><stop offset="0.81" stop-color="#9594e3"/><stop offset="0.89" stop-color="#7f93ea"/><stop offset="0.96" stop-color="#6493f3"/><stop offset="1" stop-color="#5193fa"/></linearGradient><linearGradient id="Degradado_sin_nombre_152" x1="1065.07" y1="711.06" x2="1065.07" y2="211" gradientUnits="userSpaceOnUse"><stop offset="0" stop-color="#8abad6"/><stop offset="0.5" stop-color="#88b9d7"/><stop offset="0.68" stop-color="#81b4db"/><stop offset="0.81" stop-color="#76ace3"/><stop offset="0.92" stop-color="#65a1ed"/><stop offset="1" stop-color="#5193fa"/></linearGradient><linearGradient id="Degradado_sin_nombre_152-2" x1="1067.57" y1="752.8" x2="1067.57" y2="711.19" xlink:href="#Degradado_sin_nombre_152"/><linearGradient id="Degradado_sin_nombre_197" x1="271.09" y1="386.7" x2="298.89" y2="386.7" gradientUnits="userSpaceOnUse"><stop offset="0" stop-color="#e5e5e5"/><stop offset="0.27" stop-color="#e2e2e4"/><stop offset="0.47" stop-color="#d9d9e0"/><stop offset="0.64" stop-color="#c9cbda"/><stop offset="0.8" stop-color="#b3b6d2"/><stop offset="0.95" stop-color="#969bc7"/><stop offset="1" stop-color="#8a8fc2"/></linearGradient><linearGradient id="Degradado_sin_nombre_197-2" x1="951.34" y1="681.36" x2="1013.35" y2="681.36" xlink:href="#Degradado_sin_nombre_197"/><linearGradient id="Degradado_sin_nombre_197-3" x1="938.86" y1="496.5" x2="1026.43" y2="496.5" xlink:href="#Degradado_sin_nombre_197"/><linearGradient id="Degradado_sin_nombre_17" x1="1149.91" y1="535.5" x2="1149.91" y2="683.98" gradientUnits="userSpaceOnUse"><stop offset="0" stop-color="#caeb8a"/><stop offset="0.43" stop-color="#c8ea8b"/><stop offset="0.59" stop-color="#c1e78e"/><stop offset="0.7" stop-color="#b6e194"/><stop offset="0.79" stop-color="#a5d89d"/><stop offset="0.87" stop-color="#8fcda7"/><stop offset="0.93" stop-color="#74bfb5"/><stop offset="0.99" stop-color="#55afc4"/><stop offset="1" stop-color="#51adc6"/></linearGradient><linearGradient id="Degradado_sin_nombre_86" x1="920.94" y1="446.02" x2="964.13" y2="446.02" gradientTransform="translate(1990.4 970.33) rotate(180)" gradientUnits="userSpaceOnUse"><stop offset="0" stop-color="#f7be86"/><stop offset="0.33" stop-color="#f7bc83"/><stop offset="0.54" stop-color="#f7b67b"/><stop offset="0.73" stop-color="#f7ac6c"/><stop offset="0.89" stop-color="#f79e57"/><stop offset="1" stop-color="#f79244"/></linearGradient><linearGradient id="Degradado_sin_nombre_17-2" x1="1153.65" y1="651.43" x2="1154.7" y2="714.24" xlink:href="#Degradado_sin_nombre_17"/><linearGradient id="Degradado_sin_nombre_17-3" x1="841.77" y1="544.8" x2="844.56" y2="712.31" xlink:href="#Degradado_sin_nombre_17"/><linearGradient id="Degradado_sin_nombre_10" x1="1214.94" y1="609.89" x2="1262.58" y2="609.89" gradientUnits="userSpaceOnUse"><stop offset="0" stop-color="#f9e6d9"/><stop offset="0.12" stop-color="#fcf1ea"/><stop offset="0.27" stop-color="#fef9f6"/><stop offset="0.48" stop-color="#fffefd"/><stop offset="1" stop-color="#fff"/></linearGradient><linearGradient id="Degradado_sin_nombre_86-2" x1="1226.18" y1="650.24" x2="1238.88" y2="650.24" gradientTransform="matrix(1, 0, 0, 1, 0, 0)" xlink:href="#Degradado_sin_nombre_86"/><linearGradient id="Degradado_sin_nombre_89" x1="1168.75" y1="637.2" x2="1172.59" y2="545.13" gradientUnits="userSpaceOnUse"><stop offset="0" stop-color="#7b6ed6"/><stop offset="0.48" stop-color="#7a70d7"/><stop offset="0.65" stop-color="#7677da"/><stop offset="0.77" stop-color="#7082e0"/><stop offset="0.87" stop-color="#6693e8"/><stop offset="0.95" stop-color="#5aa9f2"/><stop offset="1" stop-color="#51b9fa"/></linearGradient><linearGradient id="Degradado_sin_nombre_10-2" x1="1142.93" y1="581.6" x2="1213.42" y2="581.6" xlink:href="#Degradado_sin_nombre_10"/><linearGradient id="Degradado_sin_nombre_124" x1="1179.91" y1="570.18" x2="1205.55" y2="570.18" gradientUnits="userSpaceOnUse"><stop offset="0" stop-color="#f9e6d9"/><stop offset="0.26" stop-color="#fee0d7"/><stop offset="1" stop-color="#ffded7"/></linearGradient><linearGradient id="Degradado_sin_nombre_124-2" x1="1154.61" y1="568.63" x2="1182.07" y2="568.63" xlink:href="#Degradado_sin_nombre_124"/><linearGradient id="Degradado_sin_nombre_86-3" x1="1123.06" y1="654.31" x2="1136.61" y2="654.31" gradientTransform="matrix(1, 0, 0, 1, 0, 0)" xlink:href="#Degradado_sin_nombre_86"/><linearGradient id="Degradado_sin_nombre_10-3" x1="1082.73" y1="612.07" x2="1132.12" y2="612.07" xlink:href="#Degradado_sin_nombre_10"/><linearGradient id="Degradado_sin_nombre_86-4" x1="1166.81" y1="562.13" x2="1193.01" y2="562.13" gradientTransform="matrix(1, 0, 0, 1, 0, 0)" xlink:href="#Degradado_sin_nombre_86"/><linearGradient id="Degradado_sin_nombre_86-5" x1="1151.79" y1="530.18" x2="1203.47" y2="530.18" gradientTransform="matrix(1, 0, 0, 1, 0, 0)" xlink:href="#Degradado_sin_nombre_86"/><linearGradient id="Degradado_sin_nombre_173" x1="1181.94" y1="681.86" x2="1286.17" y2="681.86" gradientUnits="userSpaceOnUse"><stop offset="0" stop-color="#5aafa6"/><stop offset="0.3" stop-color="#59aca9"/><stop offset="0.5" stop-color="#57a4b1"/><stop offset="0.67" stop-color="#5395c0"/><stop offset="0.82" stop-color="#4e81d6"/><stop offset="0.96" stop-color="#4766f1"/><stop offset="1" stop-color="#455dfa"/></linearGradient><linearGradient id="Degradado_sin_nombre_10-4" x1="1229.97" y1="719.25" x2="1243.79" y2="719.25" xlink:href="#Degradado_sin_nombre_10"/><linearGradient id="Degradado_sin_nombre_87" x1="1181.94" y1="720.24" x2="1237.99" y2="720.24" gradientUnits="userSpaceOnUse"><stop offset="0" stop-color="#3c0887"/><stop offset="0.32" stop-color="#3f0987"/><stop offset="0.53" stop-color="#470e87"/><stop offset="0.71" stop-color="#561588"/><stop offset="0.87" stop-color="#6b1f89"/><stop offset="1" stop-color="#822a8a"/></linearGradient><linearGradient id="Degradado_sin_nombre_173-2" x1="1139.66" y1="687.64" x2="1212.68" y2="687.64" xlink:href="#Degradado_sin_nombre_173"/><linearGradient id="Degradado_sin_nombre_86-6" x1="1169.56" y1="715.09" x2="1198.01" y2="715.09" gradientTransform="matrix(1, 0, 0, 1, 0, 0)" xlink:href="#Degradado_sin_nombre_86"/><linearGradient id="Degradado_sin_nombre_87-2" x1="1114.31" y1="725.39" x2="1178.16" y2="725.39" xlink:href="#Degradado_sin_nombre_87"/><linearGradient id="Degradado_sin_nombre_86-7" x1="1141.93" y1="703.06" x2="1176.68" y2="703.06" gradientTransform="matrix(1, 0, 0, 1, 0, 0)" xlink:href="#Degradado_sin_nombre_86"/><linearGradient id="Degradado_sin_nombre_173-3" x1="1068.84" y1="669.2" x2="1161.15" y2="669.2" xlink:href="#Degradado_sin_nombre_173"/><linearGradient id="Degradado_sin_nombre_59" x1="1136.98" y1="711.53" x2="1141.93" y2="711.53" gradientUnits="userSpaceOnUse"><stop offset="0" stop-color="#31d1d6"/><stop offset="0.37" stop-color="#32ced8"/><stop offset="0.62" stop-color="#36c6df"/><stop offset="0.82" stop-color="#3cb7eb"/><stop offset="1" stop-color="#45a3fa"/></linearGradient><linearGradient id="Degradado_sin_nombre_10-5" x1="1108.69" y1="725.39" x2="1120.99" y2="725.39" xlink:href="#Degradado_sin_nombre_10"/><linearGradient id="Degradado_sin_nombre_86-8" x1="839.79" y1="634.46" x2="880.45" y2="634.46" gradientTransform="matrix(1, 0, 0, 1, 0, 0)" xlink:href="#Degradado_sin_nombre_86"/><linearGradient id="Degradado_sin_nombre_10-6" x1="142.13" y1="515.82" x2="182.79" y2="515.82" xlink:href="#Degradado_sin_nombre_10"/><linearGradient id="Degradado_sin_nombre_86-9" x1="756.33" y1="598.83" x2="854.76" y2="598.83" gradientTransform="matrix(1, 0, 0, 1, 0, 0)" xlink:href="#Degradado_sin_nombre_86"/><linearGradient id="Degradado_sin_nombre_10-7" x1="36.96" y1="440.18" x2="67.04" y2="440.18" xlink:href="#Degradado_sin_nombre_10"/><linearGradient id="Degradado_sin_nombre_87-3" x1="873.31" y1="451.34" x2="848.66" y2="561.74" xlink:href="#Degradado_sin_nombre_87"/><linearGradient id="Degradado_sin_nombre_86-10" x1="833.9" y1="331.33" x2="877.28" y2="331.33" gradientTransform="matrix(1, 0, 0, 1, 0, 0)" xlink:href="#Degradado_sin_nombre_86"/><linearGradient id="Degradado_sin_nombre_86-11" x1="926.53" y1="375.79" x2="928.08" y2="390.25" gradientTransform="matrix(1, 0, 0, 1, 0, 0)" xlink:href="#Degradado_sin_nombre_86"/><linearGradient id="Degradado_sin_nombre_10-8" x1="835.88" y1="448.42" x2="854.04" y2="410.5" xlink:href="#Degradado_sin_nombre_10"/><linearGradient id="Degradado_sin_nombre_124-3" x1="864.69" y1="404.36" x2="884.36" y2="404.36" xlink:href="#Degradado_sin_nombre_124"/><linearGradient id="Degradado_sin_nombre_10-9" x1="846.48" y1="398.34" x2="853.6" y2="356.69" xlink:href="#Degradado_sin_nombre_10"/><linearGradient id="Degradado_sin_nombre_10-10" x1="855.07" y1="370.93" x2="870.59" y2="370.93" xlink:href="#Degradado_sin_nombre_10"/><linearGradient id="Degradado_sin_nombre_10-11" x1="823.23" y1="367.45" x2="870.59" y2="367.45" xlink:href="#Degradado_sin_nombre_10"/><linearGradient id="Degradado_sin_nombre_86-12" x1="876.25" y1="397.67" x2="1001.92" y2="397.67" gradientTransform="matrix(1, 0, 0, 1, 0, 0)" xlink:href="#Degradado_sin_nombre_86"/></defs><title>think</title><g class="cls-1"><g id="Layer_1" data-name="Layer 1"><path class="cls-2" d="M1355.29,711.66l-.93-.6H748.15c-20.68-15.64-36.92-40.27-45.26-68.65C698.25,626.6,696,609.23,699,592.8c8.61-47.47,55.53-70.52,67.48-116.85,7.24-28.06,0-58.42.4-87.9.43-32.05,11-65,31.73-83.89,40.48-37,99.18-9.28,146.39-30.47,31.25-14,55-48.65,87.1-59.45,27.07-9.11,57.8,1.39,77.4,26.45C1134,272,1141.85,323,1172.62,343.87c31.53,21.42,78.09,3.93,100.62,38.85,23.61,36.6-2.21,98.35,21,135.33,7.58,12.07,19.1,19,29.12,27.82C1363.91,581.7,1378.19,656.72,1355.29,711.66Z" transform="translate(-697.66 -202)"/><path class="cls-3" d="M1387.85,711.06H781.63c-20.68-15.64-36.92-40.27-45.25-68.65-4.65-15.81-6.87-33.18-3.89-49.61C741.1,545.33,788,522.28,800,476c7.25-28.06,0-58.42.4-87.9.43-32.05,11-65,31.73-83.89,40.48-37,99.18-9.28,146.39-30.47,31.25-14,55-48.65,87.1-59.45,27.07-9.11,57.8,1.39,77.4,26.45,24.49,31.29,32.34,82.28,63.11,103.18,31.53,21.42,78.1,3.93,100.62,38.85,23.61,36.6-2.21,98.35,21,135.33,7.57,12.07,19.09,19,29.11,27.82C1397.39,581.7,1410.75,656.12,1387.85,711.06Z" transform="translate(-697.66 -202)"/><path class="cls-4" d="M747.94,711.19h639.25s-59,41.61-325.7,41.61S747.94,711.19,747.94,711.19Z" transform="translate(-697.66 -202)"/><path class="cls-5" d="M973.55,652a3.53,3.53,0,0,0-.66.05V652Z" transform="translate(-697.66 -202)"/><path class="cls-5" d="M1000.2,652.1v0a3.08,3.08,0,0,0-.53,0Z" transform="translate(-697.66 -202)"/><polygon class="cls-6" points="305.69 328.53 305.67 334.7 303.07 334.69 275.74 334.61 273.28 334.6 273.3 328.64 273.3 328.43 305.29 328.53 305.69 328.53"/><polygon class="cls-6" points="303.06 334.69 302.58 438.79 275.26 438.71 275.75 334.61 303.06 334.69"/><path class="cls-6" d="M1016.88,678.85l-13-24.14a4.81,4.81,0,0,0-3.69-2.57,3.08,3.08,0,0,0-.53,0L973.55,652a3.53,3.53,0,0,0-.66.05,4.82,4.82,0,0,0-3.57,2.53l-13.14,24.07a5.49,5.49,0,0,0,0,5.19l13,24.13a4.83,4.83,0,0,0,4.22,2.62l26.12.08a4.82,4.82,0,0,0,4.23-2.59l13.15-24.05A5.53,5.53,0,0,0,1016.88,678.85ZM998.59,684l-4,7.3a4.86,4.86,0,0,1-4.23,2.58l-7.93,0a4.81,4.81,0,0,1-4.22-2.6l-3.94-7.32a5.51,5.51,0,0,1,0-5.2l3.43-6.28.56-1a4.83,4.83,0,0,1,4.23-2.57l7.94,0a4.82,4.82,0,0,1,4.21,2.6l.56,1,3.37,6.31A5.43,5.43,0,0,1,998.59,684Z" transform="translate(-697.66 -202)"/><rect class="cls-6" x="980.9" y="631.52" width="11.32" height="29.78" transform="translate(-360.57 1428.95) rotate(-89.82)"/><path class="cls-6" d="M1030.61,490.43a43.15,43.15,0,0,1-27.67,40.1l-32-.1v.21A43.16,43.16,0,0,1,943,490.43a42.68,42.68,0,0,1,10.51-28.07v0h23.37l-1,1.65h-.07L964.6,483.28l11.27,19.24h22.55l11.27-19.24L998.4,464l-1-1.65h22.66A42.54,42.54,0,0,1,1030.61,490.43Z" transform="translate(-697.66 -202)"/><path class="cls-7" d="M969.37,652a3.6,3.6,0,0,0-.66.05V652Z" transform="translate(-697.66 -202)"/><path class="cls-7" d="M996,652.1v0a3,3,0,0,0-.52,0Z" transform="translate(-697.66 -202)"/><polygon class="cls-8" points="301.52 328.53 301.49 334.7 298.89 334.69 271.57 334.61 269.1 334.6 269.13 328.64 269.13 328.43 301.11 328.53 301.52 328.53"/><polygon class="cls-9" points="298.89 334.69 298.4 438.79 271.09 438.71 271.57 334.61 298.89 334.69"/><path class="cls-10" d="M1012.71,678.85l-13-24.14a4.78,4.78,0,0,0-3.69-2.57,3,3,0,0,0-.52,0L969.37,652a3.6,3.6,0,0,0-.66.05,4.86,4.86,0,0,0-3.57,2.53L952,678.67a5.51,5.51,0,0,0,0,5.19L965,708a4.82,4.82,0,0,0,4.21,2.62l26.13.08a4.84,4.84,0,0,0,4.23-2.59l13.14-24.05A5.53,5.53,0,0,0,1012.71,678.85ZM994.41,684l-4,7.3a4.85,4.85,0,0,1-4.23,2.58l-7.93,0a4.8,4.8,0,0,1-4.21-2.6l-3.95-7.32a5.51,5.51,0,0,1,0-5.2l3.43-6.28.56-1a4.81,4.81,0,0,1,4.23-2.57l7.93,0a4.84,4.84,0,0,1,4.22,2.6l.55,1,3.38,6.31A5.43,5.43,0,0,1,994.41,684Z" transform="translate(-697.66 -202)"/><rect class="cls-8" x="976.73" y="631.52" width="11.32" height="29.78" transform="translate(-364.73 1424.77) rotate(-89.82)"/><path class="cls-11" d="M1026.43,490.43a43.14,43.14,0,0,1-27.66,40.1l-32-.1v.21a43.16,43.16,0,0,1-27.92-40.21,42.72,42.72,0,0,1,10.5-28.07l0,0h23.36l-1,1.65h-.08l-11.27,19.25,11.27,19.24h22.55l11.27-19.24L994.23,464l-1-1.65h22.65A42.54,42.54,0,0,1,1026.43,490.43Z" transform="translate(-697.66 -202)"/><path class="cls-12" d="M1297,659.75c-5.35-1.63-11.83-.37-16.78,2.59-7,4.16-11.85,10.87-17.32,16.81s-12.31,11.49-20.42,12c-7.61.44-14.75-3.7-20.54-8.57-14.87-12.47-25.8-31.28-44.62-36.25a19.83,19.83,0,0,0-9.27-.53c-3.9.84-7.25,3.33-10,6.17-9.42,9.75-13.51,24.21-24.68,31.94-9.07,6.3-21.59,6.7-31.7,2.24-8.68-3.83-15.51-10.7-22.87-16.62s-16.15-11.18-25.63-10.72c-6.78.33-13,3.53-19.39,5.82S1020,668.2,1014,665c-9.27-5.11-11.71-16.88-11.07-27.35v0c3.1-12.61,9.24-25.33,21.28-29.88,13.16-5,28.61,1.85,41.77-3.09,19.71-7.38,22.73-35.58,40.91-46.09a29,29,0,0,1,29.47.7c16.49,10.61,18.78,35.89,36.18,45,8.58,4.48,18.82,3.86,28.5,4.42s20.47,3.19,25.44,11.4c4.09,6.75,3,15.19,2.93,23s1.66,17,8.69,20.66c8.65,4.55,18.67-1.85,27.6-5.79,10-4.42,22.84-5.41,31.12,1.72A.6.6,0,0,1,1297,659.75Z" transform="translate(-697.66 -202)"/><path class="cls-13" d="M1056.81,694.34v-157s1.19,7.26,6.33,7.26,6.32-7.26,6.32-7.26v157Z" transform="translate(-697.66 -202)"/><path class="cls-13" d="M1026.27,694.34v-157s1.2,6.35,5.4,6.35,5.4-6.35,5.4-6.35v157Z" transform="translate(-697.66 -202)"/><path class="cls-14" d="M1037.07,694.34v-157s2.14,8.08,9.87,8.08,9.87-8.08,9.87-8.08v157Z" transform="translate(-697.66 -202)"/><path class="cls-15" d="M1026.27,537.32l13-34.09c4.6,10,18,5,18,5l12.25,29.07s-1.19,7.26-6.32,7.26-6.33-7.26-6.33-7.26-2.15,8.08-9.87,8.08-9.87-8.08-9.87-8.08-1.2,6.35-5.4,6.35S1026.27,537.32,1026.27,537.32Z" transform="translate(-697.66 -202)"/><path class="cls-16" d="M1039.24,503.23h0l.88-2.33a4.47,4.47,0,0,1,2.36-2.49l4.65-2.07a4.53,4.53,0,0,1,6,2.34l4,9.58S1043.84,513.21,1039.24,503.23Z" transform="translate(-697.66 -202)"/><path class="cls-17" d="M936.43,711.17v0c-2-15.88,8.14-32.48,23.36-38.07,12.21-4.48,27.82-3.13,35.93-13.18,4-5,5-11.69,6.27-18,.28-1.42.59-2.86,1-4.29-.64,10.47,1.8,22.24,11.07,27.35,5.93,3.25,13.34,1.94,19.72-.35s12.61-5.49,19.39-5.82c9.48-.46,18.26,4.8,25.63,10.72s14.19,12.79,22.87,16.62c10.11,4.46,22.63,4.06,31.7-2.24,11.17-7.73,15.26-22.19,24.68-31.94,2.75-2.84,6.1-5.33,10-6.17a19.83,19.83,0,0,1,9.27.53c18.82,5,29.75,23.78,44.62,36.25,5.79,4.87,12.93,9,20.54,8.57,8.11-.48,15-6,20.42-12s10.37-12.65,17.32-16.81c5-3,11.43-4.22,16.78-2.59,8.68,7.59,10.28,22.22,21,26.71,9.29,3.9,19.82-2.4,29.87-1.43,12.9,1.24,21.32,13.82,25.27,26.14Z" transform="translate(-697.66 -202)"/><path class="cls-18" d="M919.16,711.06h-149a36.55,36.55,0,0,1,4.21-32.39c4.15-6,10.41-9.63,15.78-14.44,4.88-4.38,7.31-9.1,6-15.75-.82-4.11-2.75-8.07-2.72-12.33.13-15.46,20.17-17.94,26.93-29.29,9-15.2-1.85-34.18,5.62-49.88,4.75-10,16.68-16.42,26.58-9,12.62,9.51,9.25,26.86,15.18,39.64,5.51,11.91,21.44,15.53,21.86,30.12.4,13.62-12.72,30.17-1,42,5,5.07,12.36,7.25,18,11.61a35.9,35.9,0,0,1,11.15,15A38.2,38.2,0,0,1,919.16,711.06Z" transform="translate(-697.66 -202)"/><path class="cls-19" d="M1259.58,398.59c-14.34,11.66-34.75,14-52.91,10-14.3-3.1-28.08-9.73-42.71-9.24s-28.61,8.23-43.34,7.84c-16.21-.44-30.7-10.62-46.82-12.29-16.57-1.72-32.52,5.65-48.19,11.24-23.46,8.37-50.2,12.81-72.86,2.55-11.7-5.31-22.4-16.41-21-29,.91-8,6.58-15.26,6.14-23.32-.56-10.31-10.85-18.06-11.93-28.33-1.31-12.24,10.63-21.72,22-26.77,8.54-3.78,18.08-7,25-12.8l6.66-8.14a23.78,23.78,0,0,0,1.52-3.53q.13-.75.21-1.5c.81-7.6-.91-15.21-1.34-22.85-.88-15.69,4.55-32.53,17.37-41.86,11.31-8.24,26.41-9.46,40.42-8.18A135,135,0,0,1,1088,217.24c13.66,7.17,26.38,16.82,41.47,20.22,17.85,4,36.89-1.23,54.68,3.09,24.23,5.87,41.22,29,45.8,53.18,1.45,7.62,1.94,15.59,5.52,22.49,7.32,14.13,25.37,19.86,34.16,33.15C1279.8,364.7,1273.92,386.92,1259.58,398.59Z" transform="translate(-697.66 -202)"/><path class="cls-20" d="M1085.88,380.24c-29.79-8.29-57.11,10.26-86.38,11.86-28.91,1.58-53.76-21.2-51.13-50.38.15-1.65-2.47-1.63-2.62,0-2.16,24,15,47.57,39.26,52.09,34.33,6.41,65.91-20.63,100.21-11.09A1.29,1.29,0,0,0,1085.88,380.24Z" transform="translate(-697.66 -202)"/><path class="cls-20" d="M1252.93,348c-1.14-1.23-3,.59-1.87,1.82,10.9,11.85,3.8,29.06-8.93,36.16-14.16,7.9-31.07,5.37-46.2,2.12-14-3-27.84-6.47-42.25-4.72-15,1.81-29.64,7.28-44.78,3.78-1.64-.38-2.31,2.12-.66,2.5,17.46,4,34-3.49,51.3-4.2,19.93-.82,38.68,7.9,58.51,8.36,13.11.3,27.71-3.55,35.78-14.5C1260.75,370,1261,356.74,1252.93,348Z" transform="translate(-697.66 -202)"/><path class="cls-20" d="M958,308.94a70,70,0,0,0-9.68,22.28,1.31,1.31,0,0,0,2.54.65,67.77,67.77,0,0,1,9.41-21.64C961.18,308.84,958.9,307.55,958,308.94Z" transform="translate(-697.66 -202)"/><path class="cls-20" d="M991.78,377c-22.35-6.4-34.15-29.2-26.59-50.85.55-1.57-2-2.22-2.54-.65-8,23,4.82,47.23,28.47,54A1.29,1.29,0,0,0,991.78,377Z" transform="translate(-697.66 -202)"/><path class="cls-20" d="M1234.49,335.21c-6.31-7.88-12.4-14.62-14.88-24.66-2.11-8.53-2.32-17.35-3.84-26-2.19-12.49-8-25.44-20.89-30-1.59-.56-2.24,1.94-.66,2.51,26.72,9.53,15.89,47.4,28.07,66.93,7.21,11.56,20.07,20,17.21,35.35-3,15.81-20.15,23.94-34.81,17.56-1.53-.66-2.86,1.57-1.31,2.24,11.42,5,25.43,2.58,33.33-7.41C1245.83,360.2,1243.13,346,1234.49,335.21Z" transform="translate(-697.66 -202)"/><path class="cls-19" d="M1260.86,464.11s-10-2.08-11.62,5.42-.69,14.88,8.77,18.24S1276.54,467.4,1260.86,464.11Z" transform="translate(-697.66 -202)"/><path class="cls-19" d="M1254.07,413.19s-8.4,7.46-4.24,16.63,29.07,17.49,34.28-1.58S1266.77,399,1254.07,413.19Z" transform="translate(-697.66 -202)"/><path class="cls-19" d="M1225.79,497s-5.43,5-2.78,9.81,10.71,7,13.8.82S1231.83,492.9,1225.79,497Z" transform="translate(-697.66 -202)"/><path class="cls-21" d="M1262.52,622c1,2.94-10.47,20.55-10.47,20.55l-.15.3c-3.06,1.21-8.17,4.5-13,7.26-2.26-3.47-6.53-7.3-10.65-8.08l-.45-.06.22-1.54q3.29-6.27,6.61-12.56a2.13,2.13,0,0,0,.35-1.26,2.07,2.07,0,0,0-.61-1l-3.75-4.09,1.56-11.25h-17.22q4.17-20.22,7.34-40.65c.36.16.73.3,1.06.46C1229.82,573,1261.48,619.07,1262.52,622Z" transform="translate(-697.66 -202)"/><path class="cls-22" d="M1228.23,642c4.12.78,8.39,4.61,10.65,8.08-4.1,2.33-8.47,5.42-12.7,8.37l1.6-16.51Z" transform="translate(-697.66 -202)"/><path class="cls-23" d="M1230.6,621.55l-2.6,18.89-.22,1.54-1.6,16.51c-5.68,4-7.18,6.16-12.48,10.49l-5,.1-69.69.39a7.76,7.76,0,0,0-2.37-3.35l-4.49-23.61-1.75-9.31-4.19-22.3-.11-.6h106.09Z" transform="translate(-697.66 -202)"/><path class="cls-24" d="M1222.28,569.65q-3.18,20.4-7.34,40.65h-84.31q-4-17.32-8-34.67a22.79,22.79,0,0,0-1.76-5.48,5.28,5.28,0,0,1,1.22-.82c3.43-1.56,12.78-4.34,20.88-6.63,7.52,16.31,20.9,32.28,35.93,42.24a97.58,97.58,0,0,0,34.56-38.12h0A73.26,73.26,0,0,1,1222.28,569.65Z" transform="translate(-697.66 -202)"/><path class="cls-25" d="M1154.61,566c6.05,6.74,11.7,12.61,18.25,18.87h0a80.16,80.16,0,0,1,7.44-6.43l.09-.07.13-.1q3.57,4.1,7,8.27l.22.18q9.32-10.5,17.81-21.66c.55.1,3.93.75,7.87,1.79a97.58,97.58,0,0,1-34.56,38.12c-15-10-28.41-25.93-35.93-42.24,7.28-2.07,15.41-4.44,15.41-4.44A35.42,35.42,0,0,0,1154.61,566Z" transform="translate(-697.66 -202)"/><path class="cls-26" d="M1180.52,578.24l-.13.1-.09.07-.39-1.61,13.1-13-1.7-10.11a13.69,13.69,0,0,1,8.92,3.55,27.64,27.64,0,0,1,5.24,7.79l.08,0q-8.49,11.13-17.81,21.66l-.22-.18Q1184.09,582.33,1180.52,578.24Z" transform="translate(-697.66 -202)"/><path class="cls-27" d="M1182.07,577.56l-1.77.85a80.16,80.16,0,0,0-7.44,6.43h0c-6.55-6.26-12.2-12.13-18.25-18.87a35.42,35.42,0,0,1,3.73-7.71,15.62,15.62,0,0,1,6.85-5.84h.1l-.75,12.29,3.11,2.27h0Z" transform="translate(-697.66 -202)"/><path class="cls-28" d="M1132.12,642.51l4.49,23.61c-3.93-3.64-9.35-8.54-13.25-12.11h0C1123.2,653.62,1120.91,644.21,1132.12,642.51Z" transform="translate(-697.66 -202)"/><path class="cls-29" d="M1130.37,633.2l1.75,9.31c-11.21,1.7-8.92,11.11-8.77,11.49-9.65-8.83-18.46-16.64-22.16-19.38-4.3-3.22-9.41-5-14.58-2.51-1.41-2.53-4.56-8.56-3.75-10.87,1-2.79,29.45-44.25,38-51.09a22.79,22.79,0,0,1,1.76,5.48q4,17.32,8,34.67h-4.56l.11.6a147.23,147.23,0,0,1-10,11.45C1120.9,626,1125.62,629.59,1130.37,633.2Z" transform="translate(-697.66 -202)"/><path class="cls-16" d="M1214.76,567.46a101.55,101.55,0,0,1-34.52,39.68,110.33,110.33,0,0,1-40-43.37c-.42-.82-1.67-.11-1.25.7a111.82,111.82,0,0,0,40.8,44.1.64.64,0,0,0,.68,0,.8.8,0,0,0,.34-.11,102.94,102.94,0,0,0,35.18-40.3C1216.41,567.35,1215.16,566.64,1214.76,567.46Z" transform="translate(-697.66 -202)"/><path class="cls-16" d="M1220.13,569.46q-4.22,20.43-8.44,40.84c-.19.89,1.21,1.26,1.39.36q4.23-20.42,8.45-40.84C1221.71,568.93,1220.32,568.56,1220.13,569.46Z" transform="translate(-697.66 -202)"/><path class="cls-16" d="M1134.32,610.37q-4.86-20.76-9.74-41.51c-.21-.9-1.6-.53-1.39.36q4.86,20.76,9.74,41.52C1133.14,611.63,1134.53,611.26,1134.32,610.37Z" transform="translate(-697.66 -202)"/><path class="cls-30" d="M1191.31,553.66l1.7,10.11-12.59,12.58-13.61-10c24,.61,23.55-18.46,23.55-18.46Z" transform="translate(-697.66 -202)"/><path class="cls-31" d="M1190.36,547.91s.43,19.07-23.55,18.46h0l-2.27-1.66.67-11.59.21-3.3s7.16,5.75,14.59,5.75S1190.36,547.91,1190.36,547.91Z" transform="translate(-697.66 -202)"/><path class="cls-32" d="M1201.68,502s3.34,19.06,1.79,21.82c-.32.61-.9.42-1.79-.91-2-2.91-5.55.58-5.55.58s-1.82-17.83-6.6-18.6-12.5,5.47-18.75,4.89-11.38.12-11.2,5.57,1.4,11.45-.71,12-5.66-4-7.08,1.86c0,0-8.13-3.19-6-8.94s3.59-9,1.18-12.67,2.13-8.76,7.07-10.22,5.25-11.39,13.45-10.34,13.85,9.17,21.7,9.17A17.12,17.12,0,0,1,1201.68,502Z" transform="translate(-697.66 -202)"/><path class="cls-33" d="M1201.68,522.87c.89,1.33,1.47,1.52,1.79.91-.13,7.82-7.11,12.28-7.11,12.28.45,6.54-6,11.85-6,11.85s-2.93,7.66-10.35,7.66-14.59-5.75-14.59-5.75c-5.58-4.1-6.55-12.55-6.55-12.55a12.06,12.06,0,0,1-7.08-8.13c1.42-5.87,5-1.33,7.08-1.86s.88-6.5.71-12,5-6.15,11.2-5.57,14-5.63,18.75-4.89,6.6,18.6,6.6,18.6S1199.72,520,1201.68,522.87Z" transform="translate(-697.66 -202)"/><ellipse class="cls-32" cx="490.75" cy="325.37" rx="1.89" ry="2.76"/><path class="cls-32" d="M1192.05,520.8a9.46,9.46,0,0,0-7.66,0c-1.56.64-.24,2.88,1.3,2.24a6.55,6.55,0,0,1,5,0C1192.27,523.7,1193.6,521.47,1192.05,520.8Z" transform="translate(-697.66 -202)"/><ellipse class="cls-32" cx="470.88" cy="326.15" rx="1.89" ry="2.76"/><path class="cls-32" d="M1164.89,521.58a9.46,9.46,0,0,1,7.66-.05c1.55.64.24,2.88-1.3,2.24a6.55,6.55,0,0,0-5,.05C1164.67,524.48,1163.34,522.25,1164.89,521.58Z" transform="translate(-697.66 -202)"/><path class="cls-31" d="M1183.89,535.91c-1.05-3.86-3.31-7.73-4.89-11.41-.33-.77-1.46-.12-1.14.64l3,7a16.23,16.23,0,0,1,1.28,3c.44,2.93-.94,2.77-2.45,3.56-.75.39-.1,1.52.65,1.13C1182.2,538.8,1184.6,538.55,1183.89,535.91Z" transform="translate(-697.66 -202)"/><path class="cls-32" d="M1186,543.78a15.6,15.6,0,0,1-10.26.9.65.65,0,0,0-.33,1.25,17.06,17.06,0,0,0,11.24-1C1187.42,544.56,1186.77,543.44,1186,543.78Z" transform="translate(-697.66 -202)"/><path class="cls-34" d="M1243.61,647.1a74.59,74.59,0,0,1,14.81-6.71c5.51-1.7,10.36-2,14-.26,22.78,10.76,11.33,32.38,6.93,35.38-2.43,1.64-25.9,16.41-46.54,29.34h0c-1,.6-1.9,1.2-2.85,1.78-15.64,9.82-28.92,18.12-28.92,18.12l-3-4.49-14.17-21-1.9-2.82s13.32-13.18,30.12-26.92c5.71-4.66,11.84-9.39,18-13.7C1234.59,652.59,1239.19,649.61,1243.61,647.1Z" transform="translate(-697.66 -202)"/><path class="cls-35" d="M1232.83,704.85c11.06,2.26,14,22.69,7.7,27.54-.83.65-2.45,1.05-4.64,1.26,0,0,7.53-15-5.92-27,1-.58,1.9-1.18,2.85-1.78Z" transform="translate(-697.66 -202)"/><path class="cls-36" d="M1230,706.63c13.45,12,5.92,27,5.92,27-14.49,1.41-54-5.32-54-5.32l.09-.05a1.43,1.43,0,0,0,.21-.11h0l.11-.06,15.65-7.85,3,4.49S1214.33,716.45,1230,706.63Z" transform="translate(-697.66 -202)"/><path class="cls-37" d="M1212.68,669l-.62.5c-16.8,13.74-30.12,26.92-30.12,26.92l1.9,2.82-7.16,7.09L1158,692.74l3.14-3.59s-9.59-9.08-21.49-20.17Z" transform="translate(-697.66 -202)"/><path class="cls-38" d="M1183.84,699.22l14.17,21-15.65,7.85-.12.06a1.43,1.43,0,0,1-.21.11l-.09.05a.27.27,0,0,0-.12.06l-.52.26-4.61,2.3-5.46-1.24,6.93-2.07-2.31-15.3-6.29,1,7.12-7.06Z" transform="translate(-697.66 -202)"/><path class="cls-39" d="M1175.85,712.34l2.31,15.3-6.93,2.07,5.46,1.24c-7,3.55-40.64,10.31-55.7,9.64-1-.77-13.29-11.17-1.85-30.4,4.48-.14,11,.12,17.84.54,2.4,1,3.8,1.61,3.8,1.61l1.15-1.31c13.93,1,27.63,2.34,27.63,2.34Z" transform="translate(-697.66 -202)"/><path class="cls-40" d="M1176.68,706.31l-7.12,7.06s-13.7-1.38-27.63-2.34L1158,692.74Z" transform="translate(-697.66 -202)"/><path class="cls-41" d="M1080,629.1a16.32,16.32,0,0,1,16.74,1.24c4,3,13.38,11.35,23.78,20.88l0,0c4.61,4.22,8.67,8,12.82,11.81,2.16,2,4.29,4,6.35,5.93,11.9,11.09,21.49,20.17,21.49,20.17l-3.14,3.59L1141.93,711l-5-.3c-13.87-6.08-61.42-28.43-67-52C1066.23,642.63,1072.15,632.81,1080,629.1Z" transform="translate(-697.66 -202)"/><path class="cls-42" d="M1141.93,711l-1.15,1.31s-1.4-.57-3.8-1.61Z" transform="translate(-697.66 -202)"/><path class="cls-43" d="M1121,740.59a24,24,0,0,1-4.35-.54c-11.44-2.79-8.72-26.58-3.14-29.17a18,18,0,0,1,5.64-.69C1107.7,729.42,1120,739.82,1121,740.59Z" transform="translate(-697.66 -202)"/><path class="cls-44" d="M880.45,565.86,858.79,703.14l-19-.45c1.31-72.74,4.13-106.57,4.37-109.38l7.11-3.44,3.49-24.09C863.31,566.23,871.9,566.25,880.45,565.86Z" transform="translate(-697.66 -202)"/><polygon class="cls-45" points="167.13 513.64 182.79 530.96 158.45 529.86 148.54 515.06 146.37 529.43 142.13 529.43 142.13 500.69 161.14 501.14 167.13 513.64"/><path class="cls-46" d="M844.16,593.31l-79.46,42-8.37-18.32c53-38.35,69.24-52,69.24-52-.29-.85-.57-1.68-.84-2.51a261,261,0,0,0,30,3.37l-3.49,24.09Z" transform="translate(-697.66 -202)"/><polygon class="cls-47" points="58.67 414.94 67.04 433.26 61.85 439.42 57.33 465.42 42.75 438.74 49.26 427.34 38.98 430.66 36.96 426.15 58.67 414.94"/><path class="cls-48" d="M887.09,450.29c7.55,10.16,11.91,22.29,15.23,34.45a256.82,256.82,0,0,1,8.93,77.81,256.78,256.78,0,0,1-30.8,3.31c-8.55.39-17.14.37-25.69-.08a261,261,0,0,1-30-3.37q-7.29-1.26-14.49-2.94c-7.55-1.76-15.36-4.05-20.94-9.35l-.21-.2A211.17,211.17,0,0,1,833.37,449a.58.58,0,0,0,.16,0A99.41,99.41,0,0,0,887,450.09Z" transform="translate(-697.66 -202)"/><polygon class="cls-16" points="139.86 251.12 139.85 251.15 139.16 250.96 139.86 251.12"/><path class="cls-16" d="M796.21,549.13a1.17,1.17,0,0,1,0,1.28,1.56,1.56,0,0,1-1.29.69,1.37,1.37,0,0,1-1.2-.66l-2.11-3.39a1.15,1.15,0,0,1,0-1.28,1.58,1.58,0,0,1,1.29-.69,1.37,1.37,0,0,1,1.2.67Z" transform="translate(-697.66 -202)"/><path class="cls-16" d="M802.26,529.43a1.34,1.34,0,0,1-.82,1.82l-3.83,1.44a1.5,1.5,0,0,1-.53.1,1.25,1.25,0,0,1-1.18-.78,1.34,1.34,0,0,1,.81-1.83l3.84-1.43A1.31,1.31,0,0,1,802.26,529.43Z" transform="translate(-697.66 -202)"/><path class="cls-16" d="M799.78,541.28a1.34,1.34,0,0,1-1.2-.7l-1.74-3.22a1.3,1.3,0,0,1,.67-1.8,1.39,1.39,0,0,1,1.85.56l1.73,3.21a1.3,1.3,0,0,1-.67,1.8A1.39,1.39,0,0,1,799.78,541.28Z" transform="translate(-697.66 -202)"/><path class="cls-16" d="M801.7,544.5a1.28,1.28,0,0,1,.5,1.26l-.59,3.21a1.26,1.26,0,0,1-1.29,1h-.26a1.4,1.4,0,0,1-1.23-1.57l.59-3.22a1.18,1.18,0,0,1,.81-1A1.62,1.62,0,0,1,801.7,544.5Z" transform="translate(-697.66 -202)"/><path class="cls-16" d="M807,502.39a1.41,1.41,0,0,1,.8-1.17,1.39,1.39,0,0,1,1.35.08l3,1.83a1.24,1.24,0,0,1,.65,1.16,1.4,1.4,0,0,1-.79,1.17,1.37,1.37,0,0,1-.59.13,1.47,1.47,0,0,1-.75-.21l-3.06-1.83A1.31,1.31,0,0,1,807,502.39Z" transform="translate(-697.66 -202)"/><path class="cls-16" d="M808.94,512.08a1.32,1.32,0,0,1-.25-2l2.31-2.67a1.31,1.31,0,0,1,1.2-.46,1.44,1.44,0,0,1,1.12.87,1.28,1.28,0,0,1-.21,1.36l-2.31,2.68a1.35,1.35,0,0,1-1.86.18Z" transform="translate(-697.66 -202)"/><path class="cls-16" d="M816.3,548a1.18,1.18,0,0,1,0,1.31l-2,3.45a1.34,1.34,0,0,1-1.14.67h-.05a1.51,1.51,0,0,1-1.26-.66,1.18,1.18,0,0,1,0-1.3l2-3.45a1.35,1.35,0,0,1,1.16-.68A1.59,1.59,0,0,1,816.3,548Z" transform="translate(-697.66 -202)"/><path class="cls-16" d="M804.47,520.66l1.92,5a1.19,1.19,0,0,1-.81,1.6,1.84,1.84,0,0,1-.53.08,1.41,1.41,0,0,1-1.37-.89l-1.94-5a1.16,1.16,0,0,1,.22-1.2,1.58,1.58,0,0,1,1.41-.45A1.38,1.38,0,0,1,804.47,520.66Z" transform="translate(-697.66 -202)"/><path class="cls-16" d="M805.86,531a1.31,1.31,0,0,1,1.19.49l2.48,3a1.24,1.24,0,0,1,.18,1.36,1.49,1.49,0,0,1-1.14.86h-.17a1.31,1.31,0,0,1-1-.5l-2.5-3a1.27,1.27,0,0,1-.18-1.36A1.47,1.47,0,0,1,805.86,531Z" transform="translate(-697.66 -202)"/><path class="cls-16" d="M800.29,519.58a1.15,1.15,0,0,1-.31-1.73l2.88-3.75a1.55,1.55,0,0,1,2.08-.3,1.13,1.13,0,0,1,.31,1.73l-2.88,3.74a1.43,1.43,0,0,1-1.17.57A1.69,1.69,0,0,1,800.29,519.58Z" transform="translate(-697.66 -202)"/><path class="cls-16" d="M812.34,493.81a1.29,1.29,0,0,1-.19-1.37,1.51,1.51,0,0,1,1.14-.86,1.35,1.35,0,0,1,1.2.48l2.68,3.23a1.29,1.29,0,0,1,.19,1.36,1.49,1.49,0,0,1-1.14.85h-.17a1.32,1.32,0,0,1-1-.49Z" transform="translate(-697.66 -202)"/><path class="cls-16" d="M816.83,539.93l3.65,1.8a1.23,1.23,0,0,1,.73,1,1.38,1.38,0,0,1-.72,1.22,1.42,1.42,0,0,1-.72.2,1.44,1.44,0,0,1-.67-.16l-3.65-1.8a1.25,1.25,0,0,1-.75-1.06,1.43,1.43,0,0,1,.72-1.21A1.47,1.47,0,0,1,816.83,539.93Z" transform="translate(-697.66 -202)"/><path class="cls-16" d="M810.43,553.76a1.36,1.36,0,0,1-.79,1.16,1.37,1.37,0,0,1-1.35-.06l-4-2.36a1.29,1.29,0,0,1-.67-1.16,1.4,1.4,0,0,1,2.15-1.1l4,2.36A1.24,1.24,0,0,1,810.43,553.76Z" transform="translate(-697.66 -202)"/><path class="cls-16" d="M810.48,543.54a1.16,1.16,0,0,1,.09,1.25,1.58,1.58,0,0,1-1.27.73h-.06a1.43,1.43,0,0,1-1.19-.61l-1.73-2.5a1.21,1.21,0,0,1,.43-1.76,1.5,1.5,0,0,1,2,.39Z" transform="translate(-697.66 -202)"/><path class="cls-16" d="M809.23,526.36a1.29,1.29,0,0,1,.18-1.93,1.4,1.4,0,0,1,1.92.15l3,3.26a1.25,1.25,0,0,1,.27,1.31,1.49,1.49,0,0,1-1.13.91.82.82,0,0,1-.22,0,1.38,1.38,0,0,1-1-.45Z" transform="translate(-697.66 -202)"/><path class="cls-16" d="M816.83,511.84l-1.54-3.2a1.29,1.29,0,0,1,.14-1.35,1.52,1.52,0,0,1,1.36-.58,1.29,1.29,0,0,1,1,.73l1.54,3.21a1.35,1.35,0,0,1-.79,1.83,1.4,1.4,0,0,1-.57.1A1.27,1.27,0,0,1,816.83,511.84Z" transform="translate(-697.66 -202)"/><path class="cls-16" d="M807.49,516a1.58,1.58,0,0,1,1.4-.46,1.45,1.45,0,0,1,1.11.87l1.35,3.39a1.1,1.1,0,0,1-.2,1.2,1.54,1.54,0,0,1-1.14.48,1.06,1.06,0,0,1-.25,0,1.45,1.45,0,0,1-1.12-.87l-1.35-3.39A1.12,1.12,0,0,1,807.49,516Z" transform="translate(-697.66 -202)"/><path class="cls-16" d="M823,526.57a1.33,1.33,0,0,1-.85.31,1.83,1.83,0,0,1-.46-.07l-4.62-1.41a1.34,1.34,0,0,1-1-1,1.37,1.37,0,0,1,.45-1.31,1.4,1.4,0,0,1,1.32-.23l4.61,1.41a1.42,1.42,0,0,1,1,1A1.34,1.34,0,0,1,823,526.57Z" transform="translate(-697.66 -202)"/><path class="cls-16" d="M821.12,478.12a1.18,1.18,0,0,1,.46-1.15l3.32-2.63a1.55,1.55,0,0,1,1.41-.24,1.46,1.46,0,0,1,1,1,1.17,1.17,0,0,1-.48,1.16l-3.32,2.62a1.46,1.46,0,0,1-.92.31,2.05,2.05,0,0,1-.49-.06A1.44,1.44,0,0,1,821.12,478.12Z" transform="translate(-697.66 -202)"/><path class="cls-16" d="M827.05,540.6a1.27,1.27,0,0,1-.14,1.35,1.57,1.57,0,0,1-1.21.6l-.13,0a1.26,1.26,0,0,1-1.06-.74l-1.53-3.2a1.26,1.26,0,0,1,.15-1.35,1.61,1.61,0,0,1,1.34-.58,1.29,1.29,0,0,1,1,.74Z" transform="translate(-697.66 -202)"/><path class="cls-16" d="M835.85,498.3a1.23,1.23,0,0,1-.73,1.07l-4.62,2.32a1.37,1.37,0,0,1-.68.17,1.51,1.51,0,0,1-.71-.19,1.41,1.41,0,0,1-.72-1.21,1.2,1.2,0,0,1,.73-1.07l4.61-2.33a1.44,1.44,0,0,1,1.41,0A1.36,1.36,0,0,1,835.85,498.3Z" transform="translate(-697.66 -202)"/><path class="cls-16" d="M821.52,547.62l0,3.67a1.28,1.28,0,0,1-.7,1.2,1.59,1.59,0,0,1-.73.17,1.46,1.46,0,0,1-.75-.18,1.24,1.24,0,0,1-.67-1.11l0-3.75a1.26,1.26,0,0,1,.7-1.12,1.6,1.6,0,0,1,1.49,0A1.2,1.2,0,0,1,821.52,547.62Z" transform="translate(-697.66 -202)"/><path class="cls-16" d="M820.35,504.78a1.18,1.18,0,0,1,0-1.29l1.72-3.05a1.43,1.43,0,0,1,1.89-.51,1.27,1.27,0,0,1,.61,1.8l-1.73,3a1.3,1.3,0,0,1-1.14.69h0A1.54,1.54,0,0,1,820.35,504.78Z" transform="translate(-697.66 -202)"/><path class="cls-16" d="M820.35,494.85a1.27,1.27,0,0,1,.34-.88,1.42,1.42,0,0,1,1.06-.44h5.19a1.32,1.32,0,1,1,0,2.64h-5.19A1.33,1.33,0,0,1,820.35,494.85Z" transform="translate(-697.66 -202)"/><path class="cls-16" d="M816.53,516.72a1.43,1.43,0,0,1,1.28-1.59l4.42-.54a1.25,1.25,0,0,1,1.47,1,1.4,1.4,0,0,1-1.28,1.58l-4.42.55h-.2A1.23,1.23,0,0,1,816.53,516.72Z" transform="translate(-697.66 -202)"/><path class="cls-16" d="M827.74,525.88a1.69,1.69,0,0,1-.6.12,1.27,1.27,0,0,1-1.18-.74l-1.69-3.39A1.34,1.34,0,0,1,825,520a1.36,1.36,0,0,1,1.79.62l1.68,3.4A1.33,1.33,0,0,1,827.74,525.88Z" transform="translate(-697.66 -202)"/><path class="cls-16" d="M818.31,533.92a1.51,1.51,0,0,1-.88-.25,1.14,1.14,0,0,1-.34-1.73l1.72-2.33a1.53,1.53,0,0,1,2.05-.31,1.14,1.14,0,0,1,.36,1.73l-1.74,2.33A1.45,1.45,0,0,1,818.31,533.92Z" transform="translate(-697.66 -202)"/><path class="cls-16" d="M825.91,484.66a1.16,1.16,0,0,1,.64,1.11l-.1,4.28a1.34,1.34,0,0,1-1.44,1.28h0A1.59,1.59,0,0,1,824,491a1.22,1.22,0,0,1-.44-1l.1-4.27a1.25,1.25,0,0,1,.73-1.12A1.55,1.55,0,0,1,825.91,484.66Z" transform="translate(-697.66 -202)"/><path class="cls-16" d="M828.52,508.26a1.58,1.58,0,0,1,1.47-.15,1.39,1.39,0,0,1,.9,1.09l.55,4.1a1.08,1.08,0,0,1-.47,1.12,1.47,1.47,0,0,1-.85.25,1.57,1.57,0,0,1-.61-.1,1.4,1.4,0,0,1-.9-1.1l-.57-4.1A1.12,1.12,0,0,1,828.52,508.26Z" transform="translate(-697.66 -202)"/><path class="cls-16" d="M834.52,532.47a1.17,1.17,0,0,1-.48,1.15l-3.46,2.67a1.47,1.47,0,0,1-.92.32,1.52,1.52,0,0,1-.51-.09,1.43,1.43,0,0,1-1-1,1.16,1.16,0,0,1,.47-1.14l3.47-2.67a1.55,1.55,0,0,1,1.43-.23A1.43,1.43,0,0,1,834.52,532.47Z" transform="translate(-697.66 -202)"/><path class="cls-16" d="M833.27,544a1.3,1.3,0,0,1,.36,1.91,1.37,1.37,0,0,1-1.1.57,1.48,1.48,0,0,1-.79-.24l-2.49-1.6a1.29,1.29,0,0,1-.63-1.21,1.45,1.45,0,0,1,.83-1.15,1.39,1.39,0,0,1,1.31.12Z" transform="translate(-697.66 -202)"/><path class="cls-16" d="M829.21,467.07a1.4,1.4,0,0,1,1.89-.42l3.08,1.78a1.25,1.25,0,0,1,.44,1.85,1.4,1.4,0,0,1-1.16.62,1.61,1.61,0,0,1-.75-.19l-3.08-1.79A1.25,1.25,0,0,1,829.21,467.07Z" transform="translate(-697.66 -202)"/><path class="cls-16" d="M816.13,487.92l1-3.55a1.28,1.28,0,0,1,.7-.85,1.52,1.52,0,0,1,1-.09,1.44,1.44,0,0,1,.84.53,1.14,1.14,0,0,1,.22,1.05l-1,3.57a1.34,1.34,0,0,1-1.34,1,1.18,1.18,0,0,1-.37-.05A1.3,1.3,0,0,1,816.13,487.92Z" transform="translate(-697.66 -202)"/><path class="cls-16" d="M836.61,462.36l4.62-2.66a1.45,1.45,0,0,1,1.37-.06,1.42,1.42,0,0,1,.77,1.18,1.31,1.31,0,0,1-.67,1.16l-4.62,2.66a1.62,1.62,0,0,1-.75.2,1.53,1.53,0,0,1-.62-.15,1.37,1.37,0,0,1-.77-1.18A1.24,1.24,0,0,1,836.61,462.36Z" transform="translate(-697.66 -202)"/><path class="cls-16" d="M838,474.5l1.5-3.41a1.52,1.52,0,0,1,2-.74,1.13,1.13,0,0,1,.73,1.57l-1.5,3.41a1.46,1.46,0,0,1-1.39.85,2,2,0,0,1-.59-.09A1.15,1.15,0,0,1,838,474.5Z" transform="translate(-697.66 -202)"/><path class="cls-16" d="M843.59,476.84a1.46,1.46,0,0,1,2,0l2.33,2.29a1.23,1.23,0,0,1-.07,1.88,1.48,1.48,0,0,1-1,.37,1.46,1.46,0,0,1-1-.41l-2.34-2.29A1.26,1.26,0,0,1,843.59,476.84Z" transform="translate(-697.66 -202)"/><path class="cls-16" d="M838.08,481.55a1.47,1.47,0,0,1,1-.12,1.36,1.36,0,0,1,.87.67l1.34,2.5a1.3,1.3,0,0,1-.67,1.8,1.67,1.67,0,0,1-.66.15,1.87,1.87,0,0,1-.32,0,1.34,1.34,0,0,1-.86-.66l-1.35-2.5A1.29,1.29,0,0,1,838.08,481.55Z" transform="translate(-697.66 -202)"/><path class="cls-16" d="M850.05,514.08a1.45,1.45,0,0,1-1.27.74,1.73,1.73,0,0,1-.68-.16l-3.88-1.89a1.22,1.22,0,0,1-.74-1.06,1.42,1.42,0,0,1,.7-1.22,1.5,1.5,0,0,1,1.41,0l3.89,1.89A1.22,1.22,0,0,1,850.05,514.08Z" transform="translate(-697.66 -202)"/><path class="cls-16" d="M838.12,492.19a1.44,1.44,0,0,1-1.06.45,1.46,1.46,0,0,1-1-.37l-3.67-3.18a1.2,1.2,0,0,1,0-1.82,1.51,1.51,0,0,1,2-.09l3.67,3.2A1.19,1.19,0,0,1,838.12,492.19Z" transform="translate(-697.66 -202)"/><path class="cls-16" d="M832.12,461.14a1.78,1.78,0,0,0,.44.06,1.37,1.37,0,0,0,1.34-.95l1.16-3.75a1.25,1.25,0,0,0-1-1.58,1.42,1.42,0,0,0-1.79.88l-1.15,3.76A1.25,1.25,0,0,0,832.12,461.14Zm1.57-5,0,0L833,456Z" transform="translate(-697.66 -202)"/><path class="cls-16" d="M838.8,497.79a1.37,1.37,0,0,1,2.16-1l4.22,2.87a1.3,1.3,0,0,1,.58,1.24,1.37,1.37,0,0,1-.84,1.11,1.17,1.17,0,0,1-.51.11,1.37,1.37,0,0,1-.79-.25L839.4,499A1.32,1.32,0,0,1,838.8,497.79Z" transform="translate(-697.66 -202)"/><path class="cls-16" d="M840.39,505.4l-.25,3.73a1.41,1.41,0,0,1-1.48,1.27h-.09a1.28,1.28,0,0,1-1.28-1.33l.24-3.75a1.31,1.31,0,0,1,.79-1.11,1.58,1.58,0,0,1,1.48.07A1.22,1.22,0,0,1,840.39,505.4Z" transform="translate(-697.66 -202)"/><path class="cls-16" d="M834.4,475.32a1.24,1.24,0,0,1,.07,1.32l-2,3.55a1.27,1.27,0,0,1-1.11.68.1.1,0,0,1-.07,0,1.58,1.58,0,0,1-1.26-.65,1.24,1.24,0,0,1-.06-1.32l2-3.55a1.3,1.3,0,0,1,1.12-.68A1.49,1.49,0,0,1,834.4,475.32Z" transform="translate(-697.66 -202)"/><path class="cls-16" d="M834.64,524.92a1.1,1.1,0,0,1-.16,1.19,1.52,1.52,0,0,1-1.17.5h-.21a1.46,1.46,0,0,1-1.17-.85l-1.73-3.91a1.15,1.15,0,0,1,.15-1.2,1.58,1.58,0,0,1,1.38-.49,1.43,1.43,0,0,1,1.17.84Z" transform="translate(-697.66 -202)"/><path class="cls-16" d="M845.16,467.78a1.15,1.15,0,0,1,.23-1.2,1.6,1.6,0,0,1,1.4-.45,1.44,1.44,0,0,1,1.1.87l1.15,3a1.19,1.19,0,0,1-.83,1.6,1.6,1.6,0,0,1-.51.08,1.41,1.41,0,0,1-1.37-.88Z" transform="translate(-697.66 -202)"/><path class="cls-16" d="M845.89,460.26a1.23,1.23,0,0,1-.27-1.3,1.44,1.44,0,0,1,1.11-.91,1.38,1.38,0,0,1,1.26.41l3.66,3.92a1.28,1.28,0,0,1-.16,1.91,1.51,1.51,0,0,1-.91.32,1.38,1.38,0,0,1-1-.44Z" transform="translate(-697.66 -202)"/><path class="cls-16" d="M867.58,479.06a1.41,1.41,0,0,1-1.23.72,1.47,1.47,0,0,1-.7-.19l-4.06-2.09a1.23,1.23,0,0,1-.73-1.08,1.42,1.42,0,0,1,.73-1.2,1.45,1.45,0,0,1,1.4,0l4.06,2.1A1.2,1.2,0,0,1,867.58,479.06Z" transform="translate(-697.66 -202)"/><path class="cls-16" d="M853.9,488.66a1.3,1.3,0,0,1-1.35,1.23h-.07l-5.39-.22a1.36,1.36,0,0,1-1.37-1.42,1.34,1.34,0,0,1,1.42-1.23l5.39.23A1.37,1.37,0,0,1,853.9,488.66Z" transform="translate(-697.66 -202)"/><path class="cls-16" d="M858.27,481.92a1.21,1.21,0,0,1,.47,1v3.21a1.34,1.34,0,0,1-1.43,1.3,1.47,1.47,0,0,1-.95-.32,1.23,1.23,0,0,1-.48-1v-3.2a1.35,1.35,0,0,1,1.44-1.31A1.55,1.55,0,0,1,858.27,481.92Z" transform="translate(-697.66 -202)"/><path class="cls-16" d="M860.82,470.16a1.45,1.45,0,0,1-1,.43,2,2,0,0,1-.33,0l-3.65-.73a1.25,1.25,0,0,1-1-1.53,1.42,1.42,0,0,1,1.71-1.05l3.64.74a1.3,1.3,0,0,1,1,.84A1.36,1.36,0,0,1,860.82,470.16Z" transform="translate(-697.66 -202)"/><path class="cls-16" d="M868.28,467.41l-.16,3.92a1.36,1.36,0,0,1-1.44,1.28h-.06a1.51,1.51,0,0,1-.93-.34,1.23,1.23,0,0,1-.41-1l.14-3.92a1.37,1.37,0,0,1,1.52-1.28,1.42,1.42,0,0,1,.92.35A1.2,1.2,0,0,1,868.28,467.41Z" transform="translate(-697.66 -202)"/><path class="cls-16" d="M856.34,477.34a1.32,1.32,0,0,1-.78-.23L852.28,475a1.3,1.3,0,0,1-.63-1.22,1.38,1.38,0,0,1,2.15-1l3.28,2.11a1.28,1.28,0,0,1,.34,1.91A1.32,1.32,0,0,1,856.34,477.34Z" transform="translate(-697.66 -202)"/><path class="cls-16" d="M857.11,462.19l1.16-3a1.5,1.5,0,0,1,1.89-.82,1.2,1.2,0,0,1,.83,1.59l-1.16,3a1.44,1.44,0,0,1-1.38.9,1.71,1.71,0,0,1-.51-.09A1.18,1.18,0,0,1,857.11,462.19Z" transform="translate(-697.66 -202)"/><path class="cls-16" d="M853.72,504.94a1.31,1.31,0,0,1-.63,1.2l-3.08,2a1.4,1.4,0,0,1-.78.24,1.36,1.36,0,0,1-1.09-.56,1.28,1.28,0,0,1,.36-1.91l3.08-2a1.34,1.34,0,0,1,1.31-.12A1.42,1.42,0,0,1,853.72,504.94Z" transform="translate(-697.66 -202)"/><path class="cls-16" d="M837.08,336.34a9.33,9.33,0,0,1-2.18,1.58l-.17.08a16.36,16.36,0,0,1-7.17,1.56c-3.66,0-7.33-.61-11-.25-6,.6-12.09,4.84-12.45,10.74-.23,3.89,2,7.65,1.57,11.51s-3.7,7.17-7.17,9.34-7.32,3.74-10.37,6.44a8.28,8.28,0,0,0-2.64,3.7c-1,3.24,1.19,6.52,3.36,9.13s4.62,5.52,4.28,8.87c-.18,1.86-1.23,3.6-1.19,5.47,0,2.78,2.39,4.92,4.55,6.71.81.66,1.61,1.33,2.43,2l0,0a8.9,8.9,0,0,0-1-.66c-3.15-1.75-7.06-.64-10.67-.29-4.92.47-10.16-.7-13.9-3.9s-5.68-8.58-4.07-13.2c1.43-4.07,5.32-7.25,5.71-11.53.33-3.9-2.35-7.42-3.05-11.27a11.72,11.72,0,0,1,4.48-11.23c5.05-3.75,13-3.36,16.64-8.41,3.57-4.88,1-11.81,2.67-17.6a12.78,12.78,0,0,1,8.82-8.63c3.28-.87,7.05-.51,9.76-2.52,1.85-1.38,2.82-3.61,3.58-5.78,2.46-7,3.67-14.56,7.26-21.09,6.36-11.56,20.44-18.54,33.59-16.44S883.08,294,884.78,307c1.13,8.71-1.63,17.51-5.62,25.36-4.91,9.71-13,19.21-23.9,20.39h-.19V341.88c6.87.35,14.66-2,14.66-2,1.53-4.46,2.53-15.87,2.53-15.87H877c1.54-14.86-3-24.76-4.32-27.33-.12,4-.87,8.2-3.83,10.87-4.59,4.16-12.26,2.66-17.41,6.12-6.34,4.23-6.08,13.63-10.66,19.68a14.35,14.35,0,0,1-3.74,3.42Z" transform="translate(-697.66 -202)"/><path class="cls-49" d="M872.64,296.72c1.34,2.57,5.86,12.47,4.32,27.33h-4.7s-1,11.41-2.53,15.87c0,0-7.79,2.31-14.66,2,0,0-9.73-1.15-13.66-2,0,0,4.16,21.3,13.66,26,0,0-18.1-4.1-21.17-11.94l3.1-17.19a14.35,14.35,0,0,0,3.74-3.42c4.58-6.05,4.32-15.45,10.66-19.68,5.15-3.46,12.82-2,17.41-6.12C871.77,304.92,872.52,300.69,872.64,296.72Z" transform="translate(-697.66 -202)"/><path class="cls-31" d="M855.07,361v5c-9.5-4.72-13.66-26-13.66-26,3.93.81,13.66,2,13.66,2V361Z" transform="translate(-697.66 -202)"/><path class="cls-32" d="M837.08,336.34l-.08.47a15.62,15.62,0,0,1-2.1,1.11A9.33,9.33,0,0,0,837.08,336.34Z" transform="translate(-697.66 -202)"/><path class="cls-32" d="M799,413.21c-.82-.66-1.62-1.33-2.43-2-2.16-1.79-4.51-3.93-4.55-6.71,0-1.87,1-3.61,1.19-5.47.34-3.35-2.1-6.28-4.28-8.87s-4.34-5.89-3.36-9.13a8.28,8.28,0,0,1,2.64-3.7c3.05-2.7,6.92-4.27,10.37-6.44s6.7-5.33,7.17-9.34-1.8-7.62-1.57-11.51c.36-5.9,6.48-10.14,12.45-10.74,3.65-.36,7.32.29,11,.25a16.36,16.36,0,0,0,7.17-1.56l.17-.08a15.62,15.62,0,0,0,2.1-1.11L833.9,354a26.21,26.21,0,0,0-10.67,10.53h0a17.6,17.6,0,0,0-2.65,6.15s0,0,0,0h0a9,9,0,0,0-.74,2.67c-1.84,7.4-1.88,15.88-.89,24.42-2.16,1.46-3,4.66-3,7.41,0,3.32.64,6.91-1.16,9.72-2.66,4.13-9.34,3.88-13.15.74-.94-.78-1.77-1.71-2.74-2.45Z" transform="translate(-697.66 -202)"/><ellipse class="cls-32" cx="868.01" cy="315.31" rx="2.82" ry="2.01" transform="translate(-339 883.65) rotate(-76.49)"/><path class="cls-32" d="M865.61,309.09a6.54,6.54,0,0,1,5.28-.42,1.43,1.43,0,1,1-.75,2.76,3.68,3.68,0,0,0-3.08.13C865.41,312.41,864,310,865.61,309.09Z" transform="translate(-697.66 -202)"/><path class="cls-19" d="M871.12,329.66l-6.6-.51s-.48,8.48,5.3,7.89Z" transform="translate(-697.66 -202)"/><path class="cls-50" d="M979.17,389.83c-6.64.3-16.48-6.12-22.18-4.1L879.28,416l-2.89-1.78c-2.42-1.48-6.23-3.81-10.85-6.61,2.34-8.81,2.6-17.9,5.05-26.69a62.87,62.87,0,0,0,8.69,6.8l72.38-14.77,2.9-.93s9.47-16,12.55-15.21-1.21,12.72-1.21,12.72,13-1.6,22,4S985.8,389.54,979.17,389.83Z" transform="translate(-697.66 -202)"/><path class="cls-51" d="M887,450.09A99.41,99.41,0,0,1,833.53,449l-.06-.15c-1-2.2-11.79-26.89-14.54-51.06-1-8.54-.95-17,.89-24.42-.61,4.26.59,13,16.25,21.79,9.34,5.24,20.51,11.85,30.25,17.69-.54,1.15-1.09,2.3-1.63,3.47l.37.16a81.4,81.4,0,0,1,10.24,5.83h0c.29-1.15.6-2.31.91-3.46,4.62,2.8,8.43,5.13,10.84,6.61v24.55Z" transform="translate(-697.66 -202)"/><path class="cls-52" d="M884.36,389.17l-.93,3.31q-3.66,13.18-7.18,26.41c-.31,1.15-.62,2.31-.91,3.46h0a81.4,81.4,0,0,0-10.24-5.83l-.37-.16c.54-1.17,1.09-2.32,1.63-3.47q6-12.45,12.77-24.47l1.17-2h0A26.34,26.34,0,0,0,884.36,389.17Z" transform="translate(-697.66 -202)"/><path class="cls-53" d="M870.59,380.9c3.08,2.6,6,5.17,8.5,7.51q-6.83,12-12.77,24.47c-9.74-5.84-20.91-12.45-30.25-17.69-15.66-8.81-16.86-17.53-16.25-21.79.21-.9.47-1.8.74-2.67h0s0,0,0,0a32.79,32.79,0,0,1,2.65-6.15h0C831.92,352.27,854.16,367.07,870.59,380.9Z" transform="translate(-697.66 -202)"/><path class="cls-54" d="M870.59,380.9l-15.52-15v-5C867.92,366.66,870.59,380.9,870.59,380.9Z" transform="translate(-697.66 -202)"/><path class="cls-55" d="M855.07,365.94l15.52,15c-16.43-13.83-38.67-28.63-47.36-16.37A26.21,26.21,0,0,1,833.9,354C837,361.84,855.07,365.94,855.07,365.94Z" transform="translate(-697.66 -202)"/><path class="cls-56" d="M989.88,401.13c-6.64.31-16.48-6.12-22.18-4.1L890,427.29l-2.89-1.79c-2.42-1.48-6.23-3.81-10.85-6.61q3.51-13.22,7.18-26.41C887.5,396.37,890,399,890,399l72.38-14.77,2.9-.92s9.47-16,12.55-15.22-1.21,12.72-1.21,12.72,13-1.6,21.95,4S996.51,400.84,989.88,401.13Z" transform="translate(-697.66 -202)"/></g></g></svg>