<svg id="layer_1" data-name="layer 1" xmlns="http://www.w3.org/2000/svg" viewBox="0 0 306.33 304.49"><defs><style>.cls-1,.cls-5{fill:#173d7a;}.cls-1{opacity:0.5;}.cls-2{fill:#ff2c9c;}.cls-3{fill:#fff;}.cls-4{fill:#5793ce;}.cls-6{fill:#396caa;}.cls-7{fill:#d4ecff;}.cls-8{fill:#d3008d;}.cls-9{fill:#fdd762;}.cls-10{fill:#e8a200;}.cls-11{fill:#f9bf30;}.cls-12{fill:#092e63;}.cls-13{fill:#f2b42a;}</style></defs><title>winner</title><path class="cls-1" d="M165.1,264.88c-8.73,4.6-22.88,4.6-31.6,0s-8.73-12,0-16.65,22.87-4.59,31.6,0S173.83,260.28,165.1,264.88Z" transform="translate(-89.56 -127.08)"/><path class="cls-2" d="M174.72,246.49V240h-1.35a15.74,15.74,0,0,0-6.1-5.21c-9.92-5.22-26-5.22-36,0a15.81,15.81,0,0,0-6.1,5.21h-1.34v6.48h0c0,3.43,2.46,6.88,7.44,9.5,9.93,5.23,26,5.23,36,0C172.24,253.34,174.72,249.92,174.72,246.49Z" transform="translate(-89.56 -127.08)"/><ellipse class="cls-2" cx="59.73" cy="112.9" rx="25.42" ry="13.39"/><path class="cls-3" d="M167.28,249.45c-9.93,5.23-26,5.23-36,0-4.76-2.51-7.21-5.76-7.41-9-.21,3.57,2.24,7.18,7.41,9.9,9.93,5.23,26,5.23,36,0,5.17-2.72,7.62-6.33,7.4-9.9C174.49,243.69,172,246.94,167.28,249.45Z" transform="translate(-89.56 -127.08)"/><path class="cls-3" d="M137,244.41a1.06,1.06,0,0,1-.67-.85l0-8.73c0-.66,1-1.2,2.29-1.2s2.29.54,2.29,1.21l0,7.23,23-2.57c1.24-.14,2.45.28,2.71.93s-.53,1.29-1.76,1.43l-25.78,2.88a4.14,4.14,0,0,1-1.92-.24Z" transform="translate(-89.56 -127.08)"/><path class="cls-1" d="M384.8,301.09l-85.69-49.63c-4.65-2.69-12.79-2.37-18.17.73L101.1,355.69c-5.38,3.1-6,7.79-1.32,10.49l85.69,49.62c4.66,2.7,12.79,2.37,18.18-.73L383.48,311.58C388.86,308.48,389.45,303.78,384.8,301.09Z" transform="translate(-89.56 -127.08)"/><path class="cls-4" d="M183,397.42,93.8,345.78c-2.93-1.7-4.29-4-4.2-6.36h0l0-12.94,5,5.81c.32-.21.65-.42,1-.63L278,226.68c7.25-4.17,18.19-4.61,24.46-1l87.92,50.91c1.78-1.94,5.51-6.06,5.51-6.06l0,12.66h0c.13,2.85-1.9,5.89-6,8.24l-182.43,105C200.19,400.61,189.24,401.05,183,397.42Z" transform="translate(-89.56 -127.08)"/><path class="cls-5" d="M134.76,365.74l5.13,3c.69.4,1.24,0,1.24-.93h0a2.93,2.93,0,0,0-1.24-2.36l-5.13-3c-.68-.4-1.24,0-1.24.93h0A3,3,0,0,0,134.76,365.74Z" transform="translate(-89.56 -127.08)"/><path class="cls-6" d="M278,226.68c7.25-4.17,18.19-4.61,24.46-1l87.92,50.91c1.78-1.94,5.51-6.06,5.51-6.06l0,12.66h0c.13,2.85-1.9,5.89-6,8.24l-182.43,105a28.31,28.31,0,0,1-13.17,3.42l.18-125.09Z" transform="translate(-89.56 -127.08)"/><path class="cls-7" d="M391.67,264.33l-89.18-51.64c-6.26-3.63-17.21-3.19-24.45,1l-182.42,105c-7.25,4.16-8,10.48-1.78,14.11L183,384.41c6.26,3.63,17.21,3.19,24.45-1l182.42-105C397.14,274.28,397.93,268,391.67,264.33Z" transform="translate(-89.56 -127.08)"/><path class="cls-3" d="M183,385.79,93.77,334.15c-3.23-1.87-4.56-4.46-4.12-7.1.15,2.15,1.53,4.18,4.19,5.72L183,384.41c6.26,3.63,17.21,3.19,24.45-1l182.42-105c3.51-2,5.49-4.54,5.91-7,.21,2.89-1.81,6-6,8.4l-182.43,105C200.16,389,189.21,389.42,183,385.79Z" transform="translate(-89.56 -127.08)"/><path class="cls-5" d="M384.8,266.36l-85.69-49.62c-4.65-2.69-12.79-2.37-18.17.73L101.1,321c-5.38,3.1-6,7.79-1.32,10.49l85.69,49.62c4.66,2.69,12.79,2.37,18.18-.73L383.48,276.86C388.86,273.76,389.45,269.06,384.8,266.36Z" transform="translate(-89.56 -127.08)"/><polygon class="cls-7" points="117.49 228.23 57.03 193.32 60.89 191.09 121.35 226 117.49 228.23"/><polygon class="cls-7" points="75.42 218.06 44.8 200.38 48.66 198.15 79.28 215.83 75.42 218.06"/><polygon class="cls-2" points="90.28 226.63 80.35 220.9 84.21 218.67 94.14 224.4 90.28 226.63"/><polygon class="cls-3" points="105.27 235.29 95.34 229.56 99.2 227.33 109.13 233.06 105.27 235.29"/><polygon class="cls-3" points="75.76 211.2 50.91 196.85 54.77 194.62 79.62 208.97 75.76 211.2"/><polygon class="cls-7" points="106.09 228.71 81.25 214.36 85.11 212.13 109.95 226.48 106.09 228.71"/><path class="cls-2" d="M177.26,325.12a5,5,0,0,1-4.5,0,1.37,1.37,0,0,1,0-2.6,5,5,0,0,1,4.5,0C178.51,323.24,178.51,324.4,177.26,325.12Z" transform="translate(-89.56 -127.08)"/><path class="cls-3" d="M184,329a5,5,0,0,1-4.5,0c-1.25-.72-1.25-1.88,0-2.6a5,5,0,0,1,4.5,0A1.37,1.37,0,0,1,184,329Z" transform="translate(-89.56 -127.08)"/><path class="cls-7" d="M190.72,332.89a5,5,0,0,1-4.5,0c-1.25-.72-1.25-1.89,0-2.6a5,5,0,0,1,4.5,0A1.37,1.37,0,0,1,190.72,332.89Z" transform="translate(-89.56 -127.08)"/><path class="cls-2" d="M197.45,336.77a5,5,0,0,1-4.51,0,1.37,1.37,0,0,1,0-2.6,5,5,0,0,1,4.51,0A1.37,1.37,0,0,1,197.45,336.77Z" transform="translate(-89.56 -127.08)"/><path class="cls-3" d="M204.17,340.65a5,5,0,0,1-4.5,0,1.37,1.37,0,0,1,0-2.6,5,5,0,0,1,4.5,0C205.42,338.77,205.42,339.94,204.17,340.65Z" transform="translate(-89.56 -127.08)"/><polygon class="cls-2" points="249.84 139.67 239.66 133.79 243.62 131.51 253.8 137.39 249.84 139.67"/><polygon class="cls-3" points="264.02 147.86 253.84 141.98 257.8 139.69 267.98 145.57 264.02 147.86"/><polygon class="cls-3" points="204.37 113.17 194.19 107.29 198.15 105.01 208.33 110.89 204.37 113.17"/><polygon class="cls-3" points="247.57 145.6 233.4 137.41 237.36 135.13 251.53 143.31 247.57 145.6"/><polygon class="cls-7" points="257.76 151.47 251.53 147.88 255.49 145.6 261.71 149.19 257.76 151.47"/><polygon class="cls-1" points="279.35 113.29 262.12 103.34 279.35 93.39 296.58 103.34 279.35 113.29"/><polygon class="cls-8" points="296.58 90.71 279.35 100.66 279.35 80.77 296.58 70.82 296.58 90.71"/><polygon class="cls-2" points="279.35 80.77 262.12 70.82 279.35 60.87 296.58 70.82 279.35 80.77"/><polygon class="cls-2" points="279.35 100.66 262.12 90.71 262.12 70.82 279.35 80.77 279.35 100.66"/><polygon class="cls-3" points="273.15 89.91 268.33 87.13 268.33 81.57 273.15 84.35 273.15 89.91"/><polygon class="cls-1" points="18.98 300.83 1.04 290.47 18.98 280.11 36.92 290.47 18.98 300.83"/><polygon class="cls-5" points="36.92 277.32 18.98 287.68 18.98 266.96 36.92 256.61 36.92 277.32"/><polygon class="cls-7" points="18.98 266.96 1.04 256.61 18.98 246.25 36.92 256.61 18.98 266.96"/><polygon class="cls-4" points="18.98 287.68 1.04 277.32 1.04 256.61 18.98 266.96 18.98 287.68"/><polygon class="cls-3" points="12.52 276.49 7.5 273.59 7.5 267.8 12.52 270.69 12.52 276.49"/><polygon class="cls-1" points="224.71 274.91 242.53 264.63 260.35 274.91 242.53 285.2 224.71 274.91"/><polygon class="cls-1" points="192.68 294.21 210.5 283.92 228.32 294.21 210.5 304.5 192.68 294.21"/><polygon class="cls-1" points="256.74 256.61 274.56 246.32 292.38 256.61 274.56 266.9 256.74 256.61"/><polygon class="cls-9" points="274.56 256.61 274.56 223.44 254.22 211.7 254.22 244.87 274.56 256.61"/><polygon class="cls-10" points="274.56 223.44 294.89 211.7 294.89 244.87 274.56 256.61 274.56 223.44"/><polygon class="cls-9" points="254.22 211.7 274.56 199.96 294.89 211.7 274.56 223.44 254.22 211.7"/><polygon class="cls-9" points="274.56 225.1 294.89 213.35 294.89 214.44 274.56 226.19 254.22 214.44 254.22 213.35 274.56 225.1"/><polygon class="cls-2" points="242.53 275.41 242.53 228.17 222.19 216.42 222.19 263.66 242.53 275.41"/><polygon class="cls-8" points="242.53 228.17 262.87 216.42 262.87 263.66 242.53 275.41 242.53 228.17"/><polygon class="cls-2" points="222.19 216.42 242.53 204.68 262.87 216.42 242.53 228.17 222.19 216.42"/><polygon class="cls-2" points="242.53 229.82 262.87 218.08 262.87 219.16 242.53 230.91 222.19 219.16 222.19 218.08 242.53 229.82"/><polygon class="cls-4" points="210.5 294.21 210.5 273.54 190.16 261.8 190.16 282.46 210.5 294.21"/><polygon class="cls-6" points="210.5 273.54 230.84 261.8 230.84 282.46 210.5 294.21 210.5 273.54"/><polygon class="cls-7" points="190.16 261.8 210.5 250.05 230.84 261.8 210.5 273.54 190.16 261.8"/><polygon class="cls-4" points="210.5 275.18 230.84 263.44 230.84 264.53 210.5 276.27 190.16 264.53 190.16 263.44 210.5 275.18"/><path class="cls-9" d="M208.67,135.78l-6-3.49c-4.6-2.66-8.92-3.12-12.17-1.45h0l-6.05,3.41,2.43.13a13.13,13.13,0,0,0-1.33,3.2c3.85.17,7.71.95,9.35,3.58a4.82,4.82,0,0,1,1.24-.79l6.71,7.72,5.88-3.31v-9Z" transform="translate(-89.56 -127.08)"/><path class="cls-10" d="M209.93,180.84c-5.3-3.06-10.16-9.45-12.38-16.29l-4-12.19c-1.45-4.46-1.21-8.33.65-10.61a5.47,5.47,0,0,1,.59-.59c-1.64-2.63-5.5-3.41-9.35-3.58-1.06,3.94-.74,9,1,14.46l3.22,9.94-1.13,1.5s7.51,19,7.89,19.21,3.73.86,6,1.29a35.78,35.78,0,0,0,7.45,5.86l18.7,10.8v6.7l5.88-3.31h0v-9Z" transform="translate(-89.56 -127.08)"/><path class="cls-11" d="M204.05,184.15c-5.3-3.06-10.15-9.45-12.37-16.29l-4-12.19c-1.44-4.46-1.2-8.33.66-10.61s4.91-2.45,8.37-.46l6.05,3.49v-9l-6.05-3.49c-6.08-3.5-11.66-3.2-14.94.82s-3.71,11.09-1.17,18.93l4,12.19c3.49,10.75,11.12,20.8,19.45,25.61l24.58,14.19v-9Z" transform="translate(-89.56 -127.08)"/><ellipse class="cls-12" cx="154.91" cy="170.64" rx="36.71" ry="21.2"/><path class="cls-6" d="M284,263.54l-9.11.06c-.66-.45-1.35-.89-2.09-1.32-14.93-8.62-39.14-8.62-54.07,0-.94.54-1.81,1.1-2.63,1.68l-8.57.06v13.87h0c0,5.65,3.74,11.3,11.2,15.61,14.93,8.62,39.14,8.62,54.07,0,7.46-4.31,11.2-10,11.2-15.61h0Z" transform="translate(-89.56 -127.08)"/><path class="cls-4" d="M244.48,255.84c-9.36.17-18.62,2.32-25.76,6.44-.94.54-1.81,1.1-2.63,1.68l-8.57.06v13.87c0,5.65,3.74,11.3,11.2,15.61,7.14,4.12,16.4,6.27,25.76,6.45Z" transform="translate(-89.56 -127.08)"/><path class="cls-7" d="M212.78,264l-5.26,0v13.87c0,3.87,1.76,7.74,5.26,11.18Z" transform="translate(-89.56 -127.08)"/><ellipse class="cls-7" cx="156.19" cy="136.47" rx="38.23" ry="22.07"/><path class="cls-3" d="M272.79,279.15c-14.93,8.62-39.14,8.62-54.07,0-7.09-4.09-10.81-9.39-11.16-14.75-.4,5.93,3.32,11.93,11.16,16.46,14.93,8.62,39.14,8.62,54.07,0,7.84-4.53,11.56-10.53,11.16-16.46C283.59,269.76,279.88,275.06,272.79,279.15Z" transform="translate(-89.56 -127.08)"/><path class="cls-6" d="M266.89,257.53c-.49-.33-1-.65-1.52-1-10.83-6.25-28.4-6.25-39.23,0-.68.39-1.32.8-1.91,1.22l-2.4,0v12.9a21.41,21.41,0,0,0,4.31,3.22c10.83,6.25,28.4,6.25,39.23,0,5.42-3.13,8.12-7.23,8.12-11.33v-5.11Z" transform="translate(-89.56 -127.08)"/><path class="cls-4" d="M226.14,256.57c-.68.39-1.32.8-1.91,1.22l-2.4,0v12.9a21.41,21.41,0,0,0,4.31,3.22c5.18,3,11.9,4.55,18.69,4.68V251.89C238,252,231.32,253.58,226.14,256.57Z" transform="translate(-89.56 -127.08)"/><path class="cls-4" d="M221.83,257.81l-3.81,0v4.77a11.4,11.4,0,0,0,3.81,8.11Z" transform="translate(-89.56 -127.08)"/><ellipse class="cls-4" cx="156.19" cy="130.41" rx="27.74" ry="16.02"/><path class="cls-3" d="M230.9,244.42c8.2,4.73,21.51,4.73,29.71,0s8.21-12.42,0-17.16-21.51-4.73-29.71,0S222.69,239.68,230.9,244.42Z" transform="translate(-89.56 -127.08)"/><path class="cls-11" d="M221.22,248c4.43-3.29,3.57-6.5,3.57-6.5l3.35,4c10.18-4.91,25.05-4.91,35.23,0l3.35-4s-.85,3.21,3.58,6.5,3,9.74,3,9.74h0c0,4.07-2.68,8.13-8.06,11.24-10.75,6.2-28.17,6.2-38.91,0-5.37-3.1-8.06-7.17-8.06-11.23C218.24,257.7,216.8,251.26,221.22,248Z" transform="translate(-89.56 -127.08)"/><path class="cls-10" d="M261.13,248.94s-7.95-4.71-7.95-5.7a1.63,1.63,0,0,1,.43-.74,37.19,37.19,0,0,1,9.76,3l3.35-4s-.85,3.21,3.58,6.5,3,9.74,3,9.74h0a10.57,10.57,0,0,1-2.43,6.49c.07-.5.92-7.15-4.08-9.32C261.57,252.6,261.13,248.94,261.13,248.94Z" transform="translate(-89.56 -127.08)"/><path class="cls-10" d="M230.9,249.24c8.2,4.74,21.51,4.74,29.71,0s8.21-12.41,0-17.15-21.51-4.74-29.71,0S222.69,244.51,230.9,249.24Z" transform="translate(-89.56 -127.08)"/><path class="cls-11" d="M300.71,158.8c-.55,30.63-16.34,34.34-24.79,45.81-7.88,10.7-7,26.17-6.83,28.19,0,.07,0,.15,0,.22h0c0,3.45-2.28,6.9-6.84,9.54-9.12,5.26-23.91,5.26-33,0-4.27-2.47-6.52-5.66-6.78-8.89h-.06V233h0c0-.07,0-.14,0-.22.16-2,1.06-17.49-6.83-28.19-8.45-11.47-24.24-15.18-24.79-45.81Z" transform="translate(-89.56 -127.08)"/><path class="cls-10" d="M260.56,192.15s-1.28,3.66-5.27,14.13-2.11,37-2.11,37l6.78.47c.8-.36,1.58-.73,2.31-1.15,4.56-2.64,6.84-6.09,6.84-9.54h0c0-.07,0-.15,0-.22-.16-2-1-17.49,6.83-28.19,8.45-11.47,24.24-15.18,24.79-45.81h-6Z" transform="translate(-89.56 -127.08)"/><ellipse class="cls-9" cx="156.19" cy="31.73" rx="54.96" ry="31.73"/><path class="cls-3" d="M206.89,181.24c21.47,12.39,56.26,12.39,77.72,0,10.12-5.84,15.46-13.39,16-21,.65,8.57-4.69,17.28-16,23.83-21.46,12.39-56.25,12.39-77.72,0-11.34-6.55-16.68-15.25-16-23.83C191.44,167.85,196.78,175.4,206.89,181.24Z" transform="translate(-89.56 -127.08)"/><ellipse class="cls-13" cx="156.19" cy="31.73" rx="46.12" ry="26.63"/><path class="cls-10" d="M213.14,177.63c7.55,4.36,17.07,6.87,26.9,7.57a6.35,6.35,0,0,0,1.39-6.24c-4.79-14.35-2.93-44.09-2.93-44.09l-8.68-1A57.5,57.5,0,0,0,213.14,140C195.13,150.37,195.13,167.23,213.14,177.63Z" transform="translate(-89.56 -127.08)"/><path class="cls-3" d="M278.37,142.34c-18-10.4-47.22-10.4-65.23,0-8.48,4.9-13,11.23-13.46,17.65-.55-7.21,3.93-14.52,13.46-20,18-10.4,47.22-10.4,65.23,0,9.53,5.5,14,12.81,13.46,20C291.34,153.57,286.85,147.24,278.37,142.34Z" transform="translate(-89.56 -127.08)"/><path class="cls-10" d="M268.34,182a76.6,76.6,0,0,1-45.17,0c.48-.32,1-.63,1.5-.94,11.65-6.72,30.52-6.72,42.17,0C267.36,181.39,267.86,181.7,268.34,182Z" transform="translate(-89.56 -127.08)"/><path class="cls-3" d="M222.42,232.8c0-.24.05-.68.07-1.28.35,3.15,2.58,6.25,6.75,8.66,9.12,5.26,23.91,5.26,33,0,4.08-2.36,6.33-5.37,6.76-8.45,0,.49,0,.86.06,1.07s0,.15,0,.22h0c0,3.45-2.28,6.9-6.84,9.54-9.12,5.26-23.91,5.26-33,0-4.27-2.47-6.52-5.66-6.78-8.89h-.06V233h0C222.4,233,222.42,232.88,222.42,232.8Z" transform="translate(-89.56 -127.08)"/><path class="cls-10" d="M307.52,204.64c-3.28-7.8-8.86-14.55-14.93-18.06l-6-3.49h0l-5.88,3.31.29,2.06,8.13,8.66,11.54,16.5,1.91-1.06a9.58,9.58,0,0,1-.92,4.51l-4,7.62a7.11,7.11,0,0,1-2.45,2.76c1.3,3.19,1.76,6.56-.3,9.48l-1.34,0L294,238c-.16.16-.32.33-.5.49l.7,0,.66,1.76,5.9-3.33h0a11.1,11.1,0,0,0,4-4.45l4-7.62C311.23,220,310.79,212.44,307.52,204.64Z" transform="translate(-89.56 -127.08)"/><path class="cls-10" d="M295.2,227.45c-2.53,1.64-6.11,1.44-9.92-.76L260.7,212.5h0l-5.87,3.32,1.7,2.93,4.17,1.11v1.64l24.58,14.19a20.46,20.46,0,0,0,8.2,2.83C297.12,235.27,296.74,231.23,295.2,227.45Z" transform="translate(-89.56 -127.08)"/><path class="cls-9" d="M292.59,186.58l-6-3.49h0l-5.88,3.31.29,2.06,8.13,8.66,6.4,9.15,10-5.79C302.19,194.48,297.55,189.45,292.59,186.58Z" transform="translate(-89.56 -127.08)"/><path class="cls-11" d="M279.4,239l-24.57-14.19v-9L279.4,230c5.3,3.06,10.16,2.27,12.38-2l4-7.62c1.45-2.79,1.21-6.93-.65-11.37a21.14,21.14,0,0,0-8.37-10.12l-6-3.49v-9l6,3.49c6.08,3.51,11.66,10.26,14.93,18.06s3.72,15.38,1.17,20.28l-3.95,7.63C295.37,242.58,287.73,243.81,279.4,239Z" transform="translate(-89.56 -127.08)"/></svg>